<?xml version="1.0" encoding="utf-8" ?>
<svg baseProfile="full" height="200mm" version="1.1" viewBox="0,0,200,200" width="200mm" xmlns="http://www.w3.org/2000/svg" xmlns:ev="http://www.w3.org/2001/xml-events" xmlns:xlink="http://www.w3.org/1999/xlink"><defs /><rect fill="#1a1a1a" height="200" width="200" x="0" y="0" /><text alignment-baseline="middle" fill="#e1ed5e" style="dominant-baseline: central; font-size:9.0px; font-family:Arial;" text-anchor="middle" x="100.0" y="100.0">2019</text><line stroke="#e1ed5e" stroke-width="0.3" x1="100.0" x2="100.0" y1="15.0" y2="10.0" /><path d="M 100.0 14.0 a86.0,86.0 0 0,1 42.46469731375804,11.215312516191453" fill="none" id="id37" stroke="none" /><text fill="#e1ed5e" style="font-size:6.75px; font-family:Arial;" text-anchor="middle"><textPath startOffset="22.20632615414155" xlink:href="#id37">January</textPath></text><line stroke="#e1ed5e" stroke-width="0.3" x1="143.23703022742887" x2="145.7803849466894" y1="26.81831364943548" y2="22.513508569990506" /><path d="M 143.74570117128098 25.957352633546492 a86.0,86.0 0 0,1 28.547481713284135,27.462654790039103" fill="none" id="id38" stroke="none" /><text fill="#e1ed5e" style="font-size:6.75px; font-family:Arial;" text-anchor="middle"><textPath startOffset="19.985693538727396" xlink:href="#id38">February</textPath></text><path d="M 113.89432698308785 84.25364557470407 l 14.84412774390854 -16.822757725110513 a43.43553667633651,43.43553667633651 0 0,0 0.5563658149431386,0.49951072199870494 l -15.13150454644767 16.56474799434251" fill="#fffe18" stroke="none" /><path d="M 114.16331599549186 84.49514656593476 l 17.351382751791647 -18.99489120559965 a46.72695814338997,46.72695814338997 0 0,0 0.5891871490770403,0.5475852431319287 l -17.675777784663534 18.69340137639308" fill="#d6ff1c" stroke="none" /><path d="M 114.42810811169701 84.74124197986012 l 17.393254739376474 -18.394613014830043 a46.315748031496064,46.315748031496064 0 0,0 0.5745727831823753,0.5527385621880254 l -17.707310766171265 18.092491365879713" fill="#dbff1b" stroke="none" /><path d="M 114.94478906791727 85.2469230424477 l 18.109021448687653 -17.876718489924233 a46.4462909241608,46.4462909241608 0 0,0 0.556771011621582,0.5738014690296706 l -18.414056724012344 17.562352825344448" fill="#daff1c" stroke="none" /><path d="M 115.19652480421416 85.50635884689758 l 22.600186039122637 -21.554861434738214 a52.23108164111065,52.23108164111065 0 0,0 0.614915723357675,0.6559492199190494 l -22.967869084450776 21.16264279794111" fill="#94ff23" stroke="none" /><path d="M 115.4437574822437 85.77008943001954 l 22.723700270547912 -20.937665140152152 a51.899067550766674,51.899067550766674 0 0,0 0.5996970851091181,0.6622004996922535 l -23.080740996273068 20.54341185319035" fill="#98ff23" stroke="none" /><line stroke="#e1ed5e" stroke-width="0.3" x1="172.23445277983987" x2="176.4835382374775" y1="55.19839476539836" y2="52.563006222186495" /><path d="M 173.08426987136738 54.67131705675599 a86.0,86.0 0 0,1 12.851231095245387,41.99856678651699" fill="none" id="id39" stroke="none" /><text fill="#e1ed5e" style="font-size:6.75px; font-family:Arial;" text-anchor="middle"><textPath startOffset="22.20632615414155" xlink:href="#id39">March</textPath></text><path d="M 117.84615892207809 88.93136811851018 l 11.486846966359542 -7.124428349248201 a34.51684624948197,34.51684624948197 0 0,0 0.30881762396481266,0.5076149756712531 l -11.607780388610578 6.925645600369866" fill="#ff850c" stroke="none" /><path d="M 118.03404312379186 89.2402003453031 l 42.574691280146176 -25.401688650205703 a70.5767094902611,70.5767094902611 0 0,0 0.6134807392935905,1.0486374461561752 l -43.0056316939101 24.665071791695635" fill="#3bff9e" stroke="none" /><path d="M 118.56541770881063 90.18545643968196 l 43.574104816810426 -23.035299099329972 a70.28820969747201,70.28820969747201 0 0,0 0.5562494005611182,1.0744967912558796 l -43.96416365053166 22.28182958581375" fill="#3bff9b" stroke="none" /><path d="M 120.08093135843002 93.85539295169968 l 51.32413094357456 -15.70478037670225 a74.67314546208038,74.67314546208038 0 0,0 0.36552185702961487,1.2323579912551799 l -51.58685869771588 14.818992998700539" fill="#41ffcc" stroke="none" /><path d="M 120.18372546131832 94.20196356495316 l 24.927277350714757 -7.160683124775425 a46.93539162867799,46.93539162867799 0 0,0 0.21637937325260967,0.7784317320892045 l -25.04684349453373 6.7305400892672695" fill="#d4ff1c" stroke="none" /><path d="M 120.28053869075195 94.5502522615342 l 60.84161607225586 -16.349243215397394 a84.0,84.0 0 0,0 0.36321467251878925,1.3996142978045985 l -61.11402707664495 15.299532492043943" fill="#4dd2ff" stroke="none" /><path d="M 120.37134235888165 94.90015583598534 l 60.95826608761828 -15.260538656641511 a83.83943224202238,83.83943224202238 0 0,0 0.33842066185138125,1.4029721266255815 l -61.21191954973048 14.208981298356525" fill="#4dd4ff" stroke="none" /><path d="M 120.45610955862082 95.25157060432595 l 32.17153459158231 -7.467903910117385 a54.02691670120182,54.02691670120182 0 0,0 0.2024867427313306,0.9077083640042692 l -32.295315721315674 6.913017376563151" fill="#80ff26" stroke="none" /><path d="M 120.53481517161879 95.60439243477599 l 50.6821875239678 -10.848844026137547 a72.83031496062992,72.83031496062992 0 0,0 0.2518566071987371,1.2281422617545297 l -50.86142342708153 9.974826108219604" fill="#3effb8" stroke="none" /><path d="M 120.6074358757038 95.95851677861258 l 50.90113522849969 -9.9826142959442 a72.87078325735598,72.87078325735598 0 0,0 0.23080701888021804,1.232980323991077 l -51.065427971289765 9.10495589449056" fill="#3effb8" stroke="none" /><path d="M 120.96714384426684 98.82574320788733 l 31.927755218140952 -1.7881015983998299 a52.977786987152925,52.977786987152925 0 0,0 0.043155179958314784,0.9109376417501663 l -31.953804006332764 1.2382528500266639" fill="#8cff24" stroke="none" /><path d="M 120.98425023603335 99.18683210126433 l 42.2506964605289 -1.637271271285664 a63.28240779113137,63.28240779113137 0 0,0 0.03281134245772885,1.0888487179885995 l -42.27261949744228 0.9097524058720655" fill="#32ff46" stroke="none" /><line stroke="#e1ed5e" stroke-width="0.3" x1="184.98032266829074" x2="189.97916517819016" y1="98.17113171792111" y2="98.06355123074" /><path d="M 185.9800911702706 98.14961562048488 a86.0,86.0 0 0,1 -9.607161424134198,41.387399972396054" fill="none" id="id40" stroke="none" /><text fill="#e1ed5e" style="font-size:6.75px; font-family:Arial;" text-anchor="middle"><textPath startOffset="21.466115282336823" xlink:href="#id40">April</textPath></text><path d="M 120.99513854157772 99.54816195383933 l 32.807840506340646 -0.7060601445320017 a53.815437215084955,53.815437215084955 0 0,0 0.011959822020944148,0.9263013957084208 l -32.81513333547931 0.14122249076311813" fill="#82ff25" stroke="none" /><path d="M 120.99980553446 99.90962569577887 l 31.01322296005041 -0.13346782864584297 a52.0135101533361,52.0135101533361 0 0,0 -0.003853217082286072,0.8953519488470195 l -31.01092544567862 -0.4003935984048612" fill="#97ff23" stroke="none" /><path d="M 120.99824983174949 100.27111621757518 l 32.43502970799349 0.41878073848201786 a53.43773311230833,53.43773311230833 0 0,0 -0.0197921589715636,0.9196638556132397 l -32.42301548633692 -0.9770344098853724" fill="#86ff25" stroke="none" /><path d="M 120.9764740272857 100.99374915477107 l 4.5221557351819435 0.21423469138495974 a25.527227517612932,25.527227517612932 0 0,0 -0.024571353326439727,0.4387380197451042 l -4.517798030967974 -0.29204442746548726" fill="#ff0000" stroke="none" /><path d="M 119.26925614724726 108.34839909993367 l 30.85836016038138 13.369374729348815 a54.63002486531289,54.63002486531289 0 0,0 -0.38126272311256415,0.8596467901994514 l -30.62365635253754 -13.898569856040954" fill="#79ff26" stroke="none" /><path d="M 118.81262510543309 109.33194174019688 l 20.589026527013246 10.213119910733079 a43.982946539577284,43.982946539577284 0 0,0 -0.3422738871531969,0.6753388508853453 l -20.410173970073778 -10.566012973321119" fill="#f9ff18" stroke="none" /><line stroke="#e1ed5e" stroke-width="0.3" x1="174.80103733775053" x2="179.2010983576182" y1="140.37084112569926" y2="142.7455964860345" /><path d="M 175.68104954172406 140.8457921977663 a86.0,86.0 0 0,1 -30.038265399797805,32.042727171017184" fill="none" id="id41" stroke="none" /><text fill="#e1ed5e" style="font-size:6.75px; font-family:Arial;" text-anchor="middle"><textPath startOffset="22.206326154141568" xlink:href="#id41">May</textPath></text><path d="M 113.20401910651253 116.32954008644616 l 14.247809676163278 17.620406133478735 a43.66007045171985,43.66007045171985 0 0,0 -0.5884598004186609,0.4675080550827949 l -13.942392383027267 -17.863048102566655" fill="#fdff18" stroke="none" /><line stroke="#e1ed5e" stroke-width="0.3" x1="143.8653032363475" x2="146.44561519142675" y1="172.8068346515853" y2="177.08958963109032" /><path d="M 144.38136562736335 173.6633856474863 a86.0,86.0 0 0,1 -40.68145358897372,12.25698825130547" fill="none" id="id42" stroke="none" /><text fill="#e1ed5e" style="font-size:6.75px; font-family:Arial;" text-anchor="middle"><textPath startOffset="21.466115282336833" xlink:href="#id42">June</textPath></text><path d="M 105.18746579009965 120.34920634021253 l 1.6496485180410159 6.471182546689635 a27.678139245752178,27.678139245752178 0 0,0 -0.4626818984114913,0.1137159536348839 l -1.5380133348863134 -6.498619758638548" fill="#ff2103" stroke="none" /><path d="M 104.83641907484287 120.43548508189849 l 8.729004854060577 36.882959419882376 a58.9018234562785,58.9018234562785 0 0,0 -0.9886526634455742,0.22501412742348703 l -8.09283204122214 -37.027750280883545" fill="#4aff2c" stroke="none" /><path d="M 104.48393922423573 120.51570834832081 l 5.510711134037408 25.21357600180804 a46.80876502279321,46.80876502279321 0 0,0 -0.7886352735719101,0.16526618933413262 l -5.07588439903612 -25.304698171868715" fill="#d5ff1c" stroke="none" /><path d="M 104.13013068566511 120.58985236759428 l 7.285666919437253 36.32107981264061 a58.04459179444675,58.04459179444675 0 0,0 -0.9813195183806717,0.18807222125779405 l -6.659379786484878 -36.44110923224687" fill="#53ff2b" stroke="none" /><line stroke="#e1ed5e" stroke-width="0.3" x1="102.19456741930631" x2="102.32365962044197" y1="184.97166512339345" y2="189.96999836594603" /><path d="M 102.22038585953345 185.97133177190398 a86.0,86.0 0 0,1 -42.740103519485714,-10.115201625700543" fill="none" id="id43" stroke="none" /><text fill="#e1ed5e" style="font-size:6.75px; font-family:Arial;" text-anchor="middle"><textPath startOffset="22.20632615414155" xlink:href="#id43">July</textPath></text><path d="M 97.65516085044442 120.86867818915974 l -4.796765441374335 42.690414122391346 a63.959055118110236,63.959055118110236 0 0,0 -1.093007187115926,-0.13234794873256034 l 5.53090005154165 -42.60152064493344" fill="#33ff4f" stroke="none" /><path d="M 96.22490169976321 120.6578951692458 l -3.874442992348291 21.201523989489118 a42.55263157894737,42.55263157894737 0 0,0 -0.7194077283678811,-0.13787620334652512 l 4.238818335287867 -21.131690587794125" fill="#fff316" stroke="none" /><path d="M 95.86986931433489 120.58985236759428 l -2.348166716810589 11.706265421923987 a32.93945296311645,32.93945296311645 0 0,0 -0.5549647482950327,-0.11629825882640459 l 2.5493229265350084 -11.664111182371043" fill="#ff6f0a" stroke="none" /><path d="M 95.51606077576429 120.51570834832081 l -6.844185973370813 31.314724908047168 a53.05393700787402,53.05393700787402 0 0,0 -0.8904973233645671,-0.20267429158739536 l 7.382203446128242 -31.192273882882088" fill="#8bff24" stroke="none" /><path d="M 95.16358092515715 120.4354850818985 l -10.34498615496898 43.71101986218683 a65.91850393700787,65.91850393700787 0 0,0 -1.1019273467489694,-0.2708269320717477 l 11.09586678646116 -43.526471671801055" fill="#35ff67" stroke="none" /><path d="M 91.40352486487194 119.15986991738527 l -5.082714908946204 11.328382267357467 a33.416369664318275,33.416369664318275 0 0,0 -0.5227784238092994,-0.23998193370835252 l 5.276961328522923 -11.23921326331504" fill="#ff760a" stroke="none" /><path d="M 90.42595943632237 118.69057910512821 l -18.558878879652763 36.2309091439027 a61.70762536261915,61.70762536261915 0 0,0 -0.9412149422444603,-0.49239917321694393 l 19.17978472442372 -35.90608055174104" fill="#30ff32" stroke="none" /><line stroke="#e1ed5e" stroke-width="0.3" x1="58.666819895761336" x2="56.23545636021788" y1="174.27360380694188" y2="178.64263932499728" /><path d="M 58.180547188652646 175.14741091055294 a86.0,86.0 0 0,1 -31.652253787137756,-30.449443065178592" fill="none" id="id44" stroke="none" /><text fill="#e1ed5e" style="font-size:6.75px; font-family:Arial;" text-anchor="middle"><textPath startOffset="22.20632615414155" xlink:href="#id44">August</textPath></text><path d="M 89.1626897886671 117.98757091392108 l -11.475512358465274 19.046847261566413 a43.23667633651057,43.23667633651057 0 0,0 -0.6341807446399905,-0.38956561042268323 l 11.801672303037574 -18.84649318431535" fill="#fffc17" stroke="none" /><path d="M 88.54995079064634 117.60387380957326 l -20.901678101873824 32.1352770617898 a59.33479071694986,59.33479071694986 0 0,0 -0.8513844613326779,-0.5642511963955884 l 21.451737261946462 -31.770727844302893" fill="#46ff2d" stroke="none" /><path d="M 84.43433777217949 114.09645910891817 l -28.084957283204943 25.434089865500404 a58.890074595938664,58.890074595938664 0 0,0 -0.6739861082230032,-0.7572305374662277 l 28.518602241076284 -24.946885158293313" fill="#4aff2c" stroke="none" /><line stroke="#e1ed5e" stroke-width="0.3" x1="26.63291911575756" x2="22.317208475507996" y1="142.92168965132927" y2="145.44649492493687" /><path d="M 25.769776987707644 143.4266507060508 a86.0,86.0 0 0,1 -11.730757126820373,-40.83630448921669" fill="none" id="id45" stroke="none" /><text fill="#e1ed5e" style="font-size:6.75px; font-family:Arial;" text-anchor="middle"><textPath startOffset="21.46611528233685" xlink:href="#id45">September</textPath></text><path d="M 80.58989483394504 108.01547362559985 l -37.58505838505324 15.520886755878163 a61.663675922088686,61.663675922088686 0 0,0 -0.39669530535018305,-0.9845652151339389 l 37.84665630466081 -14.87162217290142" fill="#30ff32" stroke="none" /><path d="M 80.45479744820244 107.68017299344265 l -36.54296780457303 14.359345404026742 a60.262950683796106,60.262950683796106 0 0,0 -0.37106401199948047,-0.9687310449497715 l 36.78472609616602 -13.728190792243813" fill="#3cff2e" stroke="none" /><path d="M 80.32549172779594 107.34259656027581 l -36.163833512275296 13.496471468553388 a59.60022793203482,59.60022793203482 0 0,0 -0.3504372470554793,-0.9642527970879229 l 36.390795020336 -12.871970874459347" fill="#43ff2d" stroke="none" /><path d="M 80.20201598880116 107.00284435728193 l -28.152437894084542 9.95794019930527 a50.86168669705761,50.86168669705761 0 0,0 -0.2848476528222284,-0.8279006133321081 l 28.319676377849998 -9.471866882883866" fill="#a4ff21" stroke="none" /><line stroke="#e1ed5e" stroke-width="0.3" x1="15.007084014347285" x2="10.007500721073583" y1="101.09737516637583" y2="101.16192664675087" /><path d="M 14.007167355692545 101.11028546245083 a86.0,86.0 0 0,1 10.666146001902534,-42.60595125391555" fill="none" id="id46" stroke="none" /><text fill="#e1ed5e" style="font-size:6.75px; font-family:Arial;" text-anchor="middle"><textPath startOffset="22.20632615414155" xlink:href="#id46">October</textPath></text><line stroke="#e1ed5e" stroke-width="0.3" x1="26.266209847984243" x2="21.928928074336255" y1="57.711370442889674" y2="55.22380399835377" /><path d="M 25.398753493254645 57.213857153982495 a86.0,86.0 0 0,1 29.58750427330803,-30.492523968695096" fill="none" id="id47" stroke="none" /><text fill="#e1ed5e" style="font-size:6.75px; font-family:Arial;" text-anchor="middle"><textPath startOffset="21.46611528233685" xlink:href="#id47">November</textPath></text><line stroke="#e1ed5e" stroke-width="0.3" x1="56.762969772571076" x2="54.21961505331055" y1="26.818313649435495" y2="22.513508569990535" /><path d="M 56.25429882871897 25.957352633546506 a86.0,86.0 0 0,1 42.265352541879196,-11.944610805530505" fill="none" id="id48" stroke="none" /><text fill="#e1ed5e" style="font-size:6.75px; font-family:Arial;" text-anchor="middle"><textPath startOffset="22.20632615414155" xlink:href="#id48">December</textPath></text></svg>