<?xml version="1.0" encoding="utf-8" ?>
<svg baseProfile="full" height="200mm" version="1.1" viewBox="0,0,200,200" width="200mm" xmlns="http://www.w3.org/2000/svg" xmlns:ev="http://www.w3.org/2001/xml-events" xmlns:xlink="http://www.w3.org/1999/xlink"><defs /><rect fill="#1a1a1a" height="200" width="200" x="0" y="0" /><text alignment-baseline="middle" fill="#e1ed5e" style="dominant-baseline: central; font-size:9.0px; font-family:Arial;" text-anchor="middle" x="100.0" y="100.0">2021</text><line stroke="#e1ed5e" stroke-width="0.3" x1="100.0" x2="100.0" y1="15.0" y2="10.0" /><path d="M 100.0 14.0 a86.0,86.0 0 0,1 42.46469731375804,11.215312516191453" fill="none" id="id61" stroke="none" /><text fill="#e1ed5e" style="font-size:6.75px; font-family:Arial;" text-anchor="middle"><textPath startOffset="22.20632615414155" xlink:href="#id61">January</textPath></text><path d="M 102.52436894288641 79.15227682838746 l 4.045929982943318 -33.41366898599375 a54.6577305315204,54.6577305315204 0 0,0 0.933047208035099,0.12113630623712958 l -4.6204919194862635 33.339074356592484" fill="#a4ff21" stroke="none" /><path d="M 105.01212808612495 79.60689891045804 l 7.521983751423162 -30.605078801020976 a52.51588627935723,52.51588627935723 0 0,0 0.875992769832709,0.223310061823003 l -8.047685409940895 30.471065743029104" fill="#c1ff1e" stroke="none" /><line stroke="#e1ed5e" stroke-width="0.3" x1="143.23703022742887" x2="145.7803849466894" y1="26.81831364943548" y2="22.513508569990506" /><path d="M 143.74570117128098 25.957352633546492 a86.0,86.0 0 0,1 28.547481713284135,27.462654790039103" fill="none" id="id62" stroke="none" /><text fill="#e1ed5e" style="font-size:6.75px; font-family:Arial;" text-anchor="middle"><textPath startOffset="19.985693538727396" xlink:href="#id62">February</textPath></text><path d="M 111.90073688211348 82.69761687909136 l 18.200095535520344 -26.460968670436433 a53.11582694684797,53.11582694684797 0 0,0 0.7488543978202515,0.5246203618049552 l -18.65288107292425 26.14376346586754" fill="#b9ff1f" stroke="none" /><line stroke="#e1ed5e" stroke-width="0.3" x1="172.23445277983987" x2="176.4835382374775" y1="55.19839476539836" y2="52.563006222186495" /><path d="M 173.08426987136738 54.67131705675599 a86.0,86.0 0 0,1 12.851231095245387,41.99856678651699" fill="none" id="id63" stroke="none" /><text fill="#e1ed5e" style="font-size:6.75px; font-family:Arial;" text-anchor="middle"><textPath startOffset="22.20632615414155" xlink:href="#id63">March</textPath></text><path d="M 120.73433829027371 96.67025291283417 l 33.66128836381523 -5.405698282266389 a55.092578491965384,55.092578491965384 0 0,0 0.14230703325818597,0.9376255454113006 l -33.74935129051272 4.825473624463006" fill="#9eff22" stroke="none" /><line stroke="#e1ed5e" stroke-width="0.3" x1="184.98032266829074" x2="189.97916517819016" y1="98.17113171792111" y2="98.06355123074" /><path d="M 185.9800911702706 98.14961562048488 a86.0,86.0 0 0,1 -9.607161424134198,41.387399972396054" fill="none" id="id64" stroke="none" /><text fill="#e1ed5e" style="font-size:6.75px; font-family:Arial;" text-anchor="middle"><textPath startOffset="21.466115282336823" xlink:href="#id64">April</textPath></text><path d="M 120.99513854157772 99.54816195383933 l 21.411615653215826 -0.4608010831999582 a42.416573547589614,42.416573547589614 0 0,0 0.009426564135118836,0.7300977807031113 l -21.41637522446866 0.09216704443638431" fill="#ffa90f" stroke="none" /><path d="M 120.41448212921028 104.9243191809786 l 29.545837087435945 7.126956802864439 a51.393255871446236,51.393255871446236 0 0,0 -0.21484506605009104,0.8581992417544057 l -29.418780707090793 -7.634483884016241" fill="#d0ff1d" stroke="none" /><line stroke="#e1ed5e" stroke-width="0.3" x1="174.80103733775053" x2="179.2010983576182" y1="140.37084112569926" y2="142.7455964860345" /><path d="M 175.68104954172406 140.8457921977663 a86.0,86.0 0 0,1 -30.038265399797805,32.042727171017184" fill="none" id="id65" stroke="none" /><text fill="#e1ed5e" style="font-size:6.75px; font-family:Arial;" text-anchor="middle"><textPath startOffset="22.206326154141568" xlink:href="#id65">May</textPath></text><path d="M 117.35343817320211 111.8261652097733 l 20.801474101154135 14.17596137847514 a46.17258838071693,46.17258838071693 0 0,0 -0.4532369277512895,0.6529215984331422 l -20.55437626624071 -14.531924239095304" fill="#ffe215" stroke="none" /><path d="M 117.14729908036423 112.12312394758627 l 26.577338573627987 18.79015279403488 a53.54880593325093,53.54880593325093 0 0,0 -0.5385995193933245,0.7480676251921381 l -26.24995926185906 -19.24485402467815" fill="#b3ff20" stroke="none" /><path d="M 116.71984013943494 112.70617746262583 l 24.971876939031443 18.977280722548244 a52.364499381953024,52.364499381953024 0 0,0 -0.5515557277655561,0.7129601285973023 l -24.641514394047817 -19.4043188452588" fill="#c3ff1e" stroke="none" /><path d="M 116.498646956653 112.99209946851258 l 23.906845348353794 18.82579302170664 a51.42938936959209,51.42938936959209 0 0,0 -0.553679225258156,0.6907999655823116 l -23.579248211040785 -19.234520820867203" fill="#d0ff1d" stroke="none" /><line stroke="#e1ed5e" stroke-width="0.3" x1="143.8653032363475" x2="146.44561519142675" y1="172.8068346515853" y2="177.08958963109032" /><path d="M 144.38136562736335 173.6633856474863 a86.0,86.0 0 0,1 -40.68145358897372,12.25698825130547" fill="none" id="id66" stroke="none" /><text fill="#e1ed5e" style="font-size:6.75px; font-family:Arial;" text-anchor="middle"><textPath startOffset="21.466115282336833" xlink:href="#id66">June</textPath></text><line stroke="#e1ed5e" stroke-width="0.3" x1="102.19456741930631" x2="102.32365962044197" y1="184.97166512339345" y2="189.96999836594603" /><path d="M 102.22038585953345 185.97133177190398 a86.0,86.0 0 0,1 -42.740103519485714,-10.115201625700543" fill="none" id="id67" stroke="none" /><text fill="#e1ed5e" style="font-size:6.75px; font-family:Arial;" text-anchor="middle"><textPath startOffset="22.20632615414155" xlink:href="#id67">July</textPath></text><line stroke="#e1ed5e" stroke-width="0.3" x1="58.666819895761336" x2="56.23545636021788" y1="174.27360380694188" y2="178.64263932499728" /><path d="M 58.180547188652646 175.14741091055294 a86.0,86.0 0 0,1 -31.652253787137756,-30.449443065178592" fill="none" id="id68" stroke="none" /><text fill="#e1ed5e" style="font-size:6.75px; font-family:Arial;" text-anchor="middle"><textPath startOffset="22.20632615414155" xlink:href="#id68">August</textPath></text><path d="M 88.24862548938628 117.40417183066458 l -35.03763096607329 51.89188288758802 a83.61312237330037,83.61312237330037 0 0,0 -1.185885374003395,-0.8156627737196912 l 35.92567322469957 -51.281079324503224" fill="#4cd6ff" stroke="none" /><line stroke="#e1ed5e" stroke-width="0.3" x1="26.63291911575756" x2="22.317208475507996" y1="142.92168965132927" y2="145.44649492493687" /><path d="M 25.769776987707644 143.4266507060508 a86.0,86.0 0 0,1 -11.730757126820373,-40.83630448921669" fill="none" id="id69" stroke="none" /><text fill="#e1ed5e" style="font-size:6.75px; font-family:Arial;" text-anchor="middle"><textPath startOffset="21.46611528233685" xlink:href="#id69">September</textPath></text><path d="M 80.32549172779594 107.34259656027581 l -54.77733304364946 20.44309578784331 a79.46773794808405,79.46773794808405 0 0,0 -0.4672541747325167,-1.2856828111810543 l 55.1211114793872 -19.497165179656136" fill="#46fff9" stroke="none" /><line stroke="#e1ed5e" stroke-width="0.3" x1="15.007084014347285" x2="10.007500721073583" y1="101.09737516637583" y2="101.16192664675087" /><path d="M 14.007167355692545 101.11028546245083 a86.0,86.0 0 0,1 10.666146001902534,-42.60595125391555" fill="none" id="id70" stroke="none" /><text fill="#e1ed5e" style="font-size:6.75px; font-family:Arial;" text-anchor="middle"><textPath startOffset="22.20632615414155" xlink:href="#id70">October</textPath></text><path d="M 79.46518482838121 95.60439243477599 l -10.937416215315022 -2.341223383714171 a32.185186650185415,32.185186650185415 0 0,0 0.1206264211788895,-0.5407445936806968 l 10.895495407134096 2.529146146944827" fill="#ff0000" stroke="none" /><path d="M 81.10775173730289 90.83032412892265 l -56.125810398705 -27.241622182885354 a83.38759950556243,83.38759950556243 0 0,0 0.6378753764009311,-1.2859178351411968 l 55.64857500935066 28.203699606525515" fill="#4cd9ff" stroke="none" /><line stroke="#e1ed5e" stroke-width="0.3" x1="26.266209847984243" x2="21.928928074336255" y1="57.711370442889674" y2="55.22380399835377" /><path d="M 25.398753493254645 57.213857153982495 a86.0,86.0 0 0,1 29.58750427330803,-30.492523968695096" fill="none" id="id71" stroke="none" /><text fill="#e1ed5e" style="font-size:6.75px; font-family:Arial;" text-anchor="middle"><textPath startOffset="21.46611528233685" xlink:href="#id71">November</textPath></text><path d="M 81.78341655067845 89.55222093294921 l -54.64975034796462 -31.34333720115236 a84.0,84.0 0 0,0 0.7301613021187001,-1.2480823505844327 l 54.1021293713756 32.27939896409068" fill="#4dd2ff" stroke="none" /><path d="M 81.96595687620814 89.24020034530311 l -53.74688770113982 -32.067448201053296 a83.58633374536466,83.58633374536466 0 0,0 0.7478357899966517,-1.22924540857322 l 53.18693611285695 32.987861382833586" fill="#4cd6ff" stroke="none" /><path d="M 82.34701348167596 88.62581576622439 l -52.605987107604506 -33.89512525489226 a83.58010383189122,83.58010383189122 0 0,0 0.7896463722562668,-1.2026855994699288 l 52.01474409999032 34.79562891833985" fill="#4cd7ff" stroke="none" /><path d="M 82.54541684631803 88.32363383020206 l -51.95519570752535 -34.755793602358835 a83.50845982694685,83.50845982694685 0 0,0 0.8095371109738683,-1.1878958187213635 l 51.34923413088274 35.64496744435061" fill="#4cd7ff" stroke="none" /><line stroke="#e1ed5e" stroke-width="0.3" x1="56.762969772571076" x2="54.21961505331055" y1="26.818313649435495" y2="22.513508569990535" /><path d="M 56.25429882871897 25.957352633546506 a86.0,86.0 0 0,1 42.265352541879196,-11.944610805530505" fill="none" id="id72" stroke="none" /><text fill="#e1ed5e" style="font-size:6.75px; font-family:Arial;" text-anchor="middle"><textPath startOffset="22.20632615414155" xlink:href="#id72">December</textPath></text></svg>