<?xml version="1.0" encoding="utf-8" ?>
<svg baseProfile="full" height="200mm" version="1.1" viewBox="0,0,200,200" width="200mm" xmlns="http://www.w3.org/2000/svg" xmlns:ev="http://www.w3.org/2001/xml-events" xmlns:xlink="http://www.w3.org/1999/xlink"><defs /><rect fill="#1a1a1a" height="200" width="200" x="0" y="0" /><text alignment-baseline="middle" fill="#e1ed5e" style="dominant-baseline: central; font-size:9.0px; font-family:Arial;" text-anchor="middle" x="100.0" y="100.0">2025</text><line stroke="#e1ed5e" stroke-width="0.3" x1="100.0" x2="100.0" y1="15.0" y2="10.0" /><path d="M 100.0 14.0 a86.0,86.0 0 0,1 42.46469731375804,11.215312516191453" fill="none" id="id109" stroke="none" /><text fill="#e1ed5e" style="font-size:6.75px; font-family:Arial;" text-anchor="middle"><textPath startOffset="22.20632615414155" xlink:href="#id109">January</textPath></text><path d="M 105.71112130821622 79.79150937346287 l 0.9792403002178065 -3.4649882851568656 a24.600702067909115,24.600702067909115 0 0,0 0.4065087746874275,0.11867105853582381 l -1.0387392926286612 3.447618897702338" fill="#ff2703" stroke="none" /><path d="M 106.0581310904928 79.89281104454417 l 1.0503647590647613 -3.486204304131198 a24.641000765892265,24.641000765892265 0 0,0 0.40506828073487644,0.1258566865956815 l -1.110218412510356 3.4676074826529955" fill="#ff2703" stroke="none" /><path d="M 106.74666289553966 80.11325718540242 l 1.847567117508859 -5.445965311664966 a26.75082971661986,26.75082971661986 0 0,0 0.434787599453396,0.15168885617098343 l -1.9410367210255286 5.413355602321775" fill="#ff4506" stroke="none" /><path d="M 107.08798089147638 80.2323363322302 l 2.054856991149057 -5.730788853458541 a27.088052080673982,27.088052080673982 0 0,0 0.4375593345789309,0.16115679564054733 l -2.1531986515005643 5.694568790011669" fill="#ff4a06" stroke="none" /><line stroke="#e1ed5e" stroke-width="0.3" x1="143.23703022742887" x2="145.7803849466894" y1="26.81831364943548" y2="22.513508569990506" /><path d="M 143.74570117128098 25.957352633546492 a86.0,86.0 0 0,1 28.547481713284135,27.462654790039103" fill="none" id="id110" stroke="none" /><text fill="#e1ed5e" style="font-size:6.75px; font-family:Arial;" text-anchor="middle"><textPath startOffset="19.985693538727396" xlink:href="#id110">February</textPath></text><path d="M 113.06298171725822 83.55741782278167 l 2.7061971485399887 -3.4063332526780936 a25.350472300229768,25.350472300229768 0 0,0 0.3393300765895045,0.2743813231103238 l -2.7644306236939844 3.3592458323036403" fill="#ff3104" stroke="none" /><path d="M 114.42810811169701 84.74124197986012 l 0.6245304391979136 -0.6604856835115436 a21.908999234107736,21.908999234107736 0 0,0 0.27179340076989333,0.2614650361990082 l -0.6358070835802252 0.6496375605502335" fill="#ff0000" stroke="none" /><path d="M 114.94478906791727 85.2469230424477 l 1.9641504754056185 -1.9389543062925507 a23.75996936430942,23.75996936430942 0 0,0 0.28482063725314305,0.2935327031302025 l -1.9972353763618704 1.904857407612234" fill="#ff1b02" stroke="none" /><path d="M 116.38621287248628 86.86637796730983 l 4.128277015487673 -3.308832271958068 a26.290656114373245,26.290656114373245 0 0,0 0.2799903789755679,0.35555934783081233 l -4.184621475057205 3.237280530174217" fill="#ff3f05" stroke="none" /><path d="M 116.60985879189232 87.15038557335679 l 4.513610040610175 -3.4917905938114573 a26.706599438345673,26.706599438345673 0 0,0 0.2781607548553988,0.36602694775252015 l -4.573046735689687 3.4135788701779037" fill="#ff4506" stroke="none" /><path d="M 116.82858285166822 87.43820079747576 l 2.1751419508345027 -1.6236480911202396 a23.71430942047485,23.71430942047485 0 0,0 0.2413635495988473,0.329219610403015 l -2.2027681129469765 1.585966037045731" fill="#ff1a02" stroke="none" /><path d="M 117.04232023915458 87.72973835380427 l 5.023285890251703 -3.616704259283964 a27.189826397753382,27.189826397753382 0 0,0 0.270198744711161,0.38217696253313616 l -5.084797254766747 3.529700796419035" fill="#ff4b07" stroke="none" /><path d="M 117.2510076193507 88.02491185347247 l 5.049417348067203 -3.5051412164401983 a27.146757722747,27.146757722747 0 0,0 0.2631626527985552,0.3861587204161116 l -5.109004466534492 3.4177044727536803" fill="#ff4b06" stroke="none" /><path d="M 117.65298651832404 88.62581576622439 l 14.805464099339847 -9.539466659516254 a38.61258616287975,38.61258616287975 0 0,0 0.3551850516306492,0.5618174538050381 l -14.967476747216452 9.28320155799701" fill="#ffe215" stroke="none" /><line stroke="#e1ed5e" stroke-width="0.3" x1="172.23445277983987" x2="176.4835382374775" y1="55.19839476539836" y2="52.563006222186495" /><path d="M 173.08426987136738 54.67131705675599 a86.0,86.0 0 0,1 12.851231095245387,41.99856678651699" fill="none" id="id111" stroke="none" /><text fill="#e1ed5e" style="font-size:6.75px; font-family:Arial;" text-anchor="middle"><textPath startOffset="22.20632615414155" xlink:href="#id111">March</textPath></text><path d="M 117.84615892207809 88.93136811851018 l 5.413304499174643 -3.357466165430719 a27.36996425836099,27.36996425836099 0 0,0 0.24487542312460656,0.40251080995962935 l -5.470295720585473 3.2637875822640083" fill="#ff4e07" stroke="none" /><path d="M 118.3937258080291 89.86733742301442 l 4.738837988045075 -2.610512238847333 a26.410301250957364,26.410301250957364 0 0,0 0.21592546771380125,0.4000770982784806 l -4.783071554977342 2.5285541572363934" fill="#ff4006" stroke="none" /><path d="M 118.73160827565052 90.50648371742162 l 5.384759538384925 -2.7290930710887538 a27.036852182792956,27.036852182792956 0 0,0 0.20681902782973713,0.4169345398366065 l -5.43093857916807 2.635998942753197" fill="#ff4906" stroke="none" /><path d="M 118.89224826269711 90.83032412892265 l 3.323868493805901 -1.6132964326149986 a24.694702578503957,24.694702578503957 0 0,0 0.18231958525294734,0.38401154383388436 l -3.3511462729006043 1.555842473140574" fill="#ff2803" stroke="none" /><path d="M 119.04729006885535 91.15688171328212 l 2.7684298419795343 -1.2853037084333085 a24.052246617309166,24.052246617309166 0 0,0 0.1711119007834364,0.37702239163433915 l -2.790144059726318 1.2374593079569067" fill="#ff1f03" stroke="none" /><path d="M 119.34039704204932 91.81776055985345 l 5.626835963522953 -2.380515717638755 a27.1096757722747,27.1096757722747 0 0,0 0.17812130152955175,0.43133486010871264 l -5.666978951938702 2.2833062870767393" fill="#ff4a06" stroke="none" /><path d="M 119.47837535516314 92.15188598940014 l 18.688946688420177 -7.530041991405894 a41.14890222108757,41.14890222108757 0 0,0 0.25905477566261903,0.6592661476062371 l -18.815795013964497 7.207226838903873" fill="#fdff18" stroke="none" /><path d="M 119.61058180528143 92.48833698450437 l 3.5193409446062245 -1.3480529784893176 a24.76868777125351,24.76868777125351 0 0,0 0.14907849919630237,0.39945626067943113 l -3.5420240323041523 1.287273580780553" fill="#ff2904" stroke="none" /><path d="M 119.85752413597 93.16781622104841 l 1.9529691638107851 -0.6719389663291931 a23.06533061016084,23.06533061016084 0 0,0 0.1259396775147558,0.3765436058644005 l -1.964246135097311 0.6382222575424786" fill="#ff1101" stroke="none" /><path d="M 120.18372546131832 94.20196356495316 l 2.845319582413996 -0.8173548852418394 a23.96039060505489,23.96039060505489 0 0,0 0.11046108537936844,0.39738729587654087 l -2.8589674383597274 0.7682562859463467" fill="#ff1e03" stroke="none" /><path d="M 120.37134235888165 94.90015583598534 l 1.7593274438695452 -0.44043714150712804 a22.813620117436813,22.813620117436813 0 0,0 0.09208793777469305,0.3817639537418747 l -1.7666481819050577 0.41008795610584714" fill="#ff0d01" stroke="none" /><path d="M 120.53481517161879 95.60439243477599 l 5.436195198419737 -1.1636520972068027 a26.559343885626756,26.559343885626756 0 0,0 0.09184563109571128,0.44787191553466077 l -5.455420125430446 1.06990452550873" fill="#ff4206" stroke="none" /><path d="M 120.83666639777658 97.38593545837742 l 1.982417924662941 -0.24870429389277862 a22.997957620628032,22.997957620628032 0 0,0 0.04589696597709253,0.3932171756869603 l -1.9864052436436224 0.21454337988096558" fill="#ff1001" stroke="none" /><path d="M 120.87857604477298 97.74499172005257 l 4.489489060499734 -0.484891066442955 a25.515598672453407,25.515598672453407 0 0,0 0.04340431069136885,0.4370754852955679 l -4.4971704968733315 0.4075400504429521" fill="#ff3404" stroke="none" /><path d="M 120.96714384426684 98.82574320788733 l 7.418168711815114 -0.41545167332213584 a28.429793209088587,28.429793209088587 0 0,0 0.023158627641683374,0.4888420270860359 l -7.424220947690294 0.28769853961310016" fill="#ff5c08" stroke="none" /><path d="M 120.98425023603335 99.18683210126433 l 3.9882754214242957 -0.1545510326811541 a24.991268828184836,24.991268828184836 0 0,0 0.012957741473447127,0.43000435625477346 l -3.990344857353388 0.08587652900138155" fill="#ff2c04" stroke="none" /><line stroke="#e1ed5e" stroke-width="0.3" x1="184.98032266829074" x2="189.97916517819016" y1="98.17113171792111" y2="98.06355123074" /><path d="M 185.9800911702706 98.14961562048488 a86.0,86.0 0 0,1 -9.607161424134198,41.387399972396054" fill="none" id="id112" stroke="none" /><text fill="#e1ed5e" style="font-size:6.75px; font-family:Arial;" text-anchor="middle"><textPath startOffset="21.466115282336823" xlink:href="#id112">April</textPath></text><path d="M 120.99513854157772 99.54816195383933 l 4.9539843750454935 -0.10661509169364228 a25.95513147817207,25.95513147817207 0 0,0 0.005768210184161243,0.44675423555394045 l -4.95508559234737 0.021324598079239077" fill="#ff3a05" stroke="none" /><path d="M 120.99980553446 99.90962569577887 l 22.22975329712633 -0.09566748053635368 a43.22995915241256,43.22995915241256 0 0,0 -0.0032025221251467733,0.7441533567256673 l -22.228106477711677 -0.2869953543929983" fill="#e4ff1a" stroke="none" /><path d="M 120.89721153311464 102.0752229133903 l 4.679687869065713 0.46472207442656577 a25.702706152667858,25.702706152667858 0 0,0 -0.04751047133530093,0.43988795851348717 l -4.67099509622936 -0.5452063548248444" fill="#ff3605" stroke="none" /><path d="M 120.8583938346157 102.4346265915055 l 5.084311154810781 0.5934492960070465 a26.118828184835333,26.118828184835333 0 0,0 -0.055967040407546444,0.44611237851040103 l -5.073342605156387 -0.6808794288048425" fill="#ff3c05" stroke="none" /><path d="M 120.81339534386255 102.79330883721812 l 12.14229856525532 1.6295846653616757 a33.2511616032678,33.2511616032678 0 0,0 -0.0810155827729307,0.5666227972209779 l -12.112448931465789 -1.838352934563063" fill="#ff9d0e" stroke="none" /><path d="M 120.41448212921028 104.9243191809786 l 11.29111438605985 2.723608210778003 a32.614960428899664,32.614960428899664 0 0,0 -0.13634402430341427,0.5446266019795561 l -11.242559047461375 -2.9175626521549556" fill="#ff950d" stroke="none" /><path d="M 120.32669344350535 105.2749913415812 l 5.981247603519087 1.55219683949617 a27.17937196834312,27.17937196834312 0 0,0 -0.12141662705584022,0.4518364373687109 l -5.953642900121469 -1.6549242100404291" fill="#ff4b07" stroke="none" /><path d="M 120.23288151984713 105.62410040840565 l 10.165942533704143 2.825810129889295 a31.551378606076078,31.551378606076078 0 0,0 -0.14995523339432332,0.5220138397240855 l -10.11579466342372 -3.0003814451179625" fill="#ff870c" stroke="none" /><path d="M 120.13307415673323 105.97154293290107 l 1.2812112036767174 0.38001189730435064 a22.336379882563186,22.336379882563186 0 0,0 -0.11250433289084748,0.3676706693444259 l -1.274480098279737 -0.40200953920083365" fill="#ff0601" stroke="none" /><path d="M 119.79798401119884 107.00284435728193 l 5.076192317806275 1.795525479216456 a26.384388562675518,26.384388562675518 0 0,0 -0.15513485122388587,0.426864482800726 l -5.044533205577163 -1.8826377590233132" fill="#ff4006" stroke="none" /><path d="M 119.41010516605496 108.01547362559984 l 3.839652792422183 1.5855986057687093 a25.154161347970387,25.154161347970387 0 0,0 -0.16871137832342747,0.3987838618210904 l -3.811790432906447 -1.651456993255963" fill="#ff2f04" stroke="none" /><path d="M 118.97047184881838 109.00673069616215 l 4.596436681810543 2.1822792645828346 a26.088179729384734,26.088179729384734 0 0,0 -0.1960921052920669,0.40400781746470227 l -4.558191319903761 -2.261076038012812" fill="#ff3c05" stroke="none" /><line stroke="#e1ed5e" stroke-width="0.3" x1="174.80103733775053" x2="179.2010983576182" y1="140.37084112569926" y2="142.7455964860345" /><path d="M 175.68104954172406 140.8457921977663 a86.0,86.0 0 0,1 -30.038265399797805,32.042727171017184" fill="none" id="id113" stroke="none" /><text fill="#e1ed5e" style="font-size:6.75px; font-family:Arial;" text-anchor="middle"><textPath startOffset="22.206326154141568" xlink:href="#id113">May</textPath></text><path d="M 116.0416608686014 113.55231037782055 l 3.7908338069967846 3.202570903597131 a25.96254786826653,25.96254786826653 0 0,0 -0.2913461369421056,0.33890137784794805 l -3.7351451604839 -3.267349380606607" fill="#ff3a05" stroke="none" /><path d="M 115.07121518719521 114.62390073753431 l 0.8082614084733563 0.784272167883084 a22.126219045187643,22.126219045187643 0 0,0 -0.26757908374286465,0.271056199125742 l -0.794641699674956 -0.7980688609894906" fill="#ff0300" stroke="none" /><path d="M 114.29624159901734 115.38237550388516 l 2.4385487755144557 2.623813586927702 a24.58202706152668,24.58202706152668 0 0,0 -0.3124263856066292,0.28539409569355095 l -2.393022840440963 -2.6654004492078363" fill="#ff2703" stroke="none" /><path d="M 114.0293411484842 115.62618273729858 l 2.4370174980293906 2.71440264764792 a24.64788103140158,24.64788103140158 0 0,0 -0.31814269705762194,0.28072394033623943 l -2.389932448065181 -2.755949729756448" fill="#ff2703" stroke="none" /><path d="M 112.63410532772338 116.77436683061366 l 2.191481311335082 2.9096410442379224 a24.64260913964769,24.64260913964769 0 0,0 -0.34102440876583195,0.2522817048627949 l -2.1410719321506857 -2.946932697840486" fill="#ff2703" stroke="none" /><path d="M 111.45004920935366 117.60387380957326 l 0.7053604478470881 1.084456152731691 a22.2936686239469,22.2936686239469 0 0,0 -0.32348983470723747,0.20646651790195447 l -0.6865888110929201 -1.0964370994574544" fill="#ff0600" stroke="none" /><path d="M 111.1453310114006 117.79835938074945 l 21.898047796593282 34.96973970731959 a62.260237426601996,62.260237426601996 0 0,0 -0.9132118164069697,0.5609692847198361 l -21.292856780254006 -35.3414974588678" fill="#32ff49" stroke="none" /><line stroke="#e1ed5e" stroke-width="0.3" x1="143.8653032363475" x2="146.44561519142675" y1="172.8068346515853" y2="177.08958963109032" /><path d="M 144.38136562736335 173.6633856474863 a86.0,86.0 0 0,1 -40.68145358897372,12.25698825130547" fill="none" id="id114" stroke="none" /><text fill="#e1ed5e" style="font-size:6.75px; font-family:Arial;" text-anchor="middle"><textPath startOffset="21.466115282336833" xlink:href="#id114">June</textPath></text><path d="M 110.5260780823613 118.17145234162733 l 1.797253260526738 3.102646751616124 a24.585601225427624,24.585601225427624 0 0,0 -0.368024479104612,0.20897390408450162 l -1.7435800145009268 -3.133123821495254" fill="#ff2703" stroke="none" /><path d="M 110.21172684928248 118.3499491758327 l 7.302371022653877 13.12198603688535 a36.01702833801379,36.01702833801379 0 0,0 -0.544332532322191,0.2968134976060258 l -7.075415678463036 -13.245740186251147" fill="#ffc111" stroke="none" /><path d="M 108.92500713936063 119.00905698771935 l 1.5296919946412446 3.2580368671701248 a24.599272402348735,24.599272402348735 0 0,0 -0.38484039357175415,0.17666134945944595 l -1.473383605302071 -3.283885286963645" fill="#ff2703" stroke="none" /><path d="M 107.59598834532513 119.57807347666477 l 1.3165474821652356 3.393299485143659 a24.639749808526933,24.639749808526933 0 0,0 -0.39673491253710824,0.15001119666452262 l -1.2579423488678527 -3.4154589319148125" fill="#ff2703" stroke="none" /><path d="M 106.91757812671514 119.82793768551818 l 3.3865580331347838 9.706932168942984 a31.280725044677048,31.280725044677048 0 0,0 -0.5099209027838794,0.17299285592142233 l -3.2189673974136777 -9.76378801176253" fill="#ff830c" stroke="none" /><path d="M 106.2309692047433 120.05430185196036 l 0.7431190359958737 2.391719966847916 a23.504505999489407,23.504505999489407 0 0,0 -0.3874046542782222,0.11672184440519102 l -0.7018394072774057 -2.4041571803588324" fill="#ff1702" stroke="none" /><path d="M 104.48393922423573 120.51570834832081 l 1.0706926445616747 4.898821533484025 a26.01446259892775,26.01446259892775 0 0,0 -0.43829233303936815,0.09184841982493203 l -0.9862088500929285 -4.916525934035498" fill="#ff3b05" stroke="none" /><path d="M 104.13013068566511 120.58985236759428 l 0.5866043838290415 2.924386316187121 a23.98263977533827,23.98263977533827 0 0,0 -0.40545780039551765,0.07770695244349908 l -0.5361789688618194 -2.9340504669790883" fill="#ff1e03" stroke="none" /><path d="M 103.06178313531738 120.77559828337769 l 0.3431120008290943 2.32817178107956 a23.353318866479448,23.353318866479448 0 0,0 -0.3981978946182604,0.05518659980661164 l -0.3029855150240035 -2.333732946378774" fill="#ff1502" stroke="none" /><path d="M 102.70371172650421 120.8252237178851 l 0.24746635583708612 1.9060990017676194 a22.92209599183048,22.92209599183048 0 0,0 -0.3917196027453253,0.04743178865865459 l -0.2146193300403805 -1.9100763191516248" fill="#ff0f01" stroke="none" /><path d="M 102.34483914955558 120.86867818915974 l 0.21193546598102195 1.8861903756877327 a22.89805973959663,22.89805973959663 0 0,0 -0.3920664706350738,0.0406392927444066 l -0.17943639874034548 -1.8895590368878978" fill="#ff0e01" stroke="none" /><line stroke="#e1ed5e" stroke-width="0.3" x1="102.19456741930631" x2="102.32365962044197" y1="184.97166512339345" y2="189.96999836594603" /><path d="M 102.22038585953345 185.97133177190398 a86.0,86.0 0 0,1 -42.740103519485714,-10.115201625700543" fill="none" id="id115" stroke="none" /><text fill="#e1ed5e" style="font-size:6.75px; font-family:Arial;" text-anchor="middle"><textPath startOffset="22.20632615414155" xlink:href="#id115">July</textPath></text><path d="M 100.18074693466247 120.99922214144158 l 0.03717994132125816 4.31957448389861 a25.319734490681643,25.319734490681643 0 0,0 -0.4358537519674242,0.0 l 0.03717994132125518 -4.31957448389861" fill="#ff3104" stroke="none" /><path d="M 97.2962882734958 120.8252237178851 l -2.423101836142138 18.66383806165731 a39.82047485320398,39.82047485320398 0 0,0 -0.6789796919188628,-0.09410039842290703 l 2.744010119247832 -18.619363097741797" fill="#fff116" stroke="none" /><path d="M 94.46302465271185 120.25689768951611 l -0.5197246028473173 1.901400574549932 a22.971151391370945,22.971151391370945 0 0,0 -0.380521314371823,-0.1075391243661515 l 0.5523770853237542 -1.8921726568452593" fill="#ff0f01" stroke="none" /><line stroke="#e1ed5e" stroke-width="0.3" x1="58.666819895761336" x2="56.23545636021788" y1="174.27360380694188" y2="178.64263932499728" /><path d="M 58.180547188652646 175.14741091055294 a86.0,86.0 0 0,1 -31.652253787137756,-30.449443065178592" fill="none" id="id116" stroke="none" /><text fill="#e1ed5e" style="font-size:6.75px; font-family:Arial;" text-anchor="middle"><textPath startOffset="22.20632615414155" xlink:href="#id116">August</textPath></text><path d="M 89.7882731507175 118.34994917583269 l -4.338615221489897 7.79626893500658 a29.922185345928007,29.922185345928007 0 0,0 -0.4479083742811739,-0.254334064607351 l 4.4721723626922785 -7.720431704604596" fill="#ff710a" stroke="none" /><path d="M 88.8546689885994 117.79835938074946 l -1.1126361849607724 1.7768066879037683 a23.096425836099055,23.096425836099055 0 0,0 -0.3351381552349039,-0.2139010271839224 l 1.1430561422425998 -1.7573912318960416" fill="#ff1101" stroke="none" /><path d="M 88.54995079064634 117.60387380957326 l -1.5427993715964707 2.3719763080918903 a23.829576206280315,23.829576206280315 0 0,0 -0.341926391869355,-0.2266101678547339 l 1.5834004622057873 -2.345068119145838" fill="#ff1c02" stroke="none" /><path d="M 86.51685102203217 116.09983520530335 l -2.3171257938521945 2.7668123738702946 a24.608922644881286,24.608922644881286 0 0,0 -0.3224173430405473,-0.27477105443403604 l 2.3644086134697986 -2.726516929213307" fill="#ff2703" stroke="none" /><path d="M 86.24171649860922 115.8653595955263 l -2.0877442962730814 2.4074815728672223 a24.186635179984684,24.186635179984684 0 0,0 -0.3121891629996857,-0.2754706387356461 l 2.1288758121793547 -2.3711877923592874" fill="#ff2103" stroke="none" /><path d="M 82.24976979558568 111.22182372390057 l -3.779042287924752 2.389137825925831 a25.470921623691602,25.470921623691602 0 0,0 -0.23110053474092063,-0.3726076460145658 l 3.8196074623336287 -2.3237338485460013" fill="#ff3304" stroke="none" /><path d="M 82.05923443525364 110.91462005526583 l -8.717477683590083 5.303450201902784 a31.203969874904267,31.203969874904267 0 0,0 -0.2752177130937391,-0.461280717638388 l 8.807476272382054 -5.152607390378285" fill="#ff820c" stroke="none" /><line stroke="#e1ed5e" stroke-width="0.3" x1="26.63291911575756" x2="22.317208475507996" y1="142.92168965132927" y2="145.44649492493687" /><path d="M 25.769776987707644 143.4266507060508 a86.0,86.0 0 0,1 -11.730757126820373,-40.83630448921669" fill="none" id="id117" stroke="none" /><text fill="#e1ed5e" style="font-size:6.75px; font-family:Arial;" text-anchor="middle"><textPath startOffset="21.46611528233685" xlink:href="#id117">September</textPath></text><path d="M 81.87401531095188 110.60418214915194 l -3.0393532662156795 1.7781023322856768 a24.52126627521062,24.52126627521062 0 0,0 -0.21000479959107918,-0.3661610694442879 l 3.069510061959136 -1.725521416983082" fill="#ff2603" stroke="none" /><path d="M 81.69416730710424 110.29060199501025 l -3.0727814642785187 1.727360431891559 a24.52501914730661,24.52501914730661 0 0,0 -0.20370199514016785,-0.36977829042357946 l 3.102059868870203 -1.674211623070157" fill="#ff2603" stroke="none" /><path d="M 81.02952815118164 109.00673069616217 l -26.832861477080442 12.739607061831792 a50.70353586928772,50.70353586928772 0 0,0 -0.3675411988227578,-0.791651044264173 l 27.048177292743027 -12.275835950288792" fill="#8fff24" stroke="none" /><path d="M 80.87730276802145 108.67885076344099 l -41.793776841144485 18.968137582509854 a66.89673219300485,66.89673219300485 0 0,0 -0.4668720240585171,-1.0526731636371942 l 42.11408994993428 -18.245916082379964" fill="#38ff7f" stroke="none" /><line stroke="#e1ed5e" stroke-width="0.3" x1="15.007084014347285" x2="10.007500721073583" y1="101.09737516637583" y2="101.16192664675087" /><path d="M 14.007167355692545 101.11028546245083 a86.0,86.0 0 0,1 10.666146001902534,-42.60595125391555" fill="none" id="id118" stroke="none" /><text fill="#e1ed5e" style="font-size:6.75px; font-family:Arial;" text-anchor="middle"><textPath startOffset="22.20632615414155" xlink:href="#id118">October</textPath></text><path d="M 79.03285615573316 98.82574320788736 l -11.342348735361718 -0.6352238597652677 a32.36012254276232,32.36012254276232 0 0,0 0.035934234891523024,-0.5558867089030136 l 11.32973390946578 0.8303696329212932" fill="#ff910d" stroke="none" /><path d="M 79.08570108090925 98.10471618934814 l -8.413150940812528 -0.7624118234313549 a29.44762573398009,29.44762573398009 0 0,0 0.050093039669130444,-0.5044300732938357 l 8.39878077546117 0.9071174274296209" fill="#ff6a09" stroke="none" /><path d="M 79.21141760316559 97.0276538004421 l -8.104734280879713 -1.1588128366976957 a29.18715853969875,29.18715853969875 0 0,0 0.07539196847768567,-0.4967388747067173 l 8.083586418962724 1.2981508237965051" fill="#ff6709" stroke="none" /><path d="M 79.81627453868168 94.20196356495316 l -18.919558842347143 -5.43488820798579 a40.68470768445239,40.68470768445239 0 0,0 0.19914990608074887,-0.6714344805827835 l 18.823203039154688 5.759752075315113" fill="#fffb17" stroke="none" /><path d="M 79.91906864156998 93.8553929516997 l -60.24279407529007 -18.433821144900918 a84.0,84.0 0 0,0 0.4349780649271846,-1.378999334294342 l 59.91656052659468 19.468070645621676" fill="#4dd2ff" stroke="none" /><path d="M 80.803312248108 91.48605970444005 l -2.680936453887326 -1.1890245442126985 a23.93278018892009,23.93278018892009 0 0,0 0.1702619956595267,-0.37514973835299986 l 2.6600721412644477 1.2349962914077692" fill="#ff1d03" stroke="none" /><path d="M 81.10775173730289 90.83032412892265 l -4.4788502955182325 -2.1738866075602767 a25.97854225172326,25.97854225172326 0 0,0 0.19872346146695444,-0.40061437204738926 l 4.440766821097865 2.2506605681066274" fill="#ff3a05" stroke="none" /><line stroke="#e1ed5e" stroke-width="0.3" x1="26.266209847984243" x2="21.928928074336255" y1="57.711370442889674" y2="55.22380399835377" /><path d="M 25.398753493254645 57.213857153982495 a86.0,86.0 0 0,1 29.58750427330803,-30.492523968695096" fill="none" id="id119" stroke="none" /><text fill="#e1ed5e" style="font-size:6.75px; font-family:Arial;" text-anchor="middle"><textPath startOffset="21.46611528233685" xlink:href="#id119">November</textPath></text><path d="M 81.78341655067845 89.55222093294921 l -26.745404584810633 -15.33932413497635 a51.831988766913454,51.831988766913454 0 0,0 0.4505441953506115,-0.7701260759008959 l 26.477400714989695 15.797429623231139" fill="#83ff25" stroke="none" /><line stroke="#e1ed5e" stroke-width="0.3" x1="56.762969772571076" x2="54.21961505331055" y1="26.818313649435495" y2="22.513508569990535" /><path d="M 56.25429882871897 25.957352633546506 a86.0,86.0 0 0,1 42.265352541879196,-11.944610805530505" fill="none" id="id120" stroke="none" /><text fill="#e1ed5e" style="font-size:6.75px; font-family:Arial;" text-anchor="middle"><textPath startOffset="22.20632615414155" xlink:href="#id120">December</textPath></text></svg>