<?xml version="1.0" encoding="utf-8" ?>
<svg baseProfile="full" height="200mm" version="1.1" viewBox="0,0,200,200" width="200mm" xmlns="http://www.w3.org/2000/svg" xmlns:ev="http://www.w3.org/2001/xml-events" xmlns:xlink="http://www.w3.org/1999/xlink"><defs /><rect fill="#1a1a1a" height="200" width="200" x="0" y="0" /><text alignment-baseline="middle" fill="#e1ed5e" style="dominant-baseline: central; font-size:9.0px; font-family:Arial;" text-anchor="middle" x="100.0" y="100.0">2018</text><line stroke="#e1ed5e" stroke-width="0.3" x1="100.0" x2="100.0" y1="15.0" y2="10.0" /><path d="M 100.0 14.0 a86.0,86.0 0 0,1 42.46469731375804,11.215312516191453" fill="none" id="id25" stroke="none" /><text fill="#e1ed5e" style="font-size:6.75px; font-family:Arial;" text-anchor="middle"><textPath startOffset="22.20632615414155" xlink:href="#id25">January</textPath></text><line stroke="#e1ed5e" stroke-width="0.3" x1="143.23703022742887" x2="145.7803849466894" y1="26.81831364943548" y2="22.513508569990506" /><path d="M 143.74570117128098 25.957352633546492 a86.0,86.0 0 0,1 28.547481713284135,27.462654790039103" fill="none" id="id26" stroke="none" /><text fill="#e1ed5e" style="font-size:6.75px; font-family:Arial;" text-anchor="middle"><textPath startOffset="19.985693538727396" xlink:href="#id26">February</textPath></text><line stroke="#e1ed5e" stroke-width="0.3" x1="172.23445277983987" x2="176.4835382374775" y1="55.19839476539836" y2="52.563006222186495" /><path d="M 173.08426987136738 54.67131705675599 a86.0,86.0 0 0,1 12.851231095245387,41.99856678651699" fill="none" id="id27" stroke="none" /><text fill="#e1ed5e" style="font-size:6.75px; font-family:Arial;" text-anchor="middle"><textPath startOffset="22.20632615414155" xlink:href="#id27">March</textPath></text><line stroke="#e1ed5e" stroke-width="0.3" x1="184.98032266829074" x2="189.97916517819016" y1="98.17113171792111" y2="98.06355123074" /><path d="M 185.9800911702706 98.14961562048488 a86.0,86.0 0 0,1 -9.607161424134198,41.387399972396054" fill="none" id="id28" stroke="none" /><text fill="#e1ed5e" style="font-size:6.75px; font-family:Arial;" text-anchor="middle"><textPath startOffset="21.466115282336823" xlink:href="#id28">April</textPath></text><line stroke="#e1ed5e" stroke-width="0.3" x1="174.80103733775053" x2="179.2010983576182" y1="140.37084112569926" y2="142.7455964860345" /><path d="M 175.68104954172406 140.8457921977663 a86.0,86.0 0 0,1 -30.038265399797805,32.042727171017184" fill="none" id="id29" stroke="none" /><text fill="#e1ed5e" style="font-size:6.75px; font-family:Arial;" text-anchor="middle"><textPath startOffset="22.206326154141568" xlink:href="#id29">May</textPath></text><line stroke="#e1ed5e" stroke-width="0.3" x1="143.8653032363475" x2="146.44561519142675" y1="172.8068346515853" y2="177.08958963109032" /><path d="M 144.38136562736335 173.6633856474863 a86.0,86.0 0 0,1 -40.68145358897372,12.25698825130547" fill="none" id="id30" stroke="none" /><text fill="#e1ed5e" style="font-size:6.75px; font-family:Arial;" text-anchor="middle"><textPath startOffset="21.466115282336833" xlink:href="#id30">June</textPath></text><line stroke="#e1ed5e" stroke-width="0.3" x1="102.19456741930631" x2="102.32365962044197" y1="184.97166512339345" y2="189.96999836594603" /><path d="M 102.22038585953345 185.97133177190398 a86.0,86.0 0 0,1 -42.740103519485714,-10.115201625700543" fill="none" id="id31" stroke="none" /><text fill="#e1ed5e" style="font-size:6.75px; font-family:Arial;" text-anchor="middle"><textPath startOffset="22.20632615414155" xlink:href="#id31">July</textPath></text><path d="M 95.86986931433489 120.58985236759428 l -10.174036889542624 50.72040898492937 a72.73075404658508,72.73075404658508 0 0,0 -1.225369609445761,-0.2567881157049141 l 11.045597960417771 -50.53776488849792" fill="#3bff9e" stroke="none" /><path d="M 95.16358092515715 120.4354850818985 l -13.441377202081442 56.79430567174974 a79.36320568495856,79.36320568495856 0 0,0 -1.3266758413311268,-0.32606464393633566 l 14.41700632815578 -56.55451976949937" fill="#46fff5" stroke="none" /><path d="M 94.81253420990036 120.34920634021253 l -14.42666096529262 56.59239263675034 a79.4022897749704,79.4022897749704 0 0,0 -1.32151710185732,-0.34902467768254924 l 15.398668509961428 -56.335676609764214" fill="#46fff5" stroke="none" /><path d="M 94.46302465271185 120.25689768951611 l -15.370251344736497 56.23171306062733 a79.29451243584683,79.29451243584683 0 0,0 -1.313528067465343,-0.37121615234293925 l 16.335910580306454 -55.95880811494587" fill="#46fff4" stroke="none" /><path d="M 94.11515582081647 120.15858648285463 l -16.650879681092935 57.037737592822396 a80.41847611527831,80.41847611527831 0 0,0 -1.3254689095655803,-0.3993529094648487 l 17.63022356509876 -56.74266931425182" fill="#47fcff" stroke="none" /><path d="M 92.40401165467489 119.57807347666478 l -22.012558183285794 56.735669136059244 a81.85629688116857,81.85629688116857 0 0,0 -1.30922880550691,-0.5209691611143824 l 22.985908064834565 -56.3483531305388" fill="#4aebff" stroke="none" /><path d="M 92.06813273071674 119.44442032107085 l -22.04916845274956 54.05200119594274 a79.37623371496248,79.37623371496248 0 0,0 -1.2606780657876078,-0.5269635337432405 l 22.97631797803463 -53.66445261917953" fill="#46fff5" stroke="none" /><path d="M 91.7346041902142 119.30500536409082 l -22.99496418142933 53.70800347443664 a79.4236083695223,79.4236083695223 0 0,0 -1.252167365487098,-0.5489133752227192 l 23.916052221574173 -53.304225545919465" fill="#46fff5" stroke="none" /><path d="M 90.7491055286396 118.85261126421891 l -13.868254804761744 28.262436411606945 a52.481642321358066,52.481642321358066 0 0,0 -0.8075827445018056,-0.40493875323597117 l 14.35269145694631 -28.01952981746167" fill="#dbff1b" stroke="none" /><path d="M 90.42595943632237 118.69057910512821 l -7.691198115674478 15.014867112596372 a37.87011448874852,37.87011448874852 0 0,0 -0.5776258187194915,-0.30218652807188995 l 7.948514836920465 -14.880251165579764" fill="#ff3304" stroke="none" /><line stroke="#e1ed5e" stroke-width="0.3" x1="58.666819895761336" x2="56.23545636021788" y1="174.27360380694188" y2="178.64263932499728" /><path d="M 58.180547188652646 175.14741091055294 a86.0,86.0 0 0,1 -31.652253787137756,-30.449443065178592" fill="none" id="id32" stroke="none" /><text fill="#e1ed5e" style="font-size:6.75px; font-family:Arial;" text-anchor="middle"><textPath startOffset="22.20632615414155" xlink:href="#id32">August</textPath></text><path d="M 89.7882731507175 118.34994917583269 l -21.170428472887888 38.04217369321719 a64.53612317410185,64.53612317410185 0 0,0 -0.9660480903763699,-0.548547318022133 l 21.822125330185465 -37.67212320940042" fill="#37ff2e" stroke="none" /><path d="M 88.54995079064634 117.60387380957326 l -33.112217204828774 50.908365769538015 a81.72956968022109,81.72956968022109 0 0,0 -1.1727232002736145,-0.7772169904997682 l 33.983615103842354 -50.33085075794693" fill="#49edff" stroke="none" /><path d="M 88.24862548938628 117.40417183066458 l -7.887491289313281 11.681633802760091 a35.09514409790762,35.09514409790762 0 0,0 -0.49775462155854244,-0.3423601674769231 l 8.087402795494715 -11.544132845918067" fill="#ff0000" stroke="none" /><path d="M 87.95078237400918 117.19931262002967 l -36.14765287797246 51.59793786008904 a84.0,84.0 0 0,0 -1.1770906886044523,-0.8398229526231229 l 37.030470894425804 -50.968070645621694" fill="#4dd2ff" stroke="none" /><path d="M 87.36589467227662 116.77436683061367 l -36.283417595905576 48.17368075019336 a81.30911962100276,81.30911962100276 0 0,0 -1.110726215750107,-0.8516574984415778 l 37.10727254014917 -47.54198390992442" fill="#49f2ff" stroke="none" /><path d="M 86.79598089348748 116.32954008644616 l -37.760769095591364 46.69911393398147 a81.05566521910777,81.05566521910777 0 0,0 -1.0773836863492519,-0.8866134259574905 l 38.559022910485304 -46.042205389166796" fill="#48f5ff" stroke="none" /><line stroke="#e1ed5e" stroke-width="0.3" x1="26.63291911575756" x2="22.317208475507996" y1="142.92168965132927" y2="145.44649492493687" /><path d="M 25.769776987707644 143.4266507060508 a86.0,86.0 0 0,1 -11.730757126820373,-40.83630448921669" fill="none" id="id33" stroke="none" /><text fill="#e1ed5e" style="font-size:6.75px; font-family:Arial;" text-anchor="middle"><textPath startOffset="21.46611528233685" xlink:href="#id33">September</textPath></text><line stroke="#e1ed5e" stroke-width="0.3" x1="15.007084014347285" x2="10.007500721073583" y1="101.09737516637583" y2="101.16192664675087" /><path d="M 14.007167355692545 101.11028546245083 a86.0,86.0 0 0,1 10.666146001902534,-42.60595125391555" fill="none" id="id34" stroke="none" /><text fill="#e1ed5e" style="font-size:6.75px; font-family:Arial;" text-anchor="middle"><textPath startOffset="22.20632615414155" xlink:href="#id34">October</textPath></text><line stroke="#e1ed5e" stroke-width="0.3" x1="26.266209847984243" x2="21.928928074336255" y1="57.711370442889674" y2="55.22380399835377" /><path d="M 25.398753493254645 57.213857153982495 a86.0,86.0 0 0,1 29.58750427330803,-30.492523968695096" fill="none" id="id35" stroke="none" /><text fill="#e1ed5e" style="font-size:6.75px; font-family:Arial;" text-anchor="middle"><textPath startOffset="21.46611528233685" xlink:href="#id35">November</textPath></text><line stroke="#e1ed5e" stroke-width="0.3" x1="56.762969772571076" x2="54.21961505331055" y1="26.818313649435495" y2="22.513508569990535" /><path d="M 56.25429882871897 25.957352633546506 a86.0,86.0 0 0,1 42.265352541879196,-11.944610805530505" fill="none" id="id36" stroke="none" /><text fill="#e1ed5e" style="font-size:6.75px; font-family:Arial;" text-anchor="middle"><textPath startOffset="22.20632615414155" xlink:href="#id36">December</textPath></text></svg>