<?xml version="1.0" encoding="utf-8" ?>
<svg baseProfile="full" height="200mm" version="1.1" viewBox="0,0,200,200" width="200mm" xmlns="http://www.w3.org/2000/svg" xmlns:ev="http://www.w3.org/2001/xml-events" xmlns:xlink="http://www.w3.org/1999/xlink"><defs /><rect fill="#1a1a1a" height="200" width="200" x="0" y="0" /><text alignment-baseline="middle" fill="#e1ed5e" style="dominant-baseline: central; font-size:9.0px; font-family:Arial;" text-anchor="middle" x="100.0" y="100.0">2024</text><line stroke="#e1ed5e" stroke-width="0.3" x1="100.0" x2="100.0" y1="15.0" y2="10.0" /><path d="M 100.0 14.0 a86.0,86.0 0 0,1 42.35913384403234,11.155469271406648" fill="none" id="id97" stroke="none" /><text fill="#e1ed5e" style="font-size:6.75px; font-family:Arial;" text-anchor="middle"><textPath startOffset="22.145653131862478" xlink:href="#id97">January</textPath></text><path d="M 100.72087961077811 79.0123766808444 l 0.2837990215982377 -8.262498861938347 a29.267371367502044,29.267371367502044 0 0,0 0.5019692010239482,0.021556717332506338 l -0.42559398322302217 8.25640957618001" fill="#ff5c08" stroke="none" /><path d="M 103.23170211078529 79.25015418208739 l 2.7627514282981074 -17.738846033823744 a38.95270046723522,38.95270046723522 0 0,0 0.6598262796681303,0.10857416322604409 l -3.0668552110193086 17.688805872102034" fill="#ffdd14" stroke="none" /><line stroke="#e1ed5e" stroke-width="0.3" x1="143.13028292997686" x2="145.6673583964461" y1="26.7553504044142" y2="22.446841604673864" /><path d="M 143.63769802327073 25.89364864446614 a86.0,86.0 0 0,1 29.32050498858742,28.57503671076993" fill="none" id="id98" stroke="none" /><text fill="#e1ed5e" style="font-size:6.75px; font-family:Arial;" text-anchor="middle"><textPath startOffset="20.669276256404974" xlink:href="#id98">February</textPath></text><line stroke="#e1ed5e" stroke-width="0.3" x1="172.87174338648825" x2="177.1583165268699" y1="56.24261187166439" y2="53.66864786411523" /><path d="M 173.72905801456457 55.72781907015455 a86.0,86.0 0 0,1 12.242430191666344,42.057860355516425" fill="none" id="id99" stroke="none" /><text fill="#e1ed5e" style="font-size:6.75px; font-family:Arial;" text-anchor="middle"><textPath startOffset="22.145653131862474" xlink:href="#id99">March</textPath></text><path d="M 120.51834098615036 95.52812308129327 l 23.090294475308834 -5.032422210936661 a44.63232896406121,44.63232896406121 0 0,0 0.1567281004309424,0.7500006967731023 l -23.173280286564143 4.635305062878155" fill="#dbff1b" stroke="none" /><path d="M 120.592083275326 95.88100663000786 l 23.284589904560114 -4.657570103885012 a44.74584355831871,44.74584355831871 0 0,0 0.14419605421685677,0.7544946871152972 l -23.361112251059126 4.2571728517364" fill="#daff1c" stroke="none" /><line stroke="#e1ed5e" stroke-width="0.3" x1="184.99686870605535" x2="189.99668451229388" y1="99.2704041080226" y2="99.22748670261217" /><path d="M 185.99683186730306 99.26182062694052 a86.0,86.0 0 0,1 -10.086455211305974,41.156179273409016" fill="none" id="id100" stroke="none" /><text fill="#e1ed5e" style="font-size:6.75px; font-family:Arial;" text-anchor="middle"><textPath startOffset="21.40746469413373" xlink:href="#id100">April</textPath></text><path d="M 120.93736805541906 101.62068470465957 l 62.812104166257186 4.86205411397871 a84.0,84.0 0 0,0 -0.12362550920903681,1.4367158104973705 l -62.7193850343504 -5.939590971851738" fill="#4dd2ff" stroke="none" /><path d="M 120.7213421655516 103.40968896794604 l 7.4774802217283405 1.2304165249704566 a28.57803637436895,28.57803637436895 0 0,0 -0.08380874218233704,0.48338655360117666 l -7.455256662053769 -1.3585961114922214" fill="#ff5307" stroke="none" /><line stroke="#e1ed5e" stroke-width="0.3" x1="174.33088141563837" x2="178.70328620479359" y1="141.23008692659167" y2="143.65538615756765" /><path d="M 175.20536237346943 141.71514677278685 a86.0,86.0 0 0,1 -30.301960400862466,31.631185727798858" fill="none" id="id101" stroke="none" /><text fill="#e1ed5e" style="font-size:6.75px; font-family:Arial;" text-anchor="middle"><textPath startOffset="22.145653131862474" xlink:href="#id101">May</textPath></text><path d="M 116.79662413953412 112.60449989151573 l 4.8090531869732995 3.6088031660378417 a27.01252466492594,27.01252466492594 0 0,0 -0.28150655283748205,0.3685011141460124 l -4.746394656781513 -3.6908251934247316" fill="#ff3c05" stroke="none" /><path d="M 116.57777611688842 112.89097897827486 l 5.963889395533456 4.637556466229335 a28.554793623893502,28.554793623893502 0 0,0 -0.30422218570320336,0.38437479348127956 l -5.88340077918869 -4.739251203625297" fill="#ff5207" stroke="none" /><path d="M 112.16784306229584 117.11559508785304 l 3.9483634315004834 5.55386763350459 a27.814324579714423,27.814324579714423 0 0,0 -0.3915262324499987,0.273315717709671 l -3.8524421078767266 -5.620828167019383" fill="#ff4806" stroke="none" /><path d="M 111.8722381534696 117.32195027204791 l 5.56134178462736 8.114163866484136 a30.837081767353517,30.837081767353517 0 0,0 -0.43921360099388845,0.2955225122289096 l -5.421231895536469 -8.208436052770166" fill="#ff720a" stroke="none" /><path d="M 111.27062007382361 117.71928675628689 l 5.699465473922045 8.960506381058396 a31.61953771561727,31.61953771561727 0 0,0 -0.46049470783439406,0.28738275572999616 l -5.544806637297936 -9.05702493362994" fill="#ff7d0b" stroke="none" /><path d="M 110.96478420261333 117.91015095944535 l 18.094865247263108 29.556602499487646 a55.65569072503576,55.65569072503576 0 0,0 -0.8191119482989832,0.49185318995568095 l -17.58482054240669 -29.862869689979252" fill="#60ff29" stroke="none" /><line stroke="#e1ed5e" stroke-width="0.3" x1="143.1302829299769" x2="145.66735839644613" y1="173.24464959558577" y2="177.55315839532614" /><path d="M 143.63769802327073 174.10635135553383 a86.0,86.0 0 0,1 -40.68552437913181,11.842963189579606" fill="none" id="id102" stroke="none" /><text fill="#e1ed5e" style="font-size:6.75px; font-family:Arial;" text-anchor="middle"><textPath startOffset="21.407464694133747" xlink:href="#id102">June</textPath></text><path d="M 109.71004243097381 118.62028667847754 l 11.283711308258692 21.63800424669045 a45.40338846693055,45.40338846693055 0 0,0 -0.6941805751759469,0.35445354791726275 l -10.910603511369162 -21.828515746280548" fill="#d2ff1c" stroke="none" /><path d="M 109.3889696526874 118.78422872680471 l 11.54644082058525 23.100616295240403 a46.82554488957017,46.82554488957017 0 0,0 -0.7220939421526753,0.35321233169575866 l -11.148186629170505 -23.295422377033383" fill="#c1ff1e" stroke="none" /><path d="M 109.06512990194946 118.94263497670748 l 13.297894439665859 27.787484906885656 a51.80549162047076,51.80549162047076 0 0,0 -0.8054798903580388,0.3770052597514994 l -12.818925835436314 -28.011666398207687" fill="#89ff24" stroke="none" /><path d="M 108.73861861582097 119.09545874513695 l 3.5973162885058145 7.860785302611413 a29.644803644577525,29.644803644577525 0 0,0 -0.4645575025908155,0.20779066197599103 l -3.461845383059372 -7.921379715497255" fill="#ff6209" stroke="none" /><path d="M 108.4095320186766 119.2426549942271 l 12.224187385672392 27.971332997468533 a51.52582884862103,51.52582884862103 0 0,0 -0.8135313128082982,0.34724814187574693 l -11.742220997693662 -28.177055789003685" fill="#8cff24" stroke="none" /><path d="M 107.06938296918513 119.77432235084164 l 10.794206800260822 30.193317538518965 a53.064798836553365,53.064798836553365 0 0,0 -0.8603932243542125,0.29928942617303894 l -10.27430780386159 -30.374165397260597" fill="#7bff26" stroke="none" /><path d="M 106.72888874123015 119.89276391827305 l 13.429556994179139 39.70209897739503 a62.91192747024142,62.91192747024142 0 0,0 -1.0259954613958375,0.33726508702013214 l -12.746038795135567 -39.926784985817186" fill="#32ff4d" stroke="none" /><path d="M 106.38641147887787 120.00534299687104 l 9.550727717147879 29.917518544363745 a52.40500462950842,52.40500462950842 0 0,0 -0.8593406775512913,0.2662259385659313 l -9.035746406724964 -30.077061070736317" fill="#82ff25" stroke="none" /><path d="M 104.9986988182912 120.39639698878246 l 0.8142126056685217 3.3222652818605374 a24.42058310384142,24.42058310384142 0 0,0 -0.40801892371719695,0.09629135501932887 l -0.7570615282114456 -3.3357527805260916" fill="#ff1702" stroke="none" /><path d="M 104.29559338865022 120.5559693870025 l 6.301234939272294 30.153690257143463 a51.805041760784135,51.805041760784135 0 0,0 -0.8720602061739354,0.17443646470527158 l -5.782678247567399 -30.257416118511596" fill="#89ff24" stroke="none" /><path d="M 102.51750503828377 120.84855314841334 l 2.934261896055832 24.299897780140466 a45.47641568939212,45.47641568939212 0 0,0 -0.7758365269232064,0.08693410108188121 l -2.5166894675318265 -24.346687641729318" fill="#d1ff1c" stroke="none" /><path d="M 102.15924093988457 120.88869738790638 l 3.2056580135239705 31.011833342322202 a52.17707572162016,52.17707572162016 0 0,0 -0.8917321551325046,0.08444796222147474 l -2.6728262950064505 -31.06229306004886" fill="#85ff25" stroke="none" /><path d="M 101.80034050326958 120.92268563240118 l 0.8890009079734748 10.331538112189575 a31.369715636313437,31.369715636313437 0 0,0 -0.5369165916559591,0.04156073989202006 l -0.7115153215422798 -10.345276619076648" fill="#ff790b" stroke="none" /><path d="M 101.44090949804482 120.95050786540614 l 0.7926955434700137 11.525619229296229 a32.55284661212812,32.55284661212812 0 0,0 -0.5578250336923739,0.03355736882517894 l -0.5947261576451746 -11.5375285759461" fill="#ff890c" stroke="none" /><line stroke="#e1ed5e" stroke-width="0.3" x1="101.45913802915013" x2="101.54496967792366" y1="184.9874750549273" y2="189.98673829345242" /><path d="M 101.47630435890484 185.9873277026323 a86.0,86.0 0 0,1 -42.54439059252881,-10.42667462771756" fill="none" id="id103" stroke="none" /><text fill="#e1ed5e" style="font-size:6.75px; font-family:Arial;" text-anchor="middle"><textPath startOffset="22.145653131862474" xlink:href="#id103">July</textPath></text><path d="M 98.55909050195518 120.95050786540614 l -0.6471267500817294 9.409080921389178 a30.431308330020876,30.431308330020876 0 0,0 -0.5208550353982921,-0.040317473857295505 l 0.8085507802552575 -9.396585680536829" fill="#ff6c0a" stroke="none" /><path d="M 94.6519064749342 120.30758222061772 l -2.0019691967352444 7.6018031239168975 a28.860998117253907,28.860998117253907 0 0,0 -0.4780186634652217,-0.1302861123820214 l 2.1321692611351613 -7.566316517390732" fill="#ff5708" stroke="none" /><path d="M 94.30408787586889 120.21278271476187 l -2.455026777776538 8.712023945715085 a30.051326848054536,30.051326848054536 0 0,0 -0.4953317096715183,-0.1441838416436949 l 2.604218499829663 -8.668596409768874" fill="#ff6709" stroke="none" /><path d="M 93.95794788825049 120.11202640906438 l -3.0066231310967275 10.008070552243556 a31.449940613760948,31.449940613760948 0 0,0 -0.5157181736180678,-0.15977080847401282 l 3.177981937586429 -9.954983155962895" fill="#ff7a0b" stroke="none" /><path d="M 92.93061703081489 119.77432235084164 l -7.655470827971267 21.41371440189755 a43.741006971635045,43.741006971635045 0 0,0 -0.7048776798463865,-0.25884084761279835 l 8.021937659471773 -21.279142705276033" fill="#e6ff1a" stroke="none" /><path d="M 92.59220618246901 119.65005319985036 l -7.531800410519116 19.9789954206209 a42.35154035288993,42.35154035288993 0 0,0 -0.6780839329888677,-0.26229743218205487 l 7.8736566060015125 -19.846758100300807" fill="#f6ff19" stroke="none" /><path d="M 91.59046798132341 119.24265499422711 l -16.674985615455164 38.15563036317436 a62.640212219522006,62.640212219522006 0 0,0 -0.9816216325582553,-0.4390668705202052 l 17.327520650869054 -37.863759741744296" fill="#32ff4a" stroke="none" /><path d="M 90.28995756902619 118.62028667847754 l -4.533106560296457 8.692829541872772 a30.803792150543522,30.803792150543522 0 0,0 -0.46676719897566976,-0.2485272426875077 l 4.681662575058689 -8.613731831462692" fill="#ff720a" stroke="none" /><line stroke="#e1ed5e" stroke-width="0.3" x1="58.13341422392154" x2="55.67067388415222" y1="173.97424548756322" y2="178.32567169271397" /><path d="M 57.64086615596768 174.84453072859336 a86.0,86.0 0 0,1 -31.369924170532247,-30.572349798747897" fill="none" id="id104" stroke="none" /><text fill="#e1ed5e" style="font-size:6.75px; font-family:Arial;" text-anchor="middle"><textPath startOffset="22.145653131862474" xlink:href="#id104">August</textPath></text><path d="M 89.65649057296885 118.27599006163327 l -10.3891051565985 18.35655334688035 a42.09257112662479,42.09257112662479 0 0,0 -0.6257913215644819,-0.36130078796178805 l 10.702688946023382 -18.17550566164239" fill="#faff18" stroke="none" /><path d="M 89.34428304082925 118.09573695890944 l -10.166873506364228 17.265573904657263 a41.03660048889513,41.03660048889513 0 0,0 -0.603955666350331,-0.36265802458761 l 10.461761929271985 -17.088501879533734" fill="#fff717" stroke="none" /><path d="M 84.1078160697243 113.72728997021213 l -1.405225372147764 1.2138002078004482 a22.8568708331449,22.8568708331449 0 0,0 -0.25393486793278225,-0.2991346359146737 l 1.4258548035876586 -1.1894987894362201" fill="#ff0000" stroke="none" /><path d="M 83.8745106332314 113.45245675266167 l -9.23345480456196 7.702876397165555 a33.024599470165256,33.024599470165256 0 0,0 -0.3594227262988822,-0.43843728476681704 l 9.364324350099473 -7.543236830700243" fill="#ff900d" stroke="none" /><path d="M 83.64595745247003 113.17365903436017 l -7.317553435333191 5.894503065075493 a30.396369227693267,30.396369227693267 0 0,0 -0.323842294421372,-0.40916415990830524 l 7.417662160396125 -5.768018961252507" fill="#ff6c09" stroke="none" /><line stroke="#e1ed5e" stroke-width="0.3" x1="26.387840678322732" x2="22.057713659400548" y1="142.50000000000003" y2="145.00000000000006" /><path d="M 25.521815274538298 143.00000000000003 a86.0,86.0 0 0,1 -11.493303480769221,-40.785679425670985" fill="none" id="id105" stroke="none" /><text fill="#e1ed5e" style="font-size:6.75px; font-family:Arial;" text-anchor="middle"><textPath startOffset="21.40746469413373" xlink:href="#id105">September</textPath></text><line stroke="#e1ed5e" stroke-width="0.3" x1="15.003131293944662" x2="10.003315487706104" y1="100.72959589197737" y2="100.7725132973878" /><path d="M 14.003168132696942 100.73817937305945 a86.0,86.0 0 0,1 10.791469493833604,-42.45332614584628" fill="none" id="id106" stroke="none" /><text fill="#e1ed5e" style="font-size:6.75px; font-family:Arial;" text-anchor="middle"><textPath startOffset="22.145653131862435" xlink:href="#id106">October</textPath></text><line stroke="#e1ed5e" stroke-width="0.3" x1="26.387840678322718" x2="22.05771365940052" y1="57.49999999999999" y2="54.99999999999999" /><path d="M 25.521815274538284 56.99999999999999 a86.0,86.0 0 0,1 29.574782752854787,-30.34633250058573" fill="none" id="id107" stroke="none" /><text fill="#e1ed5e" style="font-size:6.75px; font-family:Arial;" text-anchor="middle"><textPath startOffset="21.40746469413373" xlink:href="#id107">November</textPath></text><line stroke="#e1ed5e" stroke-width="0.3" x1="56.869717070023135" x2="54.33264160355391" y1="26.7553504044142" y2="22.446841604673864" /><path d="M 56.362301976729285 25.89364864446614 a86.0,86.0 0 0,1 42.16139366436587,-11.88097634709845" fill="none" id="id108" stroke="none" /><text fill="#e1ed5e" style="font-size:6.75px; font-family:Arial;" text-anchor="middle"><textPath startOffset="22.145653131862474" xlink:href="#id108">December</textPath></text></svg>