<?xml version="1.0" encoding="utf-8" ?>
<svg baseProfile="full" height="200mm" version="1.1" viewBox="0,0,200,200" width="200mm" xmlns="http://www.w3.org/2000/svg" xmlns:ev="http://www.w3.org/2001/xml-events" xmlns:xlink="http://www.w3.org/1999/xlink"><defs /><rect fill="#1a1a1a" height="200" width="200" x="0" y="0" /><text alignment-baseline="middle" fill="#e1ed5e" style="dominant-baseline: central; font-size:9.0px; font-family:Arial;" text-anchor="middle" x="100.0" y="100.0">2025</text><line stroke="#e1ed5e" stroke-width="0.3" x1="100.0" x2="100.0" y1="15.0" y2="10.0" /><path d="M 100.0 14.0 a86.0,86.0 0 0,1 42.46469731375804,11.215312516191453" fill="none" id="id109" stroke="none" /><text fill="#e1ed5e" style="font-size:6.75px; font-family:Arial;" text-anchor="middle"><textPath startOffset="22.20632615414155" xlink:href="#id109">January</textPath></text><path d="M 105.71112130821622 79.79150937346287 l 3.0618114196393105 -10.834052375142235 a32.258391538615044,32.258391538615044 0 0,0 0.5330465440193927,0.15561090329792665 l -3.2478481813821305 10.779743142925605" fill="#ff7a0b" stroke="none" /><path d="M 106.0581310904928 79.89281104454417 l 3.2841977739027506 -10.900388951731713 a32.384394332468574,32.384394332468574 0 0,0 0.5323603152129651,0.16540694133389736 l -3.471343461826434 10.842241875515295" fill="#ff7c0b" stroke="none" /><path d="M 106.74666289553966 80.11325718540242 l 5.776827299367153 -17.028015267045838 a38.98124126920774,38.98124126920774 0 0,0 0.6335713880539047,0.22104061679169495 l -6.069080691484332 16.926053797081934" fill="#ffd413" stroke="none" /><path d="M 107.08798089147638 80.2323363322302 l 6.424964944586597 -17.918579077227786 a40.035641588505285,40.035641588505285 0 0,0 0.6467046298026417,0.23818677292119303 l -6.732451900161815 17.805329036500268" fill="#ffe215" stroke="none" /><line stroke="#e1ed5e" stroke-width="0.3" x1="143.23703022742887" x2="145.7803849466894" y1="26.81831364943548" y2="22.513508569990506" /><path d="M 143.74570117128098 25.957352633546492 a86.0,86.0 0 0,1 28.547481713284135,27.462654790039103" fill="none" id="id110" stroke="none" /><text fill="#e1ed5e" style="font-size:6.75px; font-family:Arial;" text-anchor="middle"><textPath startOffset="19.985693538727396" xlink:href="#id110">February</textPath></text><path d="M 113.06298171725822 83.55741782278167 l 8.461524031794957 -10.650654440822262 a34.602714029135896,34.602714029135896 0 0,0 0.4631764435254716,0.3745231389016929 l -8.643603873884919 10.50342520465644" fill="#ff9a0e" stroke="none" /><path d="M 114.42810811169701 84.74124197986012 l 1.9527325726108367 -2.0651545977367505 a23.84218718818599,23.84218718818599 0 0,0 0.29577567959294154,0.28453596942564596 l -1.9879914958161966 2.031235541548803" fill="#ff0000" stroke="none" /><path d="M 114.94478906791727 85.2469230424477 l 6.141350957624276 -6.06256956116378 a29.62965475952904,29.62965475952904 0 0,0 0.35518299795774866,0.36604730086241904 l -6.2447982192851335 5.955958064751247" fill="#ff5507" stroke="none" /><path d="M 116.38621287248628 86.86637796730983 l 12.907971318830745 -10.345796056084415 a37.54240670524845,37.54240670524845 0 0,0 0.3998193363957438,0.5077299549332863 l -13.084144735820452 10.12207370719809" fill="#ffc112" stroke="none" /><path d="M 116.60985879189232 87.15038557335679 l 14.112800262678148 -10.917855722178787 a38.842945519856315,38.842945519856315 0 0,0 0.40456603513126455,0.5323614795351547 l -14.298642238033526 10.6733094667626" fill="#ffd213" stroke="none" /><path d="M 116.82858285166822 87.43820079747576 l 6.8010624796797075 -5.076694929489509 a29.48688884454201,29.48688884454201 0 0,0 0.30011669460635726,0.4093588341651462 l -6.887441786799691 4.95887365165287" fill="#ff5307" stroke="none" /><path d="M 117.04232023915458 87.72973835380427 l 15.706414553674653 -11.308425929846567 a40.35386150468968,40.35386150468968 0 0,0 0.40101626848622046,0.5672090726412088 l -15.898743441964756 11.036390356873566" fill="#ffe615" stroke="none" /><path d="M 117.2510076193507 88.02491185347247 l 15.788120337161631 -10.959599397163245 a40.21919776491718,40.21919776491718 0 0,0 0.3898878416841857,0.5721122980387863 l -15.97443264451455 10.686209075854054" fill="#ffe415" stroke="none" /><path d="M 117.65298651832404 88.62581576622439 l 46.292558672611605 -29.827252768170165 a76.0696467770904,76.0696467770904 0 0,0 0.6997407866976972,1.1068218814423536 l -46.79912705555526 29.025983239013605" fill="#43ffde" stroke="none" /><line stroke="#e1ed5e" stroke-width="0.3" x1="172.23445277983987" x2="176.4835382374775" y1="55.19839476539836" y2="52.563006222186495" /><path d="M 173.08426987136738 54.67131705675599 a86.0,86.0 0 0,1 12.851231095245387,41.99856678651699" fill="none" id="id111" stroke="none" /><text fill="#e1ed5e" style="font-size:6.75px; font-family:Arial;" text-anchor="middle"><textPath startOffset="22.20632615414155" xlink:href="#id111">March</textPath></text><path d="M 117.84615892207809 88.93136811851018 l 16.92589401178773 -10.497860682492218 a40.917102374775496,40.917102374775496 0 0,0 0.366079862672645,0.6017390400150349 l -17.1040896727466 10.204953869270103" fill="#ffed16" stroke="none" /><path d="M 118.3937258080291 89.86733742301442 l 14.817025263757781 -8.162343994863303 a37.916503691877864,37.916503691877864 0 0,0 0.30999793284993366,0.5743790890443516 l -14.95533129582618 7.906083922486493" fill="#ffc612" stroke="none" /><path d="M 118.73160827565052 90.50648371742162 l 16.836641877352825 -8.53311319852696 a39.87555378168031,39.87555378168031 0 0,0 0.3050289734745144,0.6149197974043623 l -16.98103086378075 8.242033812623648" fill="#ffe015" stroke="none" /><path d="M 118.89224826269711 90.83032412892265 l 10.392810129904378 -5.044328179248012 a32.55230492915585,32.55230492915585 0 0,0 0.24033181670620124,0.5062000982379841 l -10.478100140452334 4.864685665369487" fill="#ff7e0b" stroke="none" /><path d="M 119.04729006885535 91.15688171328212 l 8.656108314535091 -4.018786370731007 a30.543524246657356,30.543524246657356 0 0,0 0.21729198829640198,0.47877409306659124 l -8.72400261979484 3.8691902688223534" fill="#ff6209" stroke="none" /><path d="M 119.34039704204932 91.81776055985345 l 17.593547371079154 -7.443208993008185 a40.10325284374376,40.10325284374376 0 0,0 0.2634942465598129,0.6380722182207466 l -17.719063304525164 7.139262204334135" fill="#ffe315" stroke="none" /><path d="M 119.47837535516314 92.15188598940014 l 58.435126065489385 -23.54434203179955 a84.0,84.0 0 0,0 0.5288258004731983,1.3458039804168624 l -58.83174541584429 22.534989046486903" fill="#4dd2ff" stroke="none" /><path d="M 119.61058180528143 92.48833698450437 l 11.003997988443485 -4.214985844536144 a32.78363600079824,32.78363600079824 0 0,0 0.19731910298732505,0.528717095120122 l -11.074921679932435 4.024945612386689" fill="#ff810b" stroke="none" /><path d="M 119.85752413597 93.16781622104841 l 6.106390113467842 -2.1009658200849715 a27.45771303133107,27.45771303133107 0 0,0 0.14992265157193121,0.4482496456847988 l -6.141650058811544 1.9955430714778584" fill="#ff3605" stroke="none" /><path d="M 120.18372546131832 94.20196356495316 l 8.89652109703901 -2.5556408585051162 a30.256316104569947,30.256316104569947 0 0,0 0.13948627013563683,0.5018063285430877 l -8.93919413774101 2.4021232265430768" fill="#ff5e08" stroke="none" /><path d="M 120.37134235888165 94.90015583598534 l 5.500926439941739 -1.3771241534890615 a26.67068449411295,26.67068449411295 0 0,0 0.10765710665205422,0.4463082101420844 l -5.523816346854613 1.2822307116875709" fill="#ff2a04" stroke="none" /><path d="M 120.53481517161879 95.60439243477599 l 16.997466846705336 -3.6384156972732353 a38.382518459389345,38.382518459389345 0 0,0 0.1327316911941182,0.6472468649631898 l -17.057577833814452 3.345293176146634" fill="#ffcc13" stroke="none" /><path d="M 120.83666639777658 97.38593545837742 l 6.198468178730583 -0.7776289915609768 a27.247056475753343,27.247056475753343 0 0,0 0.05437688183762378,0.465867916182648 l -6.2109354135717965 0.670817337053476" fill="#ff3304" stroke="none" /><path d="M 120.87857604477298 97.74499172005257 l 14.037380682480519 -1.516119183601721 a35.1190181600479,35.1190181600479 0 0,0 0.05974058437594857,0.6015795318954544 l -14.061398392538697 1.2742641210018315" fill="#ffa10e" stroke="none" /><path d="M 120.96714384426684 98.82574320788733 l 23.194545475298195 -1.299001560090047 a44.230892037517464,44.230892037517464 0 0,0 0.03603004606550929,0.760537326614512 l -23.2134691295972 0.8995531268525354" fill="#e8ff1a" stroke="none" /><path d="M 120.98425023603335 99.18683210126433 l 12.470225364772675 -0.4832379924263266 a33.47958491319098,33.47958491319098 0 0,0 0.017358854763476157,0.5760558800455011 l -12.476695913991795 0.2685119649558264" fill="#ff8b0c" stroke="none" /><line stroke="#e1ed5e" stroke-width="0.3" x1="184.98032266829074" x2="189.97916517819016" y1="98.17113171792111" y2="98.06355123074" /><path d="M 185.9800911702706 98.14961562048488 a86.0,86.0 0 0,1 -9.607161424134198,41.387399972396054" fill="none" id="id112" stroke="none" /><text fill="#e1ed5e" style="font-size:6.75px; font-family:Arial;" text-anchor="middle"><textPath startOffset="21.466115282336823" xlink:href="#id112">April</textPath></text><path d="M 120.99513854157772 99.54816195383933 l 15.48972803596344 -0.33335566885970613 a36.49331470764319,36.49331470764319 0 0,0 0.008110192380549388,0.6281433376191361 l -15.493171235461704 0.06667607318010733" fill="#ffb410" stroke="none" /><line stroke="#e1ed5e" stroke-width="0.3" x1="174.80103733775053" x2="179.2010983576182" y1="140.37084112569926" y2="142.7455964860345" /><path d="M 175.68104954172406 140.8457921977663 a86.0,86.0 0 0,1 -30.038265399797805,32.042727171017184" fill="none" id="id113" stroke="none" /><text fill="#e1ed5e" style="font-size:6.75px; font-family:Arial;" text-anchor="middle"><textPath startOffset="22.206326154141568" xlink:href="#id113">May</textPath></text><line stroke="#e1ed5e" stroke-width="0.3" x1="143.8653032363475" x2="146.44561519142675" y1="172.8068346515853" y2="177.08958963109032" /><path d="M 144.38136562736335 173.6633856474863 a86.0,86.0 0 0,1 -40.68145358897372,12.25698825130547" fill="none" id="id114" stroke="none" /><text fill="#e1ed5e" style="font-size:6.75px; font-family:Arial;" text-anchor="middle"><textPath startOffset="21.466115282336833" xlink:href="#id114">June</textPath></text><line stroke="#e1ed5e" stroke-width="0.3" x1="102.19456741930631" x2="102.32365962044197" y1="184.97166512339345" y2="189.96999836594603" /><path d="M 102.22038585953345 185.97133177190398 a86.0,86.0 0 0,1 -42.740103519485714,-10.115201625700543" fill="none" id="id115" stroke="none" /><text fill="#e1ed5e" style="font-size:6.75px; font-family:Arial;" text-anchor="middle"><textPath startOffset="22.20632615414155" xlink:href="#id115">July</textPath></text><line stroke="#e1ed5e" stroke-width="0.3" x1="58.666819895761336" x2="56.23545636021788" y1="174.27360380694188" y2="178.64263932499728" /><path d="M 58.180547188652646 175.14741091055294 a86.0,86.0 0 0,1 -31.652253787137756,-30.449443065178592" fill="none" id="id116" stroke="none" /><text fill="#e1ed5e" style="font-size:6.75px; font-family:Arial;" text-anchor="middle"><textPath startOffset="22.20632615414155" xlink:href="#id116">August</textPath></text><line stroke="#e1ed5e" stroke-width="0.3" x1="26.63291911575756" x2="22.317208475507996" y1="142.92168965132927" y2="145.44649492493687" /><path d="M 25.769776987707644 143.4266507060508 a86.0,86.0 0 0,1 -11.730757126820373,-40.83630448921669" fill="none" id="id117" stroke="none" /><text fill="#e1ed5e" style="font-size:6.75px; font-family:Arial;" text-anchor="middle"><textPath startOffset="21.46611528233685" xlink:href="#id117">September</textPath></text><line stroke="#e1ed5e" stroke-width="0.3" x1="15.007084014347285" x2="10.007500721073583" y1="101.09737516637583" y2="101.16192664675087" /><path d="M 14.007167355692545 101.11028546245083 a86.0,86.0 0 0,1 10.666146001902534,-42.60595125391555" fill="none" id="id118" stroke="none" /><text fill="#e1ed5e" style="font-size:6.75px; font-family:Arial;" text-anchor="middle"><textPath startOffset="22.20632615414155" xlink:href="#id118">October</textPath></text><line stroke="#e1ed5e" stroke-width="0.3" x1="26.266209847984243" x2="21.928928074336255" y1="57.711370442889674" y2="55.22380399835377" /><path d="M 25.398753493254645 57.213857153982495 a86.0,86.0 0 0,1 29.58750427330803,-30.492523968695096" fill="none" id="id119" stroke="none" /><text fill="#e1ed5e" style="font-size:6.75px; font-family:Arial;" text-anchor="middle"><textPath startOffset="21.46611528233685" xlink:href="#id119">November</textPath></text><line stroke="#e1ed5e" stroke-width="0.3" x1="56.762969772571076" x2="54.21961505331055" y1="26.818313649435495" y2="22.513508569990535" /><path d="M 56.25429882871897 25.957352633546506 a86.0,86.0 0 0,1 42.265352541879196,-11.944610805530505" fill="none" id="id120" stroke="none" /><text fill="#e1ed5e" style="font-size:6.75px; font-family:Arial;" text-anchor="middle"><textPath startOffset="22.20632615414155" xlink:href="#id120">December</textPath></text></svg>