<?xml version="1.0" encoding="utf-8" ?>
<svg baseProfile="full" height="200mm" version="1.1" viewBox="0,0,200,200" width="200mm" xmlns="http://www.w3.org/2000/svg" xmlns:ev="http://www.w3.org/2001/xml-events" xmlns:xlink="http://www.w3.org/1999/xlink"><defs /><rect fill="#1a1a1a" height="200" width="200" x="0" y="0" /><text alignment-baseline="middle" fill="#e1ed5e" style="dominant-baseline: central; font-size:9.0px; font-family:Arial;" text-anchor="middle" x="100.0" y="100.0">2020</text><line stroke="#e1ed5e" stroke-width="0.3" x1="100.0" x2="100.0" y1="15.0" y2="10.0" /><path d="M 100.0 14.0 a86.0,86.0 0 0,1 42.35913384403234,11.155469271406648" fill="none" id="id49" stroke="none" /><text fill="#e1ed5e" style="font-size:6.75px; font-family:Arial;" text-anchor="middle"><textPath startOffset="22.145653131862478" xlink:href="#id49">January</textPath></text><path d="M 103.94208987418118 79.37332000966035 l 10.168684311998838 -53.206853197367636 a75.16983817405514,75.16983817405514 0 0,0 1.2653715226951299,0.2531097433353658 l -11.080552320224925 53.02445405736941" fill="#41ffcc" stroke="none" /><line stroke="#e1ed5e" stroke-width="0.3" x1="143.13028292997686" x2="145.6673583964461" y1="26.7553504044142" y2="22.446841604673864" /><path d="M 143.63769802327073 25.89364864446614 a86.0,86.0 0 0,1 29.32050498858742,28.57503671076993" fill="none" id="id50" stroke="none" /><text fill="#e1ed5e" style="font-size:6.75px; font-family:Arial;" text-anchor="middle"><textPath startOffset="20.669276256404974" xlink:href="#id50">February</textPath></text><line stroke="#e1ed5e" stroke-width="0.3" x1="172.87174338648825" x2="177.1583165268699" y1="56.24261187166439" y2="53.66864786411523" /><path d="M 173.72905801456457 55.72781907015455 a86.0,86.0 0 0,1 12.242430191666344,42.057860355516425" fill="none" id="id51" stroke="none" /><text fill="#e1ed5e" style="font-size:6.75px; font-family:Arial;" text-anchor="middle"><textPath startOffset="22.145653131862474" xlink:href="#id51">March</textPath></text><line stroke="#e1ed5e" stroke-width="0.3" x1="184.99686870605535" x2="189.99668451229388" y1="99.2704041080226" y2="99.22748670261217" /><path d="M 185.99683186730306 99.26182062694052 a86.0,86.0 0 0,1 -10.086455211305974,41.156179273409016" fill="none" id="id52" stroke="none" /><text fill="#e1ed5e" style="font-size:6.75px; font-family:Arial;" text-anchor="middle"><textPath startOffset="21.40746469413373" xlink:href="#id52">April</textPath></text><path d="M 120.99922638620191 100.18025310272382 l 10.09835761537715 0.08668225481785147 a31.098729639976803,31.098729639976803 0 0,0 -0.009164600741500769,0.5337920480082714 l -10.095381583036982 -0.26002121879519396" fill="#ff2103" stroke="none" /><path d="M 120.86939407059847 102.33845913500097 l 8.035998296648662 0.9004503706279143 a29.08628959991566,29.08628959991566 0 0,0 -0.0598594645216951,0.49572223631651025 l -8.019356745867304 -1.0382662838678332" fill="#ff0000" stroke="none" /><line stroke="#e1ed5e" stroke-width="0.3" x1="174.33088141563837" x2="178.70328620479359" y1="141.23008692659167" y2="143.65538615756765" /><path d="M 175.20536237346943 141.71514677278685 a86.0,86.0 0 0,1 -30.301960400862466,31.631185727798858" fill="none" id="id53" stroke="none" /><text fill="#e1ed5e" style="font-size:6.75px; font-family:Arial;" text-anchor="middle"><textPath startOffset="22.145653131862474" xlink:href="#id53">May</textPath></text><path d="M 110.96478420261333 117.91015095944535 l 8.663283454376211 14.15082245169608 a37.59211427969005,37.59211427969005 0 0,0 -0.5532614826476967,0.33221762383638404 l -8.419089215171079 -14.297454076068387" fill="#ff860c" stroke="none" /><line stroke="#e1ed5e" stroke-width="0.3" x1="143.1302829299769" x2="145.66735839644613" y1="173.24464959558577" y2="177.55315839532614" /><path d="M 143.63769802327073 174.10635135553383 a86.0,86.0 0 0,1 -40.68552437913181,11.842963189579606" fill="none" id="id54" stroke="none" /><text fill="#e1ed5e" style="font-size:6.75px; font-family:Arial;" text-anchor="middle"><textPath startOffset="21.407464694133747" xlink:href="#id54">June</textPath></text><path d="M 110.02825361518725 118.45085714620011 l 13.364309098053036 24.588823486913245 a48.98597859891413,48.98597859891413 0 0,0 -0.7422802980864287,0.39522244962696623 l -12.940239984180055 -24.814616404262782" fill="#d6ff1c" stroke="none" /><line stroke="#e1ed5e" stroke-width="0.3" x1="101.45913802915013" x2="101.54496967792366" y1="184.9874750549273" y2="189.98673829345242" /><path d="M 101.47630435890484 185.9873277026323 a86.0,86.0 0 0,1 -42.54439059252881,-10.42667462771756" fill="none" id="id55" stroke="none" /><text fill="#e1ed5e" style="font-size:6.75px; font-family:Arial;" text-anchor="middle"><textPath startOffset="22.145653131862474" xlink:href="#id55">July</textPath></text><path d="M 97.84075906011543 120.88869738790638 l -1.5855414007201512 15.338674764758299 a36.42040482842233,36.42040482842233 0 0,0 -0.6213392142470773,-0.0696223549459648 l 1.8486165165680277 -15.309196649305362" fill="#ff750a" stroke="none" /><path d="M 96.05791012581884 120.62667999033965 l -5.282371340022114 27.639598968658706 a49.139845026619575,49.139845026619575 0 0,0 -0.827195615113052,-0.16546228998694076 l 5.756063440666124 -27.544847282008906" fill="#d4ff1c" stroke="none" /><line stroke="#e1ed5e" stroke-width="0.3" x1="58.13341422392154" x2="55.67067388415222" y1="173.97424548756322" y2="178.32567169271397" /><path d="M 57.64086615596768 174.84453072859336 a86.0,86.0 0 0,1 -31.369924170532247,-30.572349798747897" fill="none" id="id56" stroke="none" /><text fill="#e1ed5e" style="font-size:6.75px; font-family:Arial;" text-anchor="middle"><textPath startOffset="22.145653131862474" xlink:href="#id56">August</textPath></text><line stroke="#e1ed5e" stroke-width="0.3" x1="26.387840678322732" x2="22.057713659400548" y1="142.50000000000003" y2="145.00000000000006" /><path d="M 25.521815274538298 143.00000000000003 a86.0,86.0 0 0,1 -11.493303480769221,-40.785679425670985" fill="none" id="id57" stroke="none" /><text fill="#e1ed5e" style="font-size:6.75px; font-family:Arial;" text-anchor="middle"><textPath startOffset="21.40746469413373" xlink:href="#id57">September</textPath></text><path d="M 80.28708602549918 107.23885506374661 l -16.09993617210036 5.912119569748034 a38.151125401929264,38.151125401929264 0 0,0 -0.22047686149573015,-0.6167130213658502 l 16.199053203640034 -5.634871592001263" fill="#ff8f0d" stroke="none" /><path d="M 79.94057633289273 106.21446072829308 l -32.69873212764001 10.130150798170861 a55.231959306309626,55.231959306309626 0 0,0 -0.2728029558409623,-0.9080723156417192 l 32.867811403484595 -9.567340878938419" fill="#87ff25" stroke="none" /><path d="M 79.56144815229197 104.8234425847677 l -8.08556911164666 1.9081722944853523 a29.307680143376732,29.307680143376732 0 0,0 -0.11135402611350083,-0.49064638525277215 l 8.117133999317828 -1.7690915752935539" fill="#ff0400" stroke="none" /><line stroke="#e1ed5e" stroke-width="0.3" x1="15.003131293944662" x2="10.003315487706104" y1="100.72959589197737" y2="100.7725132973878" /><path d="M 14.003168132696942 100.73817937305945 a86.0,86.0 0 0,1 10.791469493833604,-42.45332614584628" fill="none" id="id58" stroke="none" /><text fill="#e1ed5e" style="font-size:6.75px; font-family:Arial;" text-anchor="middle"><textPath startOffset="22.145653131862435" xlink:href="#id58">October</textPath></text><path d="M 80.41425534168474 92.42381321644754 l -15.852570198114536 -6.132114704625372 a37.99725897422381,37.99725897422381 0 0,0 0.24054314074706512,-0.6063258490921172 l 15.74496838240134 6.403341570931072" fill="#ff8c0c" stroke="none" /><line stroke="#e1ed5e" stroke-width="0.3" x1="26.387840678322718" x2="22.05771365940052" y1="57.49999999999999" y2="54.99999999999999" /><path d="M 25.521815274538284 56.99999999999999 a86.0,86.0 0 0,1 29.574782752854787,-30.34633250058573" fill="none" id="id59" stroke="none" /><text fill="#e1ed5e" style="font-size:6.75px; font-family:Arial;" text-anchor="middle"><textPath startOffset="21.40746469413373" xlink:href="#id59">November</textPath></text><path d="M 88.4268655584334 82.4767994020092 l -15.796770322974341 -23.918323645810588 a49.663987138263664,49.663987138263664 0 0,0 0.7154318889870013,-0.46373430683851086 l 15.383852801730313 24.185971794353005" fill="#cdff1d" stroke="none" /><path d="M 89.03521579738668 82.08984904055464 l -32.89435260783996 -53.73045287833607 a84.0,84.0 0 0,0 1.236268973770263,-0.7423439978563064 l 31.967150877512267 54.287210876728295" fill="#4dd2ff" stroke="none" /><line stroke="#e1ed5e" stroke-width="0.3" x1="56.869717070023135" x2="54.33264160355391" y1="26.7553504044142" y2="22.446841604673864" /><path d="M 56.362301976729285 25.89364864446614 a86.0,86.0 0 0,1 42.16139366436587,-11.88097634709845" fill="none" id="id60" stroke="none" /><text fill="#e1ed5e" style="font-size:6.75px; font-family:Arial;" text-anchor="middle"><textPath startOffset="22.145653131862474" xlink:href="#id60">December</textPath></text><path d="M 92.93061703081487 80.22567764915836 l -9.55005781109464 -26.71321138618785 a49.36898423910179,49.36898423910179 0 0,0 0.8004692463531102,-0.2784447559893333 l 9.090082792696524 26.87321457474577" fill="#d1ff1c" stroke="none" /></svg>