<?xml version="1.0" encoding="utf-8" ?>
<svg baseProfile="full" height="200mm" version="1.1" viewBox="0,0,200,200" width="200mm" xmlns="http://www.w3.org/2000/svg" xmlns:ev="http://www.w3.org/2001/xml-events" xmlns:xlink="http://www.w3.org/1999/xlink"><defs /><rect fill="#1a1a1a" height="200" width="200" x="0" y="0" /><text alignment-baseline="middle" fill="#e1ed5e" style="dominant-baseline: central; font-size:9.0px; font-family:Arial;" text-anchor="middle" x="100.0" y="100.0">2019</text><line stroke="#e1ed5e" stroke-width="0.3" x1="100.0" x2="100.0" y1="15.0" y2="10.0" /><path d="M 100.0 14.0 a86.0,86.0 0 0,1 42.46469731375804,11.215312516191453" fill="none" id="id37" stroke="none" /><text fill="#e1ed5e" style="font-size:6.75px; font-family:Arial;" text-anchor="middle"><textPath startOffset="22.20632615414155" xlink:href="#id37">January</textPath></text><line stroke="#e1ed5e" stroke-width="0.3" x1="143.23703022742887" x2="145.7803849466894" y1="26.81831364943548" y2="22.513508569990506" /><path d="M 143.74570117128098 25.957352633546492 a86.0,86.0 0 0,1 28.547481713284135,27.462654790039103" fill="none" id="id38" stroke="none" /><text fill="#e1ed5e" style="font-size:6.75px; font-family:Arial;" text-anchor="middle"><textPath startOffset="19.985693538727396" xlink:href="#id38">February</textPath></text><path d="M 113.89432698308785 84.25364557470407 l 20.8194834177403 -23.59459117712904 a52.46673835333778,52.46673835333778 0 0,0 0.672046482558282,0.6033699675701426 l -21.222540887894574 23.2327222007896" fill="#9dff22" stroke="none" /><path d="M 115.4437574822437 85.77008943001954 l 31.870899330310156 -29.36591355935199 a64.33717922636518,64.33717922636518 0 0,0 0.7434202706715902,0.8209032308878106 l -32.37166324159778 28.81295754119463" fill="#32ff4c" stroke="none" /><line stroke="#e1ed5e" stroke-width="0.3" x1="172.23445277983987" x2="176.4835382374775" y1="55.19839476539836" y2="52.563006222186495" /><path d="M 173.08426987136738 54.67131705675599 a86.0,86.0 0 0,1 12.851231095245387,41.99856678651699" fill="none" id="id39" stroke="none" /><text fill="#e1ed5e" style="font-size:6.75px; font-family:Arial;" text-anchor="middle"><textPath startOffset="22.20632615414155" xlink:href="#id39">March</textPath></text><path d="M 117.84615892207809 88.93136811851018 l 16.11076272476711 -9.992295972993059 a39.95791798657328,39.95791798657328 0 0,0 0.35749816776437404,0.5876329899905828 l -16.280376690817707 9.713495209795395" fill="#ffbd11" stroke="none" /><path d="M 118.03404312379186 89.2402003453031 l 30.236857098369608 -18.040465043412286 a56.20974163736231,56.20974163736231 0 0,0 0.4885973588772816,0.8351712674821671 l -30.542914131717218 17.517314363576226" fill="#71ff27" stroke="none" /><path d="M 118.56541770881063 90.18545643968196 l 30.00929894929636 -15.864311612698112 a54.94457845331163,54.94457845331163 0 0,0 0.43482241133020555,0.8399384974961688 l -30.277930793786684 15.345400392941599" fill="#80ff26" stroke="none" /><path d="M 120.08093135843002 93.85539295169968 l 51.26593086638046 -15.686971610855917 a74.61228167049319,74.61228167049319 0 0,0 0.3652239313698727,1.231353534037308 l -51.52836069486203 14.802188690072079" fill="#40ffc8" stroke="none" /><path d="M 120.18372546131832 94.20196356495316 l 34.961504401333784 -10.043144747062165 a57.37542503414804,57.37542503414804 0 0,0 0.264509532746829,0.9515815238536695 l -35.129200704646976 9.439851919789543" fill="#64ff29" stroke="none" /><path d="M 120.28053869075195 94.5502522615342 l 43.46326496362667 -11.679365797609483 a66.00514400302245,66.00514400302245 0 0,0 0.2854051995668253,1.0997826580390675 l -43.65786649506379 10.929486714021566" fill="#35ff61" stroke="none" /><path d="M 120.37134235888165 94.90015583598534 l 43.65372224802052 -10.928449226470399 a66.00087186491905,66.00087186491905 0 0,0 0.2664147184920789,1.1044610046041785 l -43.83536976677342 10.175402990206814" fill="#35ff61" stroke="none" /><path d="M 120.45610955862082 95.25157060432595 l 45.12186519194868 -10.474034197514166 a67.32157284431398,67.32157284431398 0 0,0 0.25231360279517673,1.131072407605062 l -45.29547318174589 9.69578362035914" fill="#36ff72" stroke="none" /><path d="M 120.53481517161879 95.60439243477599 l 36.24938848380648 -7.759411756205414 a58.070562934116076,58.070562934116076 0 0,0 0.20081548413752345,0.9792476188221503 l -36.377583263859 7.134288481219851" fill="#5cff2a" stroke="none" /><path d="M 120.6074358757038 95.95851677861258 l 36.460231005753464 -7.150497167451691 a58.15478508529744,58.15478508529744 0 0,0 0.18419635386315578,0.9839842876790175 l -36.57791308352648 6.521834802310112" fill="#5bff2a" stroke="none" /><path d="M 120.96714384426684 98.82574320788733 l 44.77995486144562 -2.507884075061053 a65.85012642041326,65.85012642041326 0 0,0 0.05364086002006541,1.1322737751372662 l -44.81648932969917 1.7366991933007871" fill="#34ff5f" stroke="none" /><path d="M 120.98425023603335 99.18683210126433 l 59.258293213552406 -2.296338503073212 a80.30276962422622,80.30276962422622 0 0,0 0.0416362424631676,1.38170418617552 l -59.28904115047122 1.2759641694726926" fill="#48f8ff" stroke="none" /><line stroke="#e1ed5e" stroke-width="0.3" x1="184.98032266829074" x2="189.97916517819016" y1="98.17113171792111" y2="98.06355123074" /><path d="M 185.9800911702706 98.14961562048488 a86.0,86.0 0 0,1 -9.607161424134198,41.387399972396054" fill="none" id="id40" stroke="none" /><text fill="#e1ed5e" style="font-size:6.75px; font-family:Arial;" text-anchor="middle"><textPath startOffset="21.466115282336823" xlink:href="#id40">April</textPath></text><path d="M 120.99513854157772 99.54816195383933 l 46.01430971071521 -0.9902776185042984 a67.02496439884914,67.02496439884914 0 0,0 0.014895477704037976,1.1536711635701085 l -46.02453819553696 0.19807019687372726" fill="#36ff6e" stroke="none" /><path d="M 120.99980553446 99.90962569577887 l 43.49728675788405 -0.18719397281084543 a64.49768955796448,64.49768955796448 0 0,0 -0.004778058593624692,1.1102525453793017 l -43.49406440200092 -0.5615680507721409" fill="#32ff4e" stroke="none" /><path d="M 120.99824983174949 100.27111621757518 l 45.49142764124984 0.5873567508251382 a66.49521927402714,66.49521927402714 0 0,0 -0.024628364155241292,1.144383306995374 l -45.47457721440959 -1.3703298736106269" fill="#35ff67" stroke="none" /><path d="M 120.9764740272857 100.99374915477107 l 6.342504454645022 0.30047273115284245 a27.349617832543814,27.349617832543814 0 0,0 -0.026325503725105337,0.4700595534848637 l -6.336392600032387 -0.4096040009731295" fill="#ff0000" stroke="none" /><path d="M 119.26925614724726 108.34839909993367 l 43.28008548170551 18.751083275839857 a68.16745618878781,68.16745618878781 0 0,0 -0.47574040169796283,1.0726690140307982 l -42.95090399527628 -19.493300626363343" fill="#37ff7c" stroke="none" /><path d="M 118.81262510543309 109.33194174019688 l 28.876933947329455 14.32430953796909 a53.23450260106367,53.23450260106367 0 0,0 -0.41426920134914974,0.8173924359911878 l -28.626086076194035 -14.81925618566297" fill="#94ff23" stroke="none" /><line stroke="#e1ed5e" stroke-width="0.3" x1="174.80103733775053" x2="179.2010983576182" y1="140.37084112569926" y2="142.7455964860345" /><path d="M 175.68104954172406 140.8457921977663 a86.0,86.0 0 0,1 -30.038265399797805,32.042727171017184" fill="none" id="id41" stroke="none" /><text fill="#e1ed5e" style="font-size:6.75px; font-family:Arial;" text-anchor="middle"><textPath startOffset="22.206326154141568" xlink:href="#id41">May</textPath></text><line stroke="#e1ed5e" stroke-width="0.3" x1="143.8653032363475" x2="146.44561519142675" y1="172.8068346515853" y2="177.08958963109032" /><path d="M 144.38136562736335 173.6633856474863 a86.0,86.0 0 0,1 -40.68145358897372,12.25698825130547" fill="none" id="id42" stroke="none" /><text fill="#e1ed5e" style="font-size:6.75px; font-family:Arial;" text-anchor="middle"><textPath startOffset="21.466115282336833" xlink:href="#id42">June</textPath></text><path d="M 105.18746579009965 120.34920634021253 l 2.3136980871475306 9.076092583429963 a30.366357638989797,30.366357638989797 0 0,0 -0.5076195287371555,0.12476052984181829 l -2.157125273667164 -9.11457437158581" fill="#ff3004" stroke="none" /><path d="M 104.83641907484287 120.43548508189849 l 12.242778757213616 51.729827126726235 a74.15882472608911,74.15882472608911 0 0,0 -1.244737688602515,0.2832982454079453 l -11.350520919218239 -51.93290210571187" fill="#40ffc3" stroke="none" /><path d="M 104.48393922423573 120.51570834832081 l 7.728992976507462 35.36304972092348 a57.19782615013514,57.19782615013514 0 0,0 -0.9636704418855152,0.2019465106893127 l -7.11913107319257 -35.49085221233933" fill="#66ff29" stroke="none" /><path d="M 104.13013068566511 120.58985236759428 l 10.218439522567987 50.94176848376983 a72.9565230027028,72.9565230027028 0 0,0 -1.2334251616287568,0.23638886780277754 l -9.340046746367527 -51.11011454992107" fill="#3effb5" stroke="none" /><line stroke="#e1ed5e" stroke-width="0.3" x1="102.19456741930631" x2="102.32365962044197" y1="184.97166512339345" y2="189.96999836594603" /><path d="M 102.22038585953345 185.97133177190398 a86.0,86.0 0 0,1 -42.740103519485714,-10.115201625700543" fill="none" id="id43" stroke="none" /><text fill="#e1ed5e" style="font-size:6.75px; font-family:Arial;" text-anchor="middle"><textPath startOffset="22.20632615414155" xlink:href="#id43">July</textPath></text><path d="M 97.65516085044442 120.86867818915974 l -3.4491466975386174 30.69683158086928 a51.88999970937836,51.88999970937836 0 0,0 -0.8867570435032033,-0.10737392865775484 l 3.97703116409321 -30.632912123486175" fill="#a4ff21" stroke="none" /><path d="M 96.22490169976321 120.6578951692458 l -5.434061402851825 29.73598615864293 a51.228428608794204,51.228428608794204 0 0,0 -0.8660833909868489,-0.1659869431784688 l 5.945112408410369 -29.638042017115993" fill="#acff20" stroke="none" /><path d="M 95.86986931433489 120.58985236759428 l -3.2933978247923226 16.418505892703994 a37.74556075445378,37.74556075445378 0 0,0 -0.6359381756219802,-0.13326702781265387 l 3.5755274618436896 -16.3593828841648" fill="#ff9e0e" stroke="none" /><path d="M 95.51606077576429 120.51570834832081 l -9.599244821845314 43.920155310016455 a65.95692987299834,65.95692987299834 0 0,0 -1.107070894673328,-0.2519657313142561 l 10.353835865911504 -43.74841284512451" fill="#34ff60" stroke="none" /><path d="M 95.16358092515715 120.4354850818985 l -14.509257224528554 61.30645524569551 a84.0,84.0 0 0,0 -1.4041868610271577,-0.3451149667438802 l 15.562397370298923 -61.0476190206376" fill="#4dd2ff" stroke="none" /><path d="M 91.40352486487194 119.15986991738527 l -7.128711136788161 15.888509640578668 a38.41445552035805,38.41445552035805 0 0,0 -0.6009703839812641,-0.2758760275498375 l 7.4011495165368455 -15.763446542694757" fill="#ffa70f" stroke="none" /><path d="M 90.42595943632237 118.69057910512821 l -26.02957059873993 50.815300511050715 a78.09407422476677,78.09407422476677 0 0,0 -1.1911544015697098,-0.6231556854675516 l 26.900415902836134 -50.35971540663845" fill="#45ffef" stroke="none" /><line stroke="#e1ed5e" stroke-width="0.3" x1="58.666819895761336" x2="56.23545636021788" y1="174.27360380694188" y2="178.64263932499728" /><path d="M 58.180547188652646 175.14741091055294 a86.0,86.0 0 0,1 -31.652253787137756,-30.449443065178592" fill="none" id="id44" stroke="none" /><text fill="#e1ed5e" style="font-size:6.75px; font-family:Arial;" text-anchor="middle"><textPath startOffset="22.20632615414155" xlink:href="#id44">August</textPath></text><path d="M 89.1626897886671 117.98757091392108 l -16.094865483435555 26.713965789275907 a52.18782876572989,52.18782876572989 0 0,0 -0.7654731795340854,-0.47021614731722966 l 16.552317862901948 -26.432961175130302" fill="#a1ff22" stroke="none" /><path d="M 88.54995079064634 117.60387380957326 l -29.315440297492824 45.07101255491225 a74.7660786422157,74.7660786422157 0 0,0 -1.072805293852255,-0.7109968504805995 l 30.08692029008504 -44.55971768334033" fill="#40ffca" stroke="none" /><path d="M 84.43433777217949 114.09645910891817 l -39.39027691846524 35.672329242612385 a74.14234647911883,74.14234647911883 0 0,0 -0.8485455639315663,-0.9533499364468847 l 39.998481332045145 -34.98900513642463" fill="#40ffc3" stroke="none" /><line stroke="#e1ed5e" stroke-width="0.3" x1="26.63291911575756" x2="22.317208475507996" y1="142.92168965132927" y2="145.44649492493687" /><path d="M 25.769776987707644 143.4266507060508 a86.0,86.0 0 0,1 -11.730757126820373,-40.83630448921669" fill="none" id="id45" stroke="none" /><text fill="#e1ed5e" style="font-size:6.75px; font-family:Arial;" text-anchor="middle"><textPath startOffset="21.46611528233685" xlink:href="#id45">September</textPath></text><path d="M 80.58989483394504 108.01547362559985 l -52.714549032598136 21.768665024809792 a78.0324333749891,78.0324333749891 0 0,0 -0.5019989405759804,-1.245920201876096 l 53.081450587431505 -20.85804545509089" fill="#45ffee" stroke="none" /><path d="M 80.45479744820244 107.68017299344265 l -51.252975275326065 20.13955677870123 a76.06786015286698,76.06786015286698 0 0,0 -0.46838140270698425,-1.2227960432875713 l 51.592050957626554 -19.254337168580502" fill="#42ffd9" stroke="none" /><path d="M 80.32549172779594 107.34259656027581 l -50.72122425244574 18.929341540654665 a75.13836496265512,75.13836496265512 0 0,0 -0.44179834002966645,-1.2156392869247836 l 51.03954685348062 -18.053454456723763" fill="#41ffce" stroke="none" /><path d="M 80.20201598880116 107.00284435728193 l -39.484921176684 13.966409777048803 a62.88221104943474,62.88221104943474 0 0,0 -0.3521678376179313,-1.0235645822284107 l 39.71947984524516 -13.284672491731095" fill="#30ff39" stroke="none" /><line stroke="#e1ed5e" stroke-width="0.3" x1="15.007084014347285" x2="10.007500721073583" y1="101.09737516637583" y2="101.16192664675087" /><path d="M 14.007167355692545 101.11028546245083 a86.0,86.0 0 0,1 10.666146001902534,-42.60595125391555" fill="none" id="id46" stroke="none" /><text fill="#e1ed5e" style="font-size:6.75px; font-family:Arial;" text-anchor="middle"><textPath startOffset="22.20632615414155" xlink:href="#id46">October</textPath></text><line stroke="#e1ed5e" stroke-width="0.3" x1="26.266209847984243" x2="21.928928074336255" y1="57.711370442889674" y2="55.22380399835377" /><path d="M 25.398753493254645 57.213857153982495 a86.0,86.0 0 0,1 29.58750427330803,-30.492523968695096" fill="none" id="id47" stroke="none" /><text fill="#e1ed5e" style="font-size:6.75px; font-family:Arial;" text-anchor="middle"><textPath startOffset="21.46611528233685" xlink:href="#id47">November</textPath></text><line stroke="#e1ed5e" stroke-width="0.3" x1="56.762969772571076" x2="54.21961505331055" y1="26.818313649435495" y2="22.513508569990535" /><path d="M 56.25429882871897 25.957352633546506 a86.0,86.0 0 0,1 42.265352541879196,-11.944610805530505" fill="none" id="id48" stroke="none" /><text fill="#e1ed5e" style="font-size:6.75px; font-family:Arial;" text-anchor="middle"><textPath startOffset="22.20632615414155" xlink:href="#id48">December</textPath></text></svg>