<?xml version="1.0" encoding="utf-8" ?>
<svg baseProfile="full" height="200mm" version="1.1" viewBox="0,0,200,200" width="200mm" xmlns="http://www.w3.org/2000/svg" xmlns:ev="http://www.w3.org/2001/xml-events" xmlns:xlink="http://www.w3.org/1999/xlink"><defs /><rect fill="#1a1a1a" height="200" width="200" x="0" y="0" /><text alignment-baseline="middle" fill="#e1ed5e" style="dominant-baseline: central; font-size:9.0px; font-family:Arial;" text-anchor="middle" x="100.0" y="100.0">2020</text><line stroke="#e1ed5e" stroke-width="0.3" x1="100.0" x2="100.0" y1="15.0" y2="10.0" /><path d="M 100.0 14.0 a86.0,86.0 0 0,1 42.35913384403234,11.155469271406648" fill="none" id="id49" stroke="none" /><text fill="#e1ed5e" style="font-size:6.75px; font-family:Arial;" text-anchor="middle"><textPath startOffset="22.145653131862478" xlink:href="#id49">January</textPath></text><path d="M 103.94208987418118 79.37332000966035 l 8.445042686290329 -44.188031870037285 a65.98778619270675,65.98778619270675 0 0,0 1.1108054443406492,0.22219219878897845 l -9.202344616161934 44.036550274585444" fill="#34ff5f" stroke="none" /><line stroke="#e1ed5e" stroke-width="0.3" x1="143.13028292997686" x2="145.6673583964461" y1="26.7553504044142" y2="22.446841604673864" /><path d="M 143.63769802327073 25.89364864446614 a86.0,86.0 0 0,1 29.32050498858742,28.57503671076993" fill="none" id="id50" stroke="none" /><text fill="#e1ed5e" style="font-size:6.75px; font-family:Arial;" text-anchor="middle"><textPath startOffset="20.669276256404974" xlink:href="#id50">February</textPath></text><line stroke="#e1ed5e" stroke-width="0.3" x1="172.87174338648825" x2="177.1583165268699" y1="56.24261187166439" y2="53.66864786411523" /><path d="M 173.72905801456457 55.72781907015455 a86.0,86.0 0 0,1 12.242430191666344,42.057860355516425" fill="none" id="id51" stroke="none" /><text fill="#e1ed5e" style="font-size:6.75px; font-family:Arial;" text-anchor="middle"><textPath startOffset="22.145653131862474" xlink:href="#id51">March</textPath></text><path d="M 120.26092885502905 94.47779374421319 l 23.525401500957106 -6.411952791899554 a45.383552948386814,45.383552948386814 0 0,0 0.19841369329130512,0.7534091113636667 l -23.63200467505314 6.007163176163089" fill="#faff18" stroke="none" /><line stroke="#e1ed5e" stroke-width="0.3" x1="184.99686870605535" x2="189.99668451229388" y1="99.2704041080226" y2="99.22748670261217" /><path d="M 185.99683186730306 99.26182062694052 a86.0,86.0 0 0,1 -10.086455211305974,41.156179273409016" fill="none" id="id52" stroke="none" /><text fill="#e1ed5e" style="font-size:6.75px; font-family:Arial;" text-anchor="middle"><textPath startOffset="21.40746469413373" xlink:href="#id52">April</textPath></text><path d="M 120.99922638620191 100.18025310272382 l 8.38663670802084 0.07198918951755291 a29.386945672634944,29.386945672634944 0 0,0 -0.008660148733396104,0.5044102475214585 l -8.384165127688775 -0.21594635300808243" fill="#ff1b02" stroke="none" /><path d="M 120.86939407059847 102.33845913500097 l 6.673857360492133 0.7478196375774708 a27.71562404237622,27.71562404237622 0 0,0 -0.05703864043442893,0.4723617663228594 l -6.660036633798041 -0.8622750808237388" fill="#ff0000" stroke="none" /><line stroke="#e1ed5e" stroke-width="0.3" x1="174.33088141563837" x2="178.70328620479359" y1="141.23008692659167" y2="143.65538615756765" /><path d="M 175.20536237346943 141.71514677278685 a86.0,86.0 0 0,1 -30.301960400862466,31.631185727798858" fill="none" id="id53" stroke="none" /><text fill="#e1ed5e" style="font-size:6.75px; font-family:Arial;" text-anchor="middle"><textPath startOffset="22.145653131862474" xlink:href="#id53">May</textPath></text><path d="M 117.01052211995028 112.31430620078461 l 15.711443372051438 11.373873369402181 a40.396248303637876,40.396248303637876 0 0,0 -0.4114607585018263,0.5582255422344538 l -15.513880593965784 -11.641905220905514" fill="#ffc011" stroke="none" /><path d="M 115.16444852881244 114.52719865689866 l 17.81389536497628 17.065308793031505 a45.669001444643875,45.669001444643875 0 0,0 -0.5471868353207264,0.5614618975682272 l -17.518321728504745 -17.368593382667466" fill="#f6ff19" stroke="none" /><path d="M 110.96478420261333 117.91015095944535 l 14.668032905636656 23.959129405889385 a49.09254476207154,49.09254476207154 0 0,0 -0.7225189277711479,0.43385185647161745 l -14.25458122130807 -24.207395262896924" fill="#caff1d" stroke="none" /><line stroke="#e1ed5e" stroke-width="0.3" x1="143.1302829299769" x2="145.66735839644613" y1="173.24464959558577" y2="177.55315839532614" /><path d="M 143.63769802327073 174.10635135553383 a86.0,86.0 0 0,1 -40.68552437913181,11.842963189579606" fill="none" id="id54" stroke="none" /><text fill="#e1ed5e" style="font-size:6.75px; font-family:Arial;" text-anchor="middle"><textPath startOffset="21.407464694133747" xlink:href="#id54">June</textPath></text><path d="M 110.02825361518725 118.45085714620011 l 11.098993472799727 20.420897884263503 a44.24221862277284,44.24221862277284 0 0,0 -0.6703985133420348,0.35694944800820344 l -10.746806143671138 -20.608417799994275" fill="#fff517" stroke="none" /><path d="M 106.72888874123015 119.89276391827305 l 4.469380747989073 13.212930024515078 a34.94836492579784,34.94836492579784 0 0,0 -0.5699533496892948,0.1873549867548719 l -4.241904660652043 -13.287705932671969" fill="#ff700a" stroke="none" /><line stroke="#e1ed5e" stroke-width="0.3" x1="101.45913802915013" x2="101.54496967792366" y1="184.9874750549273" y2="189.98673829345242" /><path d="M 101.47630435890484 185.9873277026323 a86.0,86.0 0 0,1 -42.54439059252881,-10.42667462771756" fill="none" id="id55" stroke="none" /><text fill="#e1ed5e" style="font-size:6.75px; font-family:Arial;" text-anchor="middle"><textPath startOffset="22.145653131862474" xlink:href="#id55">July</textPath></text><path d="M 97.84075906011543 120.88869738790638 l -2.580965470519556 24.968499664146105 a46.101540953464955,46.101540953464955 0 0,0 -0.7865012859289024,-0.08812910957302801 l 3.0092026580492575 -24.920514794066104" fill="#f1ff19" stroke="none" /><path d="M 96.05791012581884 120.62667999033965 l -8.67568678368747 45.394859248537855 a67.2164558070306,67.2164558070306 0 0,0 -1.1314882551399217,-0.2263293402047258 l 9.45367152435835 -45.23924051167027" fill="#36ff6f" stroke="none" /><line stroke="#e1ed5e" stroke-width="0.3" x1="58.13341422392154" x2="55.67067388415222" y1="173.97424548756322" y2="178.32567169271397" /><path d="M 57.64086615596768 174.84453072859336 a86.0,86.0 0 0,1 -31.369924170532247,-30.572349798747897" fill="none" id="id56" stroke="none" /><text fill="#e1ed5e" style="font-size:6.75px; font-family:Arial;" text-anchor="middle"><textPath startOffset="22.145653131862474" xlink:href="#id56">August</textPath></text><line stroke="#e1ed5e" stroke-width="0.3" x1="26.387840678322732" x2="22.057713659400548" y1="142.50000000000003" y2="145.00000000000006" /><path d="M 25.521815274538298 143.00000000000003 a86.0,86.0 0 0,1 -11.493303480769221,-40.785679425670985" fill="none" id="id57" stroke="none" /><text fill="#e1ed5e" style="font-size:6.75px; font-family:Arial;" text-anchor="middle"><textPath startOffset="21.40746469413373" xlink:href="#id57">September</textPath></text><path d="M 80.28708602549918 107.23885506374661 l -26.453603509799436 9.714129629387058 a49.18079936960995,49.18079936960995 0 0,0 -0.28421778326660985,-0.7950077239631329 l 26.61646146310999 -9.258586949043004" fill="#c9ff1d" stroke="none" /><path d="M 79.94057633289273 106.21446072829308 l -52.37860366291411 16.227025305804734 a75.83461016503962,75.83461016503962 0 0,0 -0.3745640398765744,-1.2468018683973743 l 52.64944402279431 -15.325485833816636" fill="#42ffd6" stroke="none" /><path d="M 79.56144815229197 104.8234425847677 l -6.715025680385623 1.5847277765040328 a27.89948780808125,27.89948780808125 0 0,0 -0.10600362358043777,-0.46707152447657624 l 6.7412401655237275 -1.4692219180884303" fill="#ff0300" stroke="none" /><line stroke="#e1ed5e" stroke-width="0.3" x1="15.003131293944662" x2="10.003315487706104" y1="100.72959589197737" y2="100.7725132973878" /><path d="M 14.003168132696942 100.73817937305945 a86.0,86.0 0 0,1 10.791469493833604,-42.45332614584628" fill="none" id="id58" stroke="none" /><text fill="#e1ed5e" style="font-size:6.75px; font-family:Arial;" text-anchor="middle"><textPath startOffset="22.145653131862435" xlink:href="#id58">October</textPath></text><path d="M 80.41425534168474 92.42381321644754 l -13.165482170837057 -5.092691330449063 a35.116140612003676,35.116140612003676 0 0,0 0.2223041077635911,-0.5603515713555822 l 13.076119388107335 5.317943919018228" fill="#ff730a" stroke="none" /><line stroke="#e1ed5e" stroke-width="0.3" x1="26.387840678322718" x2="22.05771365940052" y1="57.49999999999999" y2="54.99999999999999" /><path d="M 25.521815274538284 56.99999999999999 a86.0,86.0 0 0,1 29.574782752854787,-30.34633250058573" fill="none" id="id59" stroke="none" /><text fill="#e1ed5e" style="font-size:6.75px; font-family:Arial;" text-anchor="middle"><textPath startOffset="21.40746469413373" xlink:href="#id59">November</textPath></text><path d="M 88.4268655584334 82.4767994020092 l -13.119140646900416 -19.86405103903483 a44.80530140524449,44.80530140524449 0 0,0 0.6454403536257582,-0.4183666392310933 l 12.776214661017631 20.086331519969832" fill="#fffc17" stroke="none" /><path d="M 89.03521579738668 82.08984904055464 l -32.89435260783996 -53.73045287833607 a84.0,84.0 0 0,0 1.236268973770263,-0.7423439978563064 l 31.967150877512267 54.287210876728295" fill="#4dd2ff" stroke="none" /><line stroke="#e1ed5e" stroke-width="0.3" x1="56.869717070023135" x2="54.33264160355391" y1="26.7553504044142" y2="22.446841604673864" /><path d="M 56.362301976729285 25.89364864446614 a86.0,86.0 0 0,1 42.16139366436587,-11.88097634709845" fill="none" id="id60" stroke="none" /><text fill="#e1ed5e" style="font-size:6.75px; font-family:Arial;" text-anchor="middle"><textPath startOffset="22.145653131862474" xlink:href="#id60">December</textPath></text></svg>