<?xml version="1.0" encoding="utf-8" ?>
<svg baseProfile="full" height="200mm" version="1.1" viewBox="0,0,200,200" width="200mm" xmlns="http://www.w3.org/2000/svg" xmlns:ev="http://www.w3.org/2001/xml-events" xmlns:xlink="http://www.w3.org/1999/xlink"><defs /><rect fill="#1a1a1a" height="200" width="200" x="0" y="0" /><text alignment-baseline="middle" fill="#e1ed5e" style="dominant-baseline: central; font-size:9.0px; font-family:Arial;" text-anchor="middle" x="100.0" y="100.0">2023</text><line stroke="#e1ed5e" stroke-width="0.3" x1="100.0" x2="100.0" y1="15.0" y2="10.0" /><path d="M 100.0 14.0 a86.0,86.0 0 0,1 42.46469731375804,11.215312516191453" fill="none" id="id85" stroke="none" /><text fill="#e1ed5e" style="font-size:6.75px; font-family:Arial;" text-anchor="middle"><textPath startOffset="22.20632615414155" xlink:href="#id85">January</textPath></text><line stroke="#e1ed5e" stroke-width="0.3" x1="143.23703022742887" x2="145.7803849466894" y1="26.81831364943548" y2="22.513508569990506" /><path d="M 143.74570117128098 25.957352633546492 a86.0,86.0 0 0,1 28.547481713284135,27.462654790039103" fill="none" id="id86" stroke="none" /><text fill="#e1ed5e" style="font-size:6.75px; font-family:Arial;" text-anchor="middle"><textPath startOffset="19.985693538727396" xlink:href="#id86">February</textPath></text><path d="M 116.38621287248628 86.86637796730983 l 5.178745192575494 -4.15078715821527 a27.636899562478597,27.636899562478597 0 0,0 0.29432761010394276,0.37376617539523177 l -5.249426883273401 4.061028588866999" fill="#ff3004" stroke="none" /><path d="M 117.45458315368197 88.32363383020206 l 20.18662005000889 -13.503981467742319 a45.286974791532785,45.286974791532785 0 0,0 0.4278613415762353,0.6516621770999834 l -20.41607802694305 13.154501226664662" fill="#dfff1b" stroke="none" /><path d="M 117.65298651832404 88.62581576622439 l 20.35983258075522 -13.118261122669384 a45.22006518568686,45.22006518568686 0 0,0 0.41596517570636693,0.6579570137144549 l -20.58262535270754 12.765856461240723" fill="#e0ff1b" stroke="none" /><line stroke="#e1ed5e" stroke-width="0.3" x1="172.23445277983987" x2="176.4835382374775" y1="55.19839476539836" y2="52.563006222186495" /><path d="M 173.08426987136738 54.67131705675599 a86.0,86.0 0 0,1 12.851231095245387,41.99856678651699" fill="none" id="id87" stroke="none" /><text fill="#e1ed5e" style="font-size:6.75px; font-family:Arial;" text-anchor="middle"><textPath startOffset="22.20632615414155" xlink:href="#id87">March</textPath></text><path d="M 117.84615892207809 88.93136811851018 l 10.361873790022505 -6.426691989295678 a33.1930635348805,33.1930635348805 0 0,0 0.2969739164136035,0.4881470345502843 l -10.470963504722333 6.247377181538313" fill="#ff800b" stroke="none" /><path d="M 118.03404312379186 89.2402003453031 l 10.478458229674015 -6.251848821003384 a33.201790874773444,33.201790874773444 0 0,0 0.2886031292594886,0.49331629998332793 l -10.58452103340383 6.070553108666161" fill="#ff800b" stroke="none" /><path d="M 118.73160827565052 90.50648371742162 l 17.24186182318664 -8.738485961889706 a40.329845732338484,40.329845732338484 0 0,0 0.3085040902873287,0.6219254208444936 l -17.389725926427374 8.440400952546263" fill="#ffe015" stroke="none" /><line stroke="#e1ed5e" stroke-width="0.3" x1="184.98032266829074" x2="189.97916517819016" y1="98.17113171792111" y2="98.06355123074" /><path d="M 185.9800911702706 98.14961562048488 a86.0,86.0 0 0,1 -9.607161424134198,41.387399972396054" fill="none" id="id88" stroke="none" /><text fill="#e1ed5e" style="font-size:6.75px; font-family:Arial;" text-anchor="middle"><textPath startOffset="21.466115282336823" xlink:href="#id88">April</textPath></text><path d="M 120.92983693683757 101.71520430193887 l 7.3238683960560005 0.6001924724812239 a28.34842018986197,28.34842018986197 0 0,0 -0.044041840647683586,0.48599804159979876 l -7.312451959131241 -0.7261719026295932" fill="#ff3b05" stroke="none" /><path d="M 120.81339534386255 102.79330883721812 l 3.3890355057106487 0.45483318177296 a24.41942025527854,24.41942025527854 0 0,0 -0.05949727671360731,0.4161238147602254 l -3.38070417798044 -0.5131024685135948" fill="#ff0000" stroke="none" /><path d="M 120.76222939487914 103.15116336523771 l 12.07130699892286 1.832108665311499 a33.209548510233844,33.209548510233844 0 0,0 -0.09064347900287102,0.5644370302768353 l -12.037981765558701 -2.0396249252815393" fill="#ff800b" stroke="none" /><path d="M 120.70491114924044 103.5080841355445 l 13.743147398063975 2.3285353417885384 a34.939016365686314,34.939016365686314 0 0,0 -0.10557166140819552,0.5921019424939512 l -13.70102929431659 -2.5647560350157077" fill="#ff980e" stroke="none" /><path d="M 120.64145759157962 103.86396538481128 l 24.0338710155843 4.4990061993063994 a45.45133969284997,45.45133969284997 0 0,0 -0.15057394041797287,0.7677732782100178 l -23.952867142190662 -4.9120432045843625" fill="#ddff1b" stroke="none" /><path d="M 120.13307415673323 105.97154293290107 l 18.45540190581044 5.47393924874777 a40.25008754276128,40.25008754276128 0 0,0 -0.20273246030040776,0.6625414102833821 l -18.3584426730039 -5.790807631583208" fill="#ffdf14" stroke="none" /><line stroke="#e1ed5e" stroke-width="0.3" x1="174.80103733775053" x2="179.2010983576182" y1="140.37084112569926" y2="142.7455964860345" /><path d="M 175.68104954172406 140.8457921977663 a86.0,86.0 0 0,1 -30.038265399797805,32.042727171017184" fill="none" id="id89" stroke="none" /><text fill="#e1ed5e" style="font-size:6.75px; font-family:Arial;" text-anchor="middle"><textPath startOffset="22.206326154141568" xlink:href="#id89">May</textPath></text><line stroke="#e1ed5e" stroke-width="0.3" x1="143.8653032363475" x2="146.44561519142675" y1="172.8068346515853" y2="177.08958963109032" /><path d="M 144.38136562736335 173.6633856474863 a86.0,86.0 0 0,1 -40.68145358897372,12.25698825130547" fill="none" id="id90" stroke="none" /><text fill="#e1ed5e" style="font-size:6.75px; font-family:Arial;" text-anchor="middle"><textPath startOffset="21.466115282336833" xlink:href="#id90">June</textPath></text><line stroke="#e1ed5e" stroke-width="0.3" x1="102.19456741930631" x2="102.32365962044197" y1="184.97166512339345" y2="189.96999836594603" /><path d="M 102.22038585953345 185.97133177190398 a86.0,86.0 0 0,1 -42.740103519485714,-10.115201625700543" fill="none" id="id91" stroke="none" /><text fill="#e1ed5e" style="font-size:6.75px; font-family:Arial;" text-anchor="middle"><textPath startOffset="22.20632615414155" xlink:href="#id91">July</textPath></text><line stroke="#e1ed5e" stroke-width="0.3" x1="58.666819895761336" x2="56.23545636021788" y1="174.27360380694188" y2="178.64263932499728" /><path d="M 58.180547188652646 175.14741091055294 a86.0,86.0 0 0,1 -31.652253787137756,-30.449443065178592" fill="none" id="id92" stroke="none" /><text fill="#e1ed5e" style="font-size:6.75px; font-family:Arial;" text-anchor="middle"><textPath startOffset="22.20632615414155" xlink:href="#id92">August</textPath></text><path d="M 87.95078237400918 117.19931262002967 l -7.189387072342587 10.26228587131623 a33.53003582519154,33.53003582519154 0 0,0 -0.4698558685524603,-0.33522968676513626 l 7.364970268743934 -10.137011922706876" fill="#ff850c" stroke="none" /><path d="M 87.07902340077011 116.55440617244103 l -11.987029538781382 15.357829515600455 a40.482089328248804,40.482089328248804 0 0,0 -0.5456262887384487,-0.43347852286371324 l 12.249613320237188 -15.149217078731612" fill="#ffe215" stroke="none" /><path d="M 86.51685102203217 116.09983520530335 l -8.121393113829766 9.697518805421637 a33.649067044287015,33.649067044287015 0 0,0 -0.4408580964217419,-0.3757088339827612 l 8.287116686828565 -9.556285581215926" fill="#ff860c" stroke="none" /><line stroke="#e1ed5e" stroke-width="0.3" x1="26.63291911575756" x2="22.317208475507996" y1="142.92168965132927" y2="145.44649492493687" /><path d="M 25.769776987707644 143.4266507060508 a86.0,86.0 0 0,1 -11.730757126820373,-40.83630448921669" fill="none" id="id93" stroke="none" /><text fill="#e1ed5e" style="font-size:6.75px; font-family:Arial;" text-anchor="middle"><textPath startOffset="21.46611528233685" xlink:href="#id93">September</textPath></text><line stroke="#e1ed5e" stroke-width="0.3" x1="15.007084014347285" x2="10.007500721073583" y1="101.09737516637583" y2="101.16192664675087" /><path d="M 14.007167355692545 101.11028546245083 a86.0,86.0 0 0,1 10.666146001902534,-42.60595125391555" fill="none" id="id94" stroke="none" /><text fill="#e1ed5e" style="font-size:6.75px; font-family:Arial;" text-anchor="middle"><textPath startOffset="22.20632615414155" xlink:href="#id94">October</textPath></text><path d="M 81.26839172434947 90.50648371742162 l -56.19482482695157 -28.480548847735136 a84.0,84.0 0 0,0 0.6647622673595439,-1.284109110958658 l 55.69625312643191 29.44363068095413" fill="#4dd2ff" stroke="none" /><line stroke="#e1ed5e" stroke-width="0.3" x1="26.266209847984243" x2="21.928928074336255" y1="57.711370442889674" y2="55.22380399835377" /><path d="M 25.398753493254645 57.213857153982495 a86.0,86.0 0 0,1 29.58750427330803,-30.492523968695096" fill="none" id="id95" stroke="none" /><text fill="#e1ed5e" style="font-size:6.75px; font-family:Arial;" text-anchor="middle"><textPath startOffset="21.46611528233685" xlink:href="#id95">November</textPath></text><path d="M 82.34701348167596 88.62581576622439 l -14.076441847749265 -9.069742548442694 a37.74534099348528,37.74534099348528 0 0,0 0.3566096501271476,-0.543140962725453 l 13.918235562264199 9.310701575145814" fill="#ffbe11" stroke="none" /><path d="M 83.6137871275137 86.86637796730984 l -14.058674899083572 -11.268090060947456 a39.01710835677427,39.01710835677427 0 0,0 0.4245460997305575,-0.5204433193737743 l 13.862630307276623 11.508417549929312" fill="#ffcf13" stroke="none" /><path d="M 85.57189188830299 84.74124197986013 l -6.606250576638268 -6.986583285137058 a30.61534672705514,30.61534672705514 0 0,0 0.3860334499148169,-0.3587760202506105 l 6.485009242928595 7.099263891462317" fill="#ff5c08" stroke="none" /><line stroke="#e1ed5e" stroke-width="0.3" x1="56.762969772571076" x2="54.21961505331055" y1="26.818313649435495" y2="22.513508569990535" /><path d="M 56.25429882871897 25.957352633546506 a86.0,86.0 0 0,1 42.265352541879196,-11.944610805530505" fill="none" id="id96" stroke="none" /><text fill="#e1ed5e" style="font-size:6.75px; font-family:Arial;" text-anchor="middle"><textPath startOffset="22.20632615414155" xlink:href="#id96">December</textPath></text></svg>