<?xml version="1.0" encoding="utf-8" ?>
<svg baseProfile="full" height="200mm" version="1.1" viewBox="0,0,200,200" width="200mm" xmlns="http://www.w3.org/2000/svg" xmlns:ev="http://www.w3.org/2001/xml-events" xmlns:xlink="http://www.w3.org/1999/xlink"><defs /><rect fill="#1a1a1a" height="200" width="200" x="0" y="0" /><text alignment-baseline="middle" fill="#e1ed5e" style="dominant-baseline: central; font-size:9.0px; font-family:Arial;" text-anchor="middle" x="100.0" y="100.0">2025</text><line stroke="#e1ed5e" stroke-width="0.3" x1="100.0" x2="100.0" y1="15.0" y2="10.0" /><path d="M 100.0 14.0 a86.0,86.0 0 0,1 42.46469731375804,11.215312516191453" fill="none" id="id109" stroke="none" /><text fill="#e1ed5e" style="font-size:6.75px; font-family:Arial;" text-anchor="middle"><textPath startOffset="22.20632615414155" xlink:href="#id109">January</textPath></text><path d="M 105.71112130821622 79.79150937346287 l 1.4951959261859848 -5.290669069784367 a26.497889600897434,26.497889600897434 0 0,0 0.4378584238664801,0.12782288079517234 l -1.586044567775892 5.264147860070491" fill="#ff3b05" stroke="none" /><path d="M 106.0581310904928 79.89281104454417 l 1.6037954201983293 -5.323063677250229 a26.559421432299395,26.559421432299395 0 0,0 0.43660479860810464,0.13565523621079645 l -1.695185591517152 5.294668306156911" fill="#ff3c05" stroke="none" /><path d="M 106.74666289553966 80.11325718540242 l 2.8210387448719056 -8.315410575259714 a29.78090613975628,29.78090613975628 0 0,0 0.4840361524191125,0.16887070928003553 l -2.9637569013542917 8.26561901280747" fill="#ff6909" stroke="none" /><path d="M 107.08798089147638 80.2323363322302 l 3.1375483641527855 -8.75030587039503 a30.295808870822782,30.295808870822782 0 0,0 0.4893749439999548,0.18024092188022658 l -3.287705633925317 8.695001680708478" fill="#ff700a" stroke="none" /><line stroke="#e1ed5e" stroke-width="0.3" x1="143.23703022742887" x2="145.7803849466894" y1="26.81831364943548" y2="22.513508569990506" /><path d="M 143.74570117128098 25.957352633546492 a86.0,86.0 0 0,1 28.547481713284135,27.462654790039103" fill="none" id="id110" stroke="none" /><text fill="#e1ed5e" style="font-size:6.75px; font-family:Arial;" text-anchor="middle"><textPath startOffset="19.985693538727396" xlink:href="#id110">February</textPath></text><path d="M 113.06298171725822 83.55741782278167 l 4.132075600905238 -5.201109065367616 a27.642709107092195,27.642709107092195 0 0,0 0.37001293259400025,0.2991913921496843 l -4.220991932063729 5.129211575953802" fill="#ff4b07" stroke="none" /><path d="M 114.42810811169701 84.74124197986012 l 0.9535916447272091 -1.0084914837256693 a22.387945279051284,22.387945279051284 0 0,0 0.277734994584815,0.2671808447414442 l -0.9708098829244424 0.9919275522219232" fill="#ff0000" stroke="none" /><path d="M 114.94478906791727 85.2469230424477 l 2.9990491492124396 -2.960577275245475 a25.214180062846363,25.214180062846363 0 0,0 0.3022528658687151,0.31149814705470547 l -3.0495662787842637 2.9085149326406556" fill="#ff2904" stroke="none" /><path d="M 116.38621287248628 86.86637796730983 l 6.303440508271029 -5.05223542409765 a29.078269927516615,29.078269927516615 0 0,0 0.30967792441315906,0.39325951571911194 l -6.389472513278152 4.9429835144255" fill="#ff5f08" stroke="none" /><path d="M 116.60985879189232 87.15038557335679 l 6.891803108605119 -5.331593348231456 a29.71337120285169,29.71337120285169 0 0,0 0.3094775799578875,0.40723621867041915 l -6.98255662878712 5.212172353680003" fill="#ff6809" stroke="none" /><path d="M 116.82858285166822 87.43820079747576 l 3.3212107212505493 -2.479138175647654 a25.144462178486272,25.144462178486272 0 0,0 0.25591960265617075,0.34907405041478273 l -3.3633929364203463 2.421601681561378" fill="#ff2803" stroke="none" /><path d="M 117.04232023915458 87.72973835380427 l 7.670023994622468 -5.522323247417499 a30.451207442811324,30.451207442811324 0 0,0 0.3026087002404189,0.4280185461912936 l -7.7639453146667705 5.389478200894412" fill="#ff720a" stroke="none" /><path d="M 117.2510076193507 88.02491185347247 l 7.709923955094219 -5.351978330918648 a30.38544615071433,30.38544615071433 0 0,0 0.294558735048838,0.4322285970453335 l -7.80090715581179 5.218471710602908" fill="#ff710a" stroke="none" /><path d="M 117.65298651832404 88.62581576622439 l 22.60637108348378 -14.565752332827005 a47.89254830962337,47.89254830962337 0 0,0 0.4405485085179352,0.6968419425222114 l -22.85374718824767 14.174462742590588" fill="#b2ff20" stroke="none" /><line stroke="#e1ed5e" stroke-width="0.3" x1="172.23445277983987" x2="176.4835382374775" y1="55.19839476539836" y2="52.563006222186495" /><path d="M 173.08426987136738 54.67131705675599 a86.0,86.0 0 0,1 12.851231095245387,41.99856678651699" fill="none" id="id111" stroke="none" /><text fill="#e1ed5e" style="font-size:6.75px; font-family:Arial;" text-anchor="middle"><textPath startOffset="22.20632615414155" xlink:href="#id111">March</textPath></text><path d="M 117.84615892207809 88.93136811851018 l 8.265540983729835 -5.126494213670236 a30.726258822204557,30.726258822204557 0 0,0 0.2749037433552749,0.4518694730036663 l -8.352560525371333 4.983456967459488" fill="#ff760a" stroke="none" /><path d="M 118.3937258080291 89.86733742301442 l 7.235702261237007 -3.9859749071959323 a29.260955342698928,29.260955342698928 0 0,0 0.23923185911769504,0.4432603019224867 l -7.303242219573167 3.8608336219409867" fill="#ff6209" stroke="none" /><path d="M 118.73160827565052 90.50648371742162 l 8.221955860572189 -4.1670352426944595 a30.217632065072625,30.217632065072625 0 0,0 0.23115047731009267,0.4659852572638308 l -8.292466350835689 4.024890396931679" fill="#ff6f0a" stroke="none" /><path d="M 118.89224826269711 90.83032412892265 l 5.075194137752622 -2.463332292635218 a26.641418396096682,26.641418396096682 0 0,0 0.19669207746420442,0.41428367787328585 l -5.116844409058583 2.375606199121392" fill="#ff3d05" stroke="none" /><path d="M 119.04729006885535 91.15688171328212 l 4.227098313599655 -1.962522241306625 a25.66045638328053,25.66045638328053 0 0,0 0.182552987110724,0.40223130878305485 l -4.260253617673726 1.8894689236815074" fill="#ff2f04" stroke="none" /><path d="M 119.34039704204932 91.81776055985345 l 8.591580849057184 -3.6347946489166056 a30.32882595108725,30.32882595108725 0 0,0 0.19927239254538753,0.48255390469304926 l -8.652874928488767 3.486366173770253" fill="#ff710a" stroke="none" /><path d="M 119.47837535516314 92.15188598940014 l 28.53603650403028 -11.497574300256277 a51.76523352989966,51.76523352989966 0 0,0 0.3258903697396575,0.8293554444255642 l -28.72972042365164 11.004669850934928" fill="#87ff25" stroke="none" /><path d="M 119.61058180528143 92.48833698450437 l 5.373659807571588 -2.0583337116250138 a26.754385926918903,26.754385926918903 0 0,0 0.1610300770771067,0.43148054744930703 l -5.40829447315032 1.9655300271463736" fill="#ff3f05" stroke="none" /><path d="M 119.85752413597 93.16781622104841 l 2.981976474055694 -1.025979430051608 a24.153540467904392,24.153540467904392 0 0,0 0.13188144357347548,0.39430873009771344 l -2.9991952114009397 0.9744975970315807" fill="#ff1a02" stroke="none" /><path d="M 120.18372546131832 94.20196356495316 l 4.3445007802235605 -1.2480140925470344 a25.520202009264533,25.520202009264533 0 0,0 0.11765205582455661,0.4232570425853233 l -4.36533960661448 1.1730457465427593" fill="#ff2d04" stroke="none" /><path d="M 120.37134235888165 94.90015583598534 l 2.686306135803289 -0.6725007330437519 a23.769205281520094,23.769205281520094 0 0,0 0.09594518913048569,0.39775475084025735 l -2.697484125194594 0.6261607505440885" fill="#ff1402" stroke="none" /><path d="M 120.53481517161879 95.60439243477599 l 8.300492650089152 -1.7767731524676786 a29.488527614934995,29.488527614934995 0 0,0 0.10197512561079221,0.4972669282069508 l -8.329847071614942 1.633630568097316" fill="#ff6509" stroke="none" /><path d="M 120.83666639777658 97.38593545837742 l 3.0269416039094947 -0.3797450400792669 a24.050669069063865,24.050669069063865 0 0,0 0.04799785955771283,0.41121634889162695 l -3.0330298164707963 0.3275849528627872" fill="#ff1802" stroke="none" /><path d="M 120.87857604477298 97.74499172005257 l 6.854972934041514 -0.7403771546455199 a27.894839538202664,27.894839538202664 0 0,0 0.047451611758933906,0.4778312547126142 l -6.8667016714826765 0.6222703692284708" fill="#ff4f07" stroke="none" /><path d="M 120.96714384426684 98.82574320788733 l 11.326755685197243 -0.6343505770138775 a32.34450505781129,32.34450505781129 0 0,0 0.02634751309583689,0.5561543589596126 l -11.335996806526577 0.4392851114312651" fill="#ff8c0c" stroke="none" /><path d="M 120.98425023603335 99.18683210126433 l 6.089672944725546 -0.2359830109129495 a27.09424355889735,27.09424355889735 0 0,0 0.014048114398211669,0.46618852527464516 l -6.092832753579403 0.13112433821330527" fill="#ff4406" stroke="none" /><line stroke="#e1ed5e" stroke-width="0.3" x1="184.98032266829074" x2="189.97916517819016" y1="98.17113171792111" y2="98.06355123074" /><path d="M 185.9800911702706 98.14961562048488 a86.0,86.0 0 0,1 -9.607161424134198,41.387399972396054" fill="none" id="id112" stroke="none" /><text fill="#e1ed5e" style="font-size:6.75px; font-family:Arial;" text-anchor="middle"><textPath startOffset="21.466115282336823" xlink:href="#id112">April</textPath></text><path d="M 120.99513854157772 99.54816195383933 l 7.564207941921418 -0.16278992065055176 a28.56595944655352,28.56595944655352 0 0,0 0.00634843473393769,0.4916932663640147 l -7.5658893837730705 0.03256039622607432" fill="#ff5808" stroke="none" /><path d="M 120.99980553446 99.90962569577887 l 33.94247210065789 -0.14607408123891258 a54.942786419814574,54.942786419814574 0 0,0 -0.00407022103597917,0.9457760253258226 l -33.939957582332404 -0.4382114222905948" fill="#65ff29" stroke="none" /><path d="M 120.89721153311464 102.0752229133903 l 7.145386312320595 0.7095812461320777 a28.180532786441468,28.180532786441468 0 0,0 -0.05209063929732415,0.4822946254615853 l -7.13211337152222 -0.8324721934784545" fill="#ff5307" stroke="none" /><path d="M 120.8583938346157 102.4346265915055 l 7.763203091666227 0.9061340404294175 a28.815906930208484,28.815906930208484 0 0,0 -0.061746301025841506,0.4921787719034571 l -7.746455281393538 -1.0396305666202694" fill="#ff5c08" stroke="none" /><path d="M 120.81339534386255 102.79330883721812 l 18.54000018715075 2.488202693947525 a39.70622248305941,39.70622248305941 0 0,0 -0.09674316923293784,0.6766215002912421 l -18.494422966901208 -2.8069696662191768" fill="#ffeb16" stroke="none" /><path d="M 120.41448212921028 104.9243191809786 l 17.240332355992297 4.158660443586919 a38.734810865361084,38.734810865361084 0 0,0 -0.16192753032854504,0.6468199912709236 l -17.166193511368693 -4.454808274255239" fill="#ffdf14" stroke="none" /><path d="M 120.32669344350535 105.2749913415812 l 9.132729778688903 2.3700397037756966 a30.435244639542965,30.435244639542965 0 0,0 -0.13596137364972088,0.505962850223083 l -9.090580328697405 -2.526893487174328" fill="#ff720a" stroke="none" /><path d="M 120.23288151984713 105.62410040840565 l 15.522314450145078 4.314711918459432 a37.11083439268366,37.11083439268366 0 0,0 -0.17637783446144803,0.6139943803583521 l -15.44574397879753 -4.581263774322366" fill="#ffca12" stroke="none" /><path d="M 120.13307415673323 105.97154293290107 l 1.9562734212380555 0.5802378033515289 a23.040510134030374,23.040510134030374 0 0,0 -0.1160509104753119,0.3792610900940613 l -1.9459957382566109 -0.6138258659976473" fill="#ff0a01" stroke="none" /><path d="M 119.79798401119884 107.00284435728193 l 7.7508064899211755 2.741576690920962 a29.221389420067958,29.221389420067958 0 0,0 -0.1718158406236638,0.4727634014290391 l -7.702466388292285 -2.8745878893561323" fill="#ff6109" stroke="none" /><path d="M 119.41010516605496 108.01547362559984 l 5.862741976531546 2.421040653028917 a27.342963134608596,27.342963134608596 0 0,0 -0.18339188232402331,0.43348423672772246 l -5.820199113015214 -2.5215994154228025" fill="#ff4706" stroke="none" /><path d="M 118.97047184881838 109.00673069616215 l 7.018270592097079 3.332108641238156 a28.76910999413116,28.76910999413116 0 0,0 -0.2162433486984133,0.4455253474829154 l -6.959873986783951 -3.4524229446863473" fill="#ff5b08" stroke="none" /><line stroke="#e1ed5e" stroke-width="0.3" x1="174.80103733775053" x2="179.2010983576182" y1="140.37084112569926" y2="142.7455964860345" /><path d="M 175.68104954172406 140.8457921977663 a86.0,86.0 0 0,1 -30.038265399797805,32.042727171017184" fill="none" id="id113" stroke="none" /><text fill="#e1ed5e" style="font-size:6.75px; font-family:Arial;" text-anchor="middle"><textPath startOffset="22.206326154141568" xlink:href="#id113">May</textPath></text><path d="M 116.0416608686014 113.55231037782055 l 5.788200571207082 4.889985601404609 a28.577283486478937,28.577283486478937 0 0,0 -0.3206881385575263,0.37303275463795094 l -5.703169923078777 -4.988895455204088" fill="#ff5908" stroke="none" /><path d="M 115.07121518719521 114.62390073753431 l 1.2341293194059806 1.1975002970966528 a22.7196168580716,22.7196168580716 0 0,0 -0.27475522363112287,0.27832559094552684 l -1.213333470719322 -1.2185663820228445" fill="#ff0500" stroke="none" /><path d="M 114.29624159901734 115.38237550388516 l 3.723404964178918 4.006284652881566 a26.46937484975994,26.46937484975994 0 0,0 -0.3364137177491137,0.3073059548715549 l -3.65389169696294 -4.069783374339703" fill="#ff3b05" stroke="none" /><path d="M 114.0293411484842 115.62618273729858 l 3.721066866107364 4.14460452647721 a26.569926866928995,26.569926866928995 0 0,0 -0.34295151714256256,0.3026148395891491 l -3.6491729960582138 -4.208042507838647" fill="#ff3c05" stroke="none" /><path d="M 112.63410532772338 116.77436683061366 l 3.346159189212413 4.4427128203776185 a26.561877248186832,26.561877248186832 0 0,0 -0.3675847972485848,0.27193044529312616 l -3.269189421545264 -4.499653214410514" fill="#ff3c05" stroke="none" /><path d="M 111.45004920935366 117.60387380957326 l 1.077010482390387 1.6558493572324324 a22.975294578797257,22.975294578797257 0 0,0 -0.3333804934043823,0.212779204242792 l -1.048348186939074 -1.6741429902990335" fill="#ff0901" stroke="none" /><path d="M 111.1453310114006 117.79835938074945 l 33.4359930342018 53.39507814224836 a84.0,84.0 0 0,0 -1.2320832002707651,0.7568461326864875 l -32.51193063399873 -53.96271274176323" fill="#4dd2ff" stroke="none" /><line stroke="#e1ed5e" stroke-width="0.3" x1="143.8653032363475" x2="146.44561519142675" y1="172.8068346515853" y2="177.08958963109032" /><path d="M 144.38136562736335 173.6633856474863 a86.0,86.0 0 0,1 -40.68145358897372,12.25698825130547" fill="none" id="id114" stroke="none" /><text fill="#e1ed5e" style="font-size:6.75px; font-family:Arial;" text-anchor="middle"><textPath startOffset="21.466115282336833" xlink:href="#id114">June</textPath></text><path d="M 110.5260780823613 118.17145234162733 l 2.7442148294615216 4.737412035001795 a26.474832218398696,26.474832218398696 0 0,0 -0.3963045787337141,0.2250320827191686 l -2.6622614838066085 -4.783947283515593" fill="#ff3b05" stroke="none" /><path d="M 110.21172684928248 118.3499491758327 l 11.149944913564251 20.035878896585864 a43.92940720415973,43.92940720415973 0 0,0 -0.6639138921301592,0.3620187894919774 l -10.803408209565443 -20.224838337837614" fill="#e0ff1b" stroke="none" /><path d="M 108.92500713936063 119.00905698771935 l 2.335677196085759 4.97467623633648 a26.495706653441932,26.495706653441932 0 0,0 -0.41450893382922843,0.19028072114164457 l -2.2497002664891115 -5.014144027812199" fill="#ff3b05" stroke="none" /><path d="M 107.59598834532513 119.57807347666477 l 2.0102281651664415 5.1812078867539455 a26.557511353275828,26.557511353275828 0 0,0 -0.4276135929066501,0.16168687139663485 l -1.9207443514995168 -5.2150430082572115" fill="#ff3c05" stroke="none" /><path d="M 106.91757812671514 119.82793768551818 l 5.170914405595126 14.821454377989784 a36.69757515251396,36.69757515251396 0 0,0 -0.5982233667864899,0.20294984601402993 l -4.9150213058714085 -14.908267210901938" fill="#ffc512" stroke="none" /><path d="M 106.2309692047433 120.05430185196036 l 1.1346638358788435 3.6519023473740555 a24.824114639391375,24.824114639391375 0 0,0 -0.4091546340027432,0.12327493487838494 l -1.0716342274358543 -3.670892651358166" fill="#ff2303" stroke="none" /><path d="M 104.48393922423573 120.51570834832081 l 1.6348339421792966 7.479980142104348 a28.656551765956845,28.656551765956845 0 0,0 -0.48280631908507465,0.10117675840218927 l -1.505836161664844 -7.507012881233079" fill="#ff5a08" stroke="none" /><path d="M 104.13013068566511 120.58985236759428 l 0.8956825865815947 4.465227284441282 a25.55417412904078,25.55417412904078 0 0,0 -0.43202663803254227,0.08279893341100139 l -0.8186883339773481 -4.479983416200751" fill="#ff2e04" stroke="none" /><path d="M 103.06178313531738 120.77559828337769 l 0.5238955808406538 3.55487101762157 a24.59326794597205,24.59326794597205 0 0,0 -0.4193402905111417,0.05811674322741487 l -0.4626266991426817 -3.5633623263415877" fill="#ff2003" stroke="none" /><path d="M 102.70371172650421 120.8252237178851 l 0.3778548401586448 2.9104107150371683 a23.934836419706297,23.934836419706297 0 0,0 -0.40902649641827016,0.04952741246016913 l -0.3277009206889943 -2.9164836562226886" fill="#ff1702" stroke="none" /><path d="M 102.34483914955558 120.86867818915974 l 0.3236029453431092 2.8800123576534045 a23.898135615610673,23.898135615610673 0 0,0 -0.4091900271082046,0.04241421938684489 l -0.27398032162930186 -2.885155945496008" fill="#ff1602" stroke="none" /><line stroke="#e1ed5e" stroke-width="0.3" x1="102.19456741930631" x2="102.32365962044197" y1="184.97166512339345" y2="189.96999836594603" /><path d="M 102.22038585953345 185.97133177190398 a86.0,86.0 0 0,1 -42.740103519485714,-10.115201625700543" fill="none" id="id115" stroke="none" /><text fill="#e1ed5e" style="font-size:6.75px; font-family:Arial;" text-anchor="middle"><textPath startOffset="22.20632615414155" xlink:href="#id115">July</textPath></text><path d="M 100.18074693466247 120.99922214144158 l 0.056769821245116585 6.595531423436701 a27.595775736798906,27.595775736798906 0 0,0 -0.47503351181513953,0.0 l 0.05676982124511205 -6.595531423436701" fill="#ff4b07" stroke="none" /><path d="M 97.2962882734958 120.8252237178851 l -3.6998191284893607 28.49769829793356 a49.736866041090515,49.736866041090515 0 0,0 -0.8480642711088163,-0.11753398039643907 l 4.189811990785008 -28.429789752044517" fill="#9dff22" stroke="none" /><path d="M 94.46302465271185 120.25689768951611 l -0.7935642648112978 2.9032367157299466 a24.009738804273205,24.009738804273205 0 0,0 -0.3977257043788497,-0.1124012568321441 l 0.8434211372947614 -2.8891466655592812" fill="#ff1802" stroke="none" /><line stroke="#e1ed5e" stroke-width="0.3" x1="58.666819895761336" x2="56.23545636021788" y1="174.27360380694188" y2="178.64263932499728" /><path d="M 58.180547188652646 175.14741091055294 a86.0,86.0 0 0,1 -31.652253787137756,-30.449443065178592" fill="none" id="id116" stroke="none" /><text fill="#e1ed5e" style="font-size:6.75px; font-family:Arial;" text-anchor="middle"><textPath startOffset="22.20632615414155" xlink:href="#id116">August</textPath></text><path d="M 89.7882731507175 118.34994917583269 l -3.327826854758261 5.979934104394489 a27.843540272998368,27.843540272998368 0 0,0 -0.41679291514743155,-0.2366658948476117 l 3.4302685368268997 -5.921765043752243" fill="#ff4e07" stroke="none" /><line stroke="#e1ed5e" stroke-width="0.3" x1="26.63291911575756" x2="22.317208475507996" y1="142.92168965132927" y2="145.44649492493687" /><path d="M 25.769776987707644 143.4266507060508 a86.0,86.0 0 0,1 -11.730757126820373,-40.83630448921669" fill="none" id="id117" stroke="none" /><text fill="#e1ed5e" style="font-size:6.75px; font-family:Arial;" text-anchor="middle"><textPath startOffset="21.46611528233685" xlink:href="#id117">September</textPath></text><line stroke="#e1ed5e" stroke-width="0.3" x1="15.007084014347285" x2="10.007500721073583" y1="101.09737516637583" y2="101.16192664675087" /><path d="M 14.007167355692545 101.11028546245083 a86.0,86.0 0 0,1 10.666146001902534,-42.60595125391555" fill="none" id="id118" stroke="none" /><text fill="#e1ed5e" style="font-size:6.75px; font-family:Arial;" text-anchor="middle"><textPath startOffset="22.20632615414155" xlink:href="#id118">October</textPath></text><line stroke="#e1ed5e" stroke-width="0.3" x1="26.266209847984243" x2="21.928928074336255" y1="57.711370442889674" y2="55.22380399835377" /><path d="M 25.398753493254645 57.213857153982495 a86.0,86.0 0 0,1 29.58750427330803,-30.492523968695096" fill="none" id="id119" stroke="none" /><text fill="#e1ed5e" style="font-size:6.75px; font-family:Arial;" text-anchor="middle"><textPath startOffset="21.46611528233685" xlink:href="#id119">November</textPath></text><line stroke="#e1ed5e" stroke-width="0.3" x1="56.762969772571076" x2="54.21961505331055" y1="26.818313649435495" y2="22.513508569990535" /><path d="M 56.25429882871897 25.957352633546506 a86.0,86.0 0 0,1 42.265352541879196,-11.944610805530505" fill="none" id="id120" stroke="none" /><text fill="#e1ed5e" style="font-size:6.75px; font-family:Arial;" text-anchor="middle"><textPath startOffset="22.20632615414155" xlink:href="#id120">December</textPath></text></svg>