<?xml version="1.0" encoding="utf-8" ?>
<svg baseProfile="full" height="200mm" version="1.1" viewBox="0,0,200,200" width="200mm" xmlns="http://www.w3.org/2000/svg" xmlns:ev="http://www.w3.org/2001/xml-events" xmlns:xlink="http://www.w3.org/1999/xlink"><defs /><rect fill="#1a1a1a" height="200" width="200" x="0" y="0" /><text alignment-baseline="middle" fill="#e1ed5e" style="dominant-baseline: central; font-size:9.0px; font-family:Arial;" text-anchor="middle" x="100.0" y="100.0">2025</text><line stroke="#e1ed5e" stroke-width="0.3" x1="100.0" x2="100.0" y1="15.0" y2="10.0" /><path d="M 100.0 14.0 a86.0,86.0 0 0,1 42.46469731375804,11.215312516191453" fill="none" id="id109" stroke="none" /><text fill="#e1ed5e" style="font-size:6.75px; font-family:Arial;" text-anchor="middle"><textPath startOffset="22.20632615414155" xlink:href="#id109">January</textPath></text><path d="M 105.71112130821622 79.79150937346287 l 1.9091026801518785 -6.755255497977865 a28.019839733663673,28.019839733663673 0 0,0 0.46300754692395696,0.13516459945001144 l -2.0251004447992624 6.721392569609151" fill="#ff4c07" stroke="none" /><path d="M 106.0581310904928 79.89281104454417 l 2.047765166753862 -6.7966177240597 a28.09840507897182,28.09840507897182 0 0,0 0.46190383032192944,0.1435157685136579 l -2.1644543697865095 6.760361820663521" fill="#ff4d07" stroke="none" /><path d="M 106.74666289553966 80.11325718540242 l 3.6019711760352497 -10.617319334387306 a32.2116754413131,32.2116754413131 0 0,0 0.5235440241615834,0.1826542299735867 l -3.7841972042601064 10.553744251241511" fill="#ff860c" stroke="none" /><path d="M 107.08798089147638 80.2323363322302 l 4.006098388984744 -11.172604269951666 a32.86911582533292,32.86911582533292 0 0,0 0.5309421440086302,0.19555047244345303 l -4.197822858765951 11.101990529701888" fill="#ff8f0d" stroke="none" /><line stroke="#e1ed5e" stroke-width="0.3" x1="143.23703022742887" x2="145.7803849466894" y1="26.81831364943548" y2="22.513508569990506" /><path d="M 143.74570117128098 25.957352633546492 a86.0,86.0 0 0,1 28.547481713284135,27.462654790039103" fill="none" id="id110" stroke="none" /><text fill="#e1ed5e" style="font-size:6.75px; font-family:Arial;" text-anchor="middle"><textPath startOffset="19.985693538727396" xlink:href="#id110">February</textPath></text><path d="M 113.06298171725822 83.55741782278167 l 5.275935057153928 -6.64090309674937 a29.481573242489933,29.481573242489933 0 0,0 0.39462714492552164,0.31909437338471164 l -5.389465600643941 6.549102626100528" fill="#ff6008" stroke="none" /><path d="M 114.42810811169701 84.74124197986012 l 1.2175691043801724 -1.2876665597947412 a22.77216243419015,22.77216243419015 0 0,0 0.2825014234898265,0.2717661455716286 l -1.2395537714824172 1.2665173274608106" fill="#ff0000" stroke="none" /><path d="M 114.94478906791727 85.2469230424477 l 3.8292592083724664 -3.7801373799789473 a26.380768039640756,26.380768039640756 0 0,0 0.31623724126364067,0.32591027516047777 l -3.8937607133392165 3.713662909268355" fill="#ff3505" stroke="none" /><path d="M 116.38621287248628 86.86637796730983 l 8.048386808553452 -6.450817595194098 a31.31453236296067,31.31453236296067 0 0,0 0.3334936848135432,0.42350311289926496 l -8.158234573960959 6.311322088341795" fill="#ff7a0b" stroke="none" /><path d="M 116.60985879189232 87.15038557335679 l 8.799622547982041 -6.807508616313947 a32.125445184267576,32.125445184267576 0 0,0 0.3346003710862241,0.4402948669348354 l -8.91549885929238 6.655028973498077" fill="#ff850c" stroke="none" /><path d="M 116.82858285166822 87.43820079747576 l 4.240602972656769 -3.1654241779997037 a26.291750541963456,26.291750541963456 0 0,0 0.2675966701563198,0.36500155736203366 l -4.2944622553267155 3.091960176966176" fill="#ff3304" stroke="none" /><path d="M 117.04232023915458 87.72973835380427 l 9.793273984042125 -7.051037210355794 a33.06753251780737,33.06753251780737 0 0,0 0.3286084157471968,0.46479329993683016 l -9.913195019593203 6.88141741008717" fill="#ff910d" stroke="none" /><path d="M 117.2510076193507 88.02491185347247 l 9.844219228167338 -6.833536660131747 a32.98356689377516,32.98356689377516 0 0,0 0.31974510735958833,0.4691864905762522 l -9.96038880119566 6.663072146285088" fill="#ff900d" stroke="none" /><path d="M 117.65298651832404 88.62581576622439 l 28.86436678173404 -18.597908361054206 a55.33706255806751,55.33706255806751 0 0,0 0.509028256715706,0.8051604587239835 l -29.180222634695703 18.098300254616014" fill="#63ff29" stroke="none" /><line stroke="#e1ed5e" stroke-width="0.3" x1="172.23445277983987" x2="176.4835382374775" y1="55.19839476539836" y2="52.563006222186495" /><path d="M 173.08426987136738 54.67131705675599 a86.0,86.0 0 0,1 12.851231095245387,41.99856678651699" fill="none" id="id111" stroke="none" /><text fill="#e1ed5e" style="font-size:6.75px; font-family:Arial;" text-anchor="middle"><textPath startOffset="22.20632615414155" xlink:href="#id111">March</textPath></text><path d="M 117.84615892207809 88.93136811851018 l 10.553644621809255 -6.545633031562687 a33.41872483741096,33.41872483741096 0 0,0 0.2989928780175857,0.49146567657702106 l -10.664753298113064 6.362999581778585" fill="#ff960d" stroke="none" /><path d="M 118.3937258080291 89.86733742301442 l 9.238721386129775 -5.089390122776016 a31.547789563332298,31.547789563332298 0 0,0 0.25792856931354285,0.4779024663772282 l -9.324958054661783 4.929606673066329" fill="#ff7d0b" stroke="none" /><path d="M 118.73160827565052 90.50648371742162 l 10.497994071953043 -5.320572381713257 a32.769297770207494,32.769297770207494 0 0,0 0.25066950330152593,0.5053344225954495 l -10.588023588207976 5.139078370618858" fill="#ff8d0d" stroke="none" /><path d="M 118.89224826269711 90.83032412892265 l 6.480131841577412 -3.145242840495539 a28.203100805202848,28.203100805202848 0 0,0 0.20822188990960333,0.4385684033520654 l -6.533311925328772 3.033232021502933" fill="#ff4e07" stroke="none" /><path d="M 119.04729006885535 91.15688171328212 l 5.397262377743246 -2.505796334192331 a26.95058454629916,26.95058454629916 0 0,0 0.19173118512859624,0.422454251499186 l -5.439595879835189 2.412520073851082" fill="#ff3d05" stroke="none" /><path d="M 119.34039704204932 91.81776055985345 l 10.969940285696298 -4.640994591089626 a32.91127283988851,32.91127283988851 0 0,0 0.21624009089885354,0.523642532121728 l -11.048202063481348 4.451477488514595" fill="#ff8f0d" stroke="none" /><path d="M 119.47837535516314 92.15188598940014 l 36.43550842846505 -14.680383705870456 a60.28180164137503,60.28180164137503 0 0,0 0.37950680960674654,0.965803435662646 l -36.6828087879535 14.051031265312027" fill="#31ff2f" stroke="none" /><path d="M 119.61058180528143 92.48833698450437 l 6.861220099113126 -2.6281307597821026 a28.34734050789718,28.34734050789718 0 0,0 0.17061779849429579,0.4571708741321868 l -6.905442486109047 2.5096367486205824" fill="#ff5007" stroke="none" /><path d="M 119.85752413597 93.16781622104841 l 3.807460399715833 -1.3099955968235986 a25.0265174976773,25.0265174976773 0 0,0 0.13664801065484897,0.40856015897091064 l -3.829445704142452 1.2442623349303739" fill="#ff2103" stroke="none" /><path d="M 120.18372546131832 94.20196356495316 l 5.547164714796737 -1.5934948773077988 a26.771504335707647,26.771504335707647 0 0,0 0.12342075197792712,0.44401011193321405 l -5.573772237341028 1.4977734619556329" fill="#ff3a05" stroke="none" /><path d="M 120.37134235888165 94.90015583598534 l 3.429941289802965 -0.8586653624270449 a24.535788943945494,24.535788943945494 0 0,0 0.09903952962713361,0.4105827898947767 l -3.444213619690918 0.7994973408728622" fill="#ff1a02" stroke="none" /><path d="M 120.53481517161879 95.60439243477599 l 10.598271763144876 -2.268627360462737 a31.838359399194793,31.838359399194793 0 0,0 0.11010114649909057,0.5368922919558727 l -10.635752205558964 2.0858594123434524" fill="#ff810b" stroke="none" /><path d="M 120.83666639777658 97.38593545837742 l 3.8648729758296825 -0.4848677428108063 a24.895168782904925,24.895168782904925 0 0,0 0.04968322550512469,0.42565553509341275 l -3.872646554338396 0.4182684693925408" fill="#ff1f03" stroke="none" /><path d="M 120.87857604477298 97.74499172005257 l 8.752596881486815 -0.9453316354750197 a29.803499535459895,29.803499535459895 0 0,0 0.050698412768332854,0.5105260977878062 l -8.767572419937377 0.7945300069827785" fill="#ff6509" stroke="none" /><path d="M 120.96714384426684 98.82574320788733 l 14.462278325754228 -0.8099543113538721 a35.48494115825333,35.48494115825333 0 0,0 0.028905681203066993,0.6101532444943649 l -14.474077615190792 0.5608899602365074" fill="#ffb110" stroke="none" /><path d="M 120.98425023603335 99.18683210126433 l 7.7754431619403785 -0.30130887244551197 a28.781279033756583,28.781279033756583 0 0,0 0.014922826670327538,0.4952159671517729 l -7.779477683066352 0.16742275786874" fill="#ff5708" stroke="none" /><line stroke="#e1ed5e" stroke-width="0.3" x1="184.98032266829074" x2="189.97916517819016" y1="98.17113171792111" y2="98.06355123074" /><path d="M 185.9800911702706 98.14961562048488 a86.0,86.0 0 0,1 -9.607161424134198,41.387399972396054" fill="none" id="id112" stroke="none" /><text fill="#e1ed5e" style="font-size:6.75px; font-family:Arial;" text-anchor="middle"><textPath startOffset="21.466115282336823" xlink:href="#id112">April</textPath></text><path d="M 120.99513854157772 99.54816195383933 l 9.658165463294626 -0.20785414698690277 a30.66040182719108,30.66040182719108 0 0,0 0.006813898909308661,0.5277439797060149 l -9.660312369321652 0.041573909220425115" fill="#ff710a" stroke="none" /><path d="M 120.99980553446 99.90962569577887 l 43.33857745562505 -0.18651095492567782 a64.33897878600186,64.33897878600186 0 0,0 -0.004766301127999582,1.1075205244378035 l -43.335366857207546 -0.5595190477158103" fill="#34ff5f" stroke="none" /><path d="M 120.89721153311464 102.0752229133903 l 9.123403776499446 0.9060106672653918 a30.168279653143387,30.168279653143387 0 0,0 -0.055764913514651,0.5163138414165687 l -9.106456561483743 -1.062920830566752" fill="#ff6a09" stroke="none" /><path d="M 120.8583938346157 102.4346265915055 l 9.912247331136598 1.1569740760151532 a30.979540879529264,30.979540879529264 0 0,0 -0.06638250399068515,0.5291338711340481 l -9.890863317899063 -1.3274257014365962" fill="#ff750a" stroke="none" /><path d="M 120.81339534386255 102.79330883721812 l 23.672325096278474 3.17699797637455 a44.884561783834,44.884561783834 0 0,0 -0.10936005706542169,0.7648639844057178 l -23.614130988196454 -3.5840074327606772" fill="#d7ff1c" stroke="none" /><path d="M 120.41448212921028 104.9243191809786 l 22.0128774638194 5.309879233650232 a43.64423970269433,43.64423970269433 0 0,0 -0.18245097343289804,0.7288009444953226 l -21.918215176091444 -5.688008017542951" fill="#e6ff1a" stroke="none" /><path d="M 120.32669344350535 105.2749913415812 l 11.660892457132814 3.026124584278552 a33.04715082068752,33.04715082068752 0 0,0 -0.14762937094819578,0.5493838087722446 l -11.607075009842841 -3.226399326226345" fill="#ff910d" stroke="none" /><path d="M 120.23288151984713 105.62410040840565 l 19.819270237395045 5.509129568474722 a41.57070687519356,41.57070687519356 0 0,0 -0.19757441123780797,0.6877824448464895 l -19.721503189271136 -5.849469488825794" fill="#ffff18" stroke="none" /><path d="M 120.13307415673323 105.97154293290107 l 2.4978176880953478 0.7408618001852781 a23.605373180551254,23.605373180551254 0 0,0 -0.11889602416686104,0.3885590862552204 l -2.484694891422354 -0.7837478589925556" fill="#ff0c01" stroke="none" /><path d="M 119.79798401119884 107.00284435728193 l 9.8964190472296 3.50051208461364 a31.497270826881383,31.497270826881383 0 0,0 -0.18519756150798533,0.5095841500822604 l -9.834697224716388 -3.6703440317020317" fill="#ff7c0b" stroke="none" /><path d="M 119.41010516605496 108.01547362559984 l 7.485692158743261 3.091243842032268 a29.09885026323939,29.09885026323939 0 0,0 -0.19516878609567578,0.46132135840277416 l -7.431372391455277 -3.2196397261012053" fill="#ff5b08" stroke="none" /><path d="M 118.97047184881838 109.00673069616215 l 8.961099319994416 4.254517703089117 a30.9197894084856,30.9197894084856 0 0,0 -0.23240895544230006,0.47883128546987713 l -8.886537107937402 -4.408137944524269" fill="#ff740a" stroke="none" /><line stroke="#e1ed5e" stroke-width="0.3" x1="174.80103733775053" x2="179.2010983576182" y1="140.37084112569926" y2="142.7455964860345" /><path d="M 175.68104954172406 140.8457921977663 a86.0,86.0 0 0,1 -30.038265399797805,32.042727171017184" fill="none" id="id113" stroke="none" /><text fill="#e1ed5e" style="font-size:6.75px; font-family:Arial;" text-anchor="middle"><textPath startOffset="22.206326154141568" xlink:href="#id113">May</textPath></text><path d="M 116.0416608686014 113.55231037782055 l 7.390515871679515 6.243653058471756 a30.67486063796841,30.67486063796841 0 0,0 -0.34422669891474933,0.4004134181378935 l -7.281946663193987 -6.369943575771177" fill="#ff710a" stroke="none" /><path d="M 115.07121518719521 114.62390073753431 l 1.5757664598123722 1.5289976294287466 a23.195648807680396,23.195648807680396 0 0,0 -0.2805120225061821,0.28415719781246873 l -1.5492138122506545 -1.55589532122188" fill="#ff0601" stroke="none" /><path d="M 114.29624159901734 115.38237550388516 l 4.7541344060086645 5.1153221021524935 a27.98343140291112,27.98343140291112 0 0,0 -0.3556566880428612,0.3248839519884712 l -4.66537816849894 -5.1963988207275476" fill="#ff4b07" stroke="none" /><path d="M 114.0293411484842 115.62618273729858 l 4.751149065280612 5.29193229535527 a28.111818674512232,28.111818674512232 0 0,0 -0.36285349644904447,0.3201760223636636 l -4.6593532159249795 -5.372931459491222" fill="#ff4d07" stroke="none" /><path d="M 112.63410532772338 116.77436683061366 l 4.2724577859407855 5.67256424658892 a28.101540724682565,28.101540724682565 0 0,0 -0.38889190899940684,0.2876929371852844 l -4.174180906522815 -5.745267132513974" fill="#ff4d07" stroke="none" /><path d="M 111.45004920935366 117.60387380957326 l 1.3751532909322517 2.114228905026447 a23.522104366676988,23.522104366676988 0 0,0 -0.34131491688942095,0.2178433287151978 l -1.3385565719959003 -2.137586662565454" fill="#ff0b01" stroke="none" /><path d="M 111.1453310114006 117.79835938074945 l 33.4359930342018 53.39507814224836 a84.0,84.0 0 0,0 -1.2320832002707651,0.7568461326864875 l -32.51193063399873 -53.96271274176323" fill="#4dd2ff" stroke="none" /><line stroke="#e1ed5e" stroke-width="0.3" x1="143.8653032363475" x2="146.44561519142675" y1="172.8068346515853" y2="177.08958963109032" /><path d="M 144.38136562736335 173.6633856474863 a86.0,86.0 0 0,1 -40.68145358897372,12.25698825130547" fill="none" id="id114" stroke="none" /><text fill="#e1ed5e" style="font-size:6.75px; font-family:Arial;" text-anchor="middle"><textPath startOffset="21.466115282336833" xlink:href="#id114">June</textPath></text><line stroke="#e1ed5e" stroke-width="0.3" x1="102.19456741930631" x2="102.32365962044197" y1="184.97166512339345" y2="189.96999836594603" /><path d="M 102.22038585953345 185.97133177190398 a86.0,86.0 0 0,1 -42.740103519485714,-10.115201625700543" fill="none" id="id115" stroke="none" /><text fill="#e1ed5e" style="font-size:6.75px; font-family:Arial;" text-anchor="middle"><textPath startOffset="22.20632615414155" xlink:href="#id115">July</textPath></text><line stroke="#e1ed5e" stroke-width="0.3" x1="58.666819895761336" x2="56.23545636021788" y1="174.27360380694188" y2="178.64263932499728" /><path d="M 58.180547188652646 175.14741091055294 a86.0,86.0 0 0,1 -31.652253787137756,-30.449443065178592" fill="none" id="id116" stroke="none" /><text fill="#e1ed5e" style="font-size:6.75px; font-family:Arial;" text-anchor="middle"><textPath startOffset="22.20632615414155" xlink:href="#id116">August</textPath></text><line stroke="#e1ed5e" stroke-width="0.3" x1="26.63291911575756" x2="22.317208475507996" y1="142.92168965132927" y2="145.44649492493687" /><path d="M 25.769776987707644 143.4266507060508 a86.0,86.0 0 0,1 -11.730757126820373,-40.83630448921669" fill="none" id="id117" stroke="none" /><text fill="#e1ed5e" style="font-size:6.75px; font-family:Arial;" text-anchor="middle"><textPath startOffset="21.46611528233685" xlink:href="#id117">September</textPath></text><line stroke="#e1ed5e" stroke-width="0.3" x1="15.007084014347285" x2="10.007500721073583" y1="101.09737516637583" y2="101.16192664675087" /><path d="M 14.007167355692545 101.11028546245083 a86.0,86.0 0 0,1 10.666146001902534,-42.60595125391555" fill="none" id="id118" stroke="none" /><text fill="#e1ed5e" style="font-size:6.75px; font-family:Arial;" text-anchor="middle"><textPath startOffset="22.20632615414155" xlink:href="#id118">October</textPath></text><line stroke="#e1ed5e" stroke-width="0.3" x1="26.266209847984243" x2="21.928928074336255" y1="57.711370442889674" y2="55.22380399835377" /><path d="M 25.398753493254645 57.213857153982495 a86.0,86.0 0 0,1 29.58750427330803,-30.492523968695096" fill="none" id="id119" stroke="none" /><text fill="#e1ed5e" style="font-size:6.75px; font-family:Arial;" text-anchor="middle"><textPath startOffset="21.46611528233685" xlink:href="#id119">November</textPath></text><line stroke="#e1ed5e" stroke-width="0.3" x1="56.762969772571076" x2="54.21961505331055" y1="26.818313649435495" y2="22.513508569990535" /><path d="M 56.25429882871897 25.957352633546506 a86.0,86.0 0 0,1 42.265352541879196,-11.944610805530505" fill="none" id="id120" stroke="none" /><text fill="#e1ed5e" style="font-size:6.75px; font-family:Arial;" text-anchor="middle"><textPath startOffset="22.20632615414155" xlink:href="#id120">December</textPath></text></svg>