<?xml version="1.0" encoding="utf-8" ?>
<svg baseProfile="full" height="200mm" version="1.1" viewBox="0,0,200,200" width="200mm" xmlns="http://www.w3.org/2000/svg" xmlns:ev="http://www.w3.org/2001/xml-events" xmlns:xlink="http://www.w3.org/1999/xlink"><defs /><rect fill="#1a1a1a" height="200" width="200" x="0" y="0" /><text alignment-baseline="middle" fill="#e1ed5e" style="dominant-baseline: central; font-size:9.0px; font-family:Arial;" text-anchor="middle" x="100.0" y="100.0">2019</text><line stroke="#e1ed5e" stroke-width="0.3" x1="100.0" x2="100.0" y1="15.0" y2="10.0" /><path d="M 100.0 14.0 a86.0,86.0 0 0,1 42.46469731375804,11.215312516191453" fill="none" id="id37" stroke="none" /><text fill="#e1ed5e" style="font-size:6.75px; font-family:Arial;" text-anchor="middle"><textPath startOffset="22.20632615414155" xlink:href="#id37">January</textPath></text><line stroke="#e1ed5e" stroke-width="0.3" x1="143.23703022742887" x2="145.7803849466894" y1="26.81831364943548" y2="22.513508569990506" /><path d="M 143.74570117128098 25.957352633546492 a86.0,86.0 0 0,1 28.547481713284135,27.462654790039103" fill="none" id="id38" stroke="none" /><text fill="#e1ed5e" style="font-size:6.75px; font-family:Arial;" text-anchor="middle"><textPath startOffset="19.985693538727396" xlink:href="#id38">February</textPath></text><path d="M 113.89432698308785 84.25364557470407 l 20.693636856963582 -23.451970051859227 a52.27653282704436,52.27653282704436 0 0,0 0.6696101398596415,0.6011825950397893 l -21.094257984419215 23.092288448050137" fill="#8cff24" stroke="none" /><path d="M 114.16331599549186 84.49514656593476 l 12.198196563148032 -13.353599533592876 a39.08631028974037,39.08631028974037 0 0,0 0.4928450864891241,0.4580457956937473 l -12.426249533432003 13.141649151824486" fill="#ffd213" stroke="none" /><path d="M 114.42810811169701 84.74124197986012 l 12.227632991492428 -12.931597928975943 a38.797225445875796,38.797225445875796 0 0,0 0.48130130142844346,0.46301147063964126 l -12.448417536533288 12.719203371574" fill="#ffcf13" stroke="none" /><path d="M 114.94478906791727 85.2469230424477 l 12.730824186017475 -12.567512869926285 a38.888998412182005,38.888998412182005 0 0,0 0.4661786023399648,0.4804380279673698 l -12.945267052060549 12.3465106464088" fill="#ffd013" stroke="none" /><path d="M 115.19652480421416 85.50635884689758 l 15.888158057055476 -15.153284348200227 a42.95576445909791,42.95576445909791 0 0,0 0.5057175563823231,0.5394642290117533 l -16.146642935408263 14.877550702310419" fill="#faff18" stroke="none" /><path d="M 115.4437574822437 85.77008943001954 l 31.571802786969695 -29.09032537633251 a63.93047590838241,63.93047590838241 0 0,0 0.7387207875053484,0.8157139441991578 l -32.06786721509108 28.542558644863803" fill="#33ff54" stroke="none" /><line stroke="#e1ed5e" stroke-width="0.3" x1="172.23445277983987" x2="176.4835382374775" y1="55.19839476539836" y2="52.563006222186495" /><path d="M 173.08426987136738 54.67131705675599 a86.0,86.0 0 0,1 12.851231095245387,41.99856678651699" fill="none" id="id39" stroke="none" /><text fill="#e1ed5e" style="font-size:6.75px; font-family:Arial;" text-anchor="middle"><textPath startOffset="22.20632615414155" xlink:href="#id39">March</textPath></text><path d="M 117.84615892207809 88.93136811851018 l 8.075368931158305 -5.008544774059592 a30.50247884123277,30.50247884123277 0 0,0 0.27290161368458876,0.44857849824960944 l -8.160386343129117 4.8687985026029015" fill="#ff5d08" stroke="none" /><path d="M 118.03404312379186 89.2402003453031 l 29.930436108726994 -17.857642565063056 a55.85292532399742,55.85292532399742 0 0,0 0.4854957700203328,0.8298696467308417 l -30.233391553217654 17.33979350597832" fill="#64ff29" stroke="none" /><path d="M 118.56541770881063 90.18545643968196 l 30.63303387528498 -16.194046913956743 a55.650107068460684,55.650107068460684 0 0,0 0.44040584944798555,0.8507239227670608 l -30.90724915789308 15.664350268929338" fill="#66ff29" stroke="none" /><path d="M 120.08093135843002 93.85539295169968 l 40.743590847869065 -12.467218329083208 a63.60835279664761,63.60835279664761 0 0,0 0.3113601696158921,1.049751706513202 l -40.95215691459666 11.764037235823476" fill="#33ff50" stroke="none" /><path d="M 120.18372546131832 94.20196356495316 l 34.37083328534756 -9.873466822232018 a56.760865870653525,56.760865870653525 0 0,0 0.26167632049464146,0.9413889519476959 l -34.535696376408566 9.28036656686537" fill="#5bff2a" stroke="none" /><path d="M 120.28053869075195 94.5502522615342 l 42.772267933074694 -11.493682391366708 a65.28963353937739,65.28963353937739 0 0,0 0.28231134362948473,1.087860769049229 l -42.96377560857448 10.755725196768628" fill="#35ff64" stroke="none" /><path d="M 120.37134235888165 94.90015583598534 l 42.8542740669281 -10.728312138351669 a65.17675279082076,65.17675279082076 0 0,0 0.26308813438908085,1.0906701658656397 l -43.032595001577995 9.989056740826623" fill="#35ff63" stroke="none" /><path d="M 120.45610955862082 95.25157060432595 l 22.61691234064419 -5.250011547402898 a44.21825456558368,44.21825456558368 0 0,0 0.16572499196591495,0.7429126435778524 l -22.703931719612143 4.859920734275081" fill="#eaff1a" stroke="none" /><path d="M 120.53481517161879 95.60439243477599 l 35.63008749857998 -7.626846448309453 a57.4372326323303,57.4372326323303 0 0,0 0.19862534640256868,0.9685677294149256 l -35.75609214089755 7.012403062731116" fill="#53ff2b" stroke="none" /><path d="M 120.6074358757038 95.95851677861258 l 35.78400993664356 -7.017878237020929 a57.46568225188522,57.46568225188522 0 0,0 0.18201372642905678,0.9723246046507306 l -35.89950938698247 6.4008755549076355" fill="#53ff2b" stroke="none" /><path d="M 120.96714384426684 98.82574320788733 l 43.74203355073247 -2.449755692967817 a64.81057865525898,64.81057865525898 0 0,0 0.05279405471860245,1.1143990536071664 l -43.77772121368457 1.6964455327376506" fill="#34ff5f" stroke="none" /><path d="M 120.98425023603335 99.18683210126433 l 57.73478527792146 -2.2373005230267866 a78.77811821717658,78.77811821717658 0 0,0 0.04084572482656821,1.355470754359448 l -57.76474269720367 1.2431596212423395" fill="#46fff9" stroke="none" /><line stroke="#e1ed5e" stroke-width="0.3" x1="184.98032266829074" x2="189.97916517819016" y1="98.17113171792111" y2="98.06355123074" /><path d="M 185.9800911702706 98.14961562048488 a86.0,86.0 0 0,1 -9.607161424134198,41.387399972396054" fill="none" id="id40" stroke="none" /><text fill="#e1ed5e" style="font-size:6.75px; font-family:Arial;" text-anchor="middle"><textPath startOffset="21.466115282336823" xlink:href="#id40">April</textPath></text><path d="M 120.99513854157772 99.54816195383933 l 45.1522452831213 -0.97172506140365 a66.16270035883716,66.16270035883716 0 0,0 0.014703850078448178,1.138829392787126 l -45.162282140317465 0.19435941055606137" fill="#36ff6f" stroke="none" /><path d="M 120.99980553446 99.90962569577887 l 42.870732392203074 -0.1844975471338452 a63.871129390171056,63.871129390171056 0 0,0 -0.0047316423387996605,1.0994670424272812 l -42.867556452574775 -0.5534789734971207" fill="#33ff53" stroke="none" /><path d="M 120.99824983174949 100.27111621757518 l 44.70133338708585 0.5771555498949089 a65.70505916685684,65.70505916685684 0 0,0 -0.024335706260842322,1.1307846446197682 l -44.68477561814 -1.3465300103047921" fill="#35ff69" stroke="none" /><path d="M 120.9764740272857 100.99374915477107 l 3.1791209574476493 0.15060914242637258 a24.182686471499395,24.182686471499395 0 0,0 -0.023277158996751472,0.41562931059794544 l -3.1760574475633687 -0.20531016935974133" fill="#ff0000" stroke="none" /><path d="M 119.26925614724726 108.34839909993367 l 42.44348796885767 18.388627669360027 a67.25571638754413,67.25571638754413 0 0,0 -0.4693773733037915,1.0583220647923792 l -42.1206695108226 -19.116498070645093" fill="#37ff7c" stroke="none" /><path d="M 118.81262510543309 109.33194174019688 l 28.407070303612883 14.091235199623114 a52.71000713789737,52.71000713789737 0 0,0 -0.4101875943833544,0.8093390382255203 l -28.160304039443258 -14.578128449551329" fill="#87ff25" stroke="none" /><line stroke="#e1ed5e" stroke-width="0.3" x1="174.80103733775053" x2="179.2010983576182" y1="140.37084112569926" y2="142.7455964860345" /><path d="M 175.68104954172406 140.8457921977663 a86.0,86.0 0 0,1 -30.038265399797805,32.042727171017184" fill="none" id="id41" stroke="none" /><text fill="#e1ed5e" style="font-size:6.75px; font-family:Arial;" text-anchor="middle"><textPath startOffset="22.206326154141568" xlink:href="#id41">May</textPath></text><path d="M 113.20401910651253 116.32954008644616 l 10.016353480889952 12.38732270582176 a36.93025740131978,36.93025740131978 0 0,0 -0.4977539356887215,0.39544583031514313 l -9.80164205248388 -12.557902450142029" fill="#ffb610" stroke="none" /><line stroke="#e1ed5e" stroke-width="0.3" x1="143.8653032363475" x2="146.44561519142675" y1="172.8068346515853" y2="177.08958963109032" /><path d="M 144.38136562736335 173.6633856474863 a86.0,86.0 0 0,1 -40.68145358897372,12.25698825130547" fill="none" id="id42" stroke="none" /><text fill="#e1ed5e" style="font-size:6.75px; font-family:Arial;" text-anchor="middle"><textPath startOffset="21.466115282336833" xlink:href="#id42">June</textPath></text><path d="M 105.18746579009965 120.34920634021253 l 1.1597194973462466 4.549306405703153 a25.694799046338062,25.694799046338062 0 0,0 -0.42952737163810706,0.10556737759961482 l -1.0812388409649285 -4.568595041616798" fill="#ff1702" stroke="none" /><path d="M 104.83641907484287 120.43548508189849 l 6.136578192853799 25.929091373878055 a47.645363037345284,47.645363037345284 0 0,0 -0.7997157355012532,0.18201269774918563 l -5.689342307959683 -26.030880805204927" fill="#c1ff1e" stroke="none" /><path d="M 104.48393922423573 120.51570834832081 l 3.874085343934661 17.725397481544736 a39.14382134862559,39.14382134862559 0 0,0 -0.6594961059727016,0.1382038211671107 l -3.5683977765325814 -17.789457283438388" fill="#ffd313" stroke="none" /><path d="M 104.13013068566511 120.58985236759428 l 5.1218971103466755 25.5340843596243 a47.04272055860117,47.04272055860117 0 0,0 -0.7953185379503284,0.15242469067225428 l -4.681610957824643 -25.61846624864502" fill="#c8ff1d" stroke="none" /><line stroke="#e1ed5e" stroke-width="0.3" x1="102.19456741930631" x2="102.32365962044197" y1="184.97166512339345" y2="189.96999836594603" /><path d="M 102.22038585953345 185.97133177190398 a86.0,86.0 0 0,1 -42.740103519485714,-10.115201625700543" fill="none" id="id43" stroke="none" /><text fill="#e1ed5e" style="font-size:6.75px; font-family:Arial;" text-anchor="middle"><textPath startOffset="22.20632615414155" xlink:href="#id43">July</textPath></text><path d="M 97.65516085044442 120.86867818915974 l -3.3721743424257 30.011790430555138 a51.200647752047885,51.200647752047885 0 0,0 -0.874976590486453,-0.10594747985642429 l 3.8882783559635423 -29.949297421973363" fill="#98ff23" stroke="none" /><path d="M 96.22490169976321 120.6578951692458 l -5.135353052606972 28.10140997154087 a49.566783041909645,49.566783041909645 0 0,0 -0.8379911057798303,-0.1606029898583415 l 5.6183117729584975 -28.00884978333406" fill="#aaff21" stroke="none" /><path d="M 95.86986931433489 120.58985236759428 l -1.6507848155064129 8.229622311931728 a29.393555498366055,29.393555498366055 0 0,0 -0.4952233768700527,-0.10377887358982543 l 1.7921996538058524 -8.19998745761536" fill="#ff4d07" stroke="none" /><path d="M 95.51606077576429 120.51570834832081 l -9.567608014087023 43.77540501600425 a65.80876261878286,65.80876261878286 0 0,0 -1.1045839436432927,-0.25139970935663747 l 10.319712107123179 -43.60422857306993" fill="#36ff6b" stroke="none" /><path d="M 95.16358092515715 120.4354850818985 l -14.509257224528554 61.30645524569551 a84.0,84.0 0 0,0 -1.4041868610271577,-0.3451149667438802 l 15.562397370298923 -61.0476190206376" fill="#4dd2ff" stroke="none" /><path d="M 91.40352486487194 119.15986991738527 l -7.143143510456403 15.920676592467197 a38.44971181346295,38.44971181346295 0 0,0 -0.601521946868672,-0.2761292230189951 l 7.4161334530924945 -15.795360299114128" fill="#ffca12" stroke="none" /><path d="M 90.42595943632237 118.69057910512821 l -26.079791932030112 50.91334331715562 a78.20423126787509,78.20423126787509 0 0,0 -1.1928346064772515,-0.6240346892637894 l 26.95231744103386 -50.456879208947115" fill="#46fff3" stroke="none" /><line stroke="#e1ed5e" stroke-width="0.3" x1="58.666819895761336" x2="56.23545636021788" y1="174.27360380694188" y2="178.64263932499728" /><path d="M 58.180547188652646 175.14741091055294 a86.0,86.0 0 0,1 -31.652253787137756,-30.449443065178592" fill="none" id="id44" stroke="none" /><text fill="#e1ed5e" style="font-size:6.75px; font-family:Arial;" text-anchor="middle"><textPath startOffset="22.20632615414155" xlink:href="#id44">August</textPath></text><path d="M 89.1626897886671 117.98757091392108 l -8.067400587825766 13.390125163416984 a36.63260708059997,36.63260708059997 0 0,0 -0.5373145210253226,-0.33006246427590147 l 8.296694308783398 -13.249274232312704" fill="#ffb210" stroke="none" /><path d="M 88.54995079064634 117.60387380957326 l -29.296776439492497 45.04231781351593 a74.73184813273573,74.73184813273573 0 0,0 -1.0723141263007627,-0.7106713314100184 l 30.06776526453322 -44.53134846101459" fill="#41ffcf" stroke="none" /><path d="M 84.43433777217949 114.09645910891817 l -19.74400739749548 17.880420945247707 a47.637103470377724,47.637103470377724 0 0,0 -0.5451979165472247,-0.6125356388442431 l 20.048864163691043 -17.5379111366626" fill="#c1ff1e" stroke="none" /><line stroke="#e1ed5e" stroke-width="0.3" x1="26.63291911575756" x2="22.317208475507996" y1="142.92168965132927" y2="145.44649492493687" /><path d="M 25.769776987707644 143.4266507060508 a86.0,86.0 0 0,1 -11.730757126820373,-40.83630448921669" fill="none" id="id45" stroke="none" /><text fill="#e1ed5e" style="font-size:6.75px; font-family:Arial;" text-anchor="middle"><textPath startOffset="21.46611528233685" xlink:href="#id45">September</textPath></text><path d="M 80.58989483394504 108.01547362559985 l -26.42267400682716 10.911339470222536 a49.58697309449701,49.58697309449701 0 0,0 -0.31900335390265694,-0.7917401631117452 l 26.60657997498721 -10.454899939267985" fill="#aaff21" stroke="none" /><path d="M 80.45479744820244 107.68017299344265 l -25.690073849298503 10.094764219201387 a48.60224916603137,48.60224916603137 0 0,0 -0.2992642305614028,-0.781284472255 l 25.860032359453417 -9.65105618011323" fill="#b6ff1f" stroke="none" /><path d="M 80.32549172779594 107.34259656027581 l -25.423538629170288 9.488155165347496 a48.13634840708352,48.13634840708352 0 0,0 -0.28303196152736315,-0.7787824007327481 l 25.583094851702874 -9.04912496760863" fill="#bbff1f" stroke="none" /><path d="M 80.20201598880116 107.00284435728193 l -19.791446945541043 7.0005320989565885 a41.99306604254575,41.99306604254575 0 0,0 -0.23517950492428263,-0.6835417263960024 l 19.909017281408552 -6.658817669471289" fill="#fff817" stroke="none" /><line stroke="#e1ed5e" stroke-width="0.3" x1="15.007084014347285" x2="10.007500721073583" y1="101.09737516637583" y2="101.16192664675087" /><path d="M 14.007167355692545 101.11028546245083 a86.0,86.0 0 0,1 10.666146001902534,-42.60595125391555" fill="none" id="id46" stroke="none" /><text fill="#e1ed5e" style="font-size:6.75px; font-family:Arial;" text-anchor="middle"><textPath startOffset="22.20632615414155" xlink:href="#id46">October</textPath></text><line stroke="#e1ed5e" stroke-width="0.3" x1="26.266209847984243" x2="21.928928074336255" y1="57.711370442889674" y2="55.22380399835377" /><path d="M 25.398753493254645 57.213857153982495 a86.0,86.0 0 0,1 29.58750427330803,-30.492523968695096" fill="none" id="id47" stroke="none" /><text fill="#e1ed5e" style="font-size:6.75px; font-family:Arial;" text-anchor="middle"><textPath startOffset="21.46611528233685" xlink:href="#id47">November</textPath></text><line stroke="#e1ed5e" stroke-width="0.3" x1="56.762969772571076" x2="54.21961505331055" y1="26.818313649435495" y2="22.513508569990535" /><path d="M 56.25429882871897 25.957352633546506 a86.0,86.0 0 0,1 42.265352541879196,-11.944610805530505" fill="none" id="id48" stroke="none" /><text fill="#e1ed5e" style="font-size:6.75px; font-family:Arial;" text-anchor="middle"><textPath startOffset="22.20632615414155" xlink:href="#id48">December</textPath></text></svg>