<?xml version="1.0" encoding="utf-8" ?>
<svg baseProfile="full" height="200mm" version="1.1" viewBox="0,0,200,200" width="200mm" xmlns="http://www.w3.org/2000/svg" xmlns:ev="http://www.w3.org/2001/xml-events" xmlns:xlink="http://www.w3.org/1999/xlink"><defs /><rect fill="#1a1a1a" height="200" width="200" x="0" y="0" /><text alignment-baseline="middle" fill="#e1ed5e" style="dominant-baseline: central; font-size:9.0px; font-family:Arial;" text-anchor="middle" x="100.0" y="100.0">2023</text><line stroke="#e1ed5e" stroke-width="0.3" x1="100.0" x2="100.0" y1="15.0" y2="10.0" /><path d="M 100.0 14.0 a86.0,86.0 0 0,1 42.46469731375804,11.215312516191453" fill="none" id="id85" stroke="none" /><text fill="#e1ed5e" style="font-size:6.75px; font-family:Arial;" text-anchor="middle"><textPath startOffset="22.20632615414155" xlink:href="#id85">January</textPath></text><line stroke="#e1ed5e" stroke-width="0.3" x1="143.23703022742887" x2="145.7803849466894" y1="26.81831364943548" y2="22.513508569990506" /><path d="M 143.74570117128098 25.957352633546492 a86.0,86.0 0 0,1 28.547481713284135,27.462654790039103" fill="none" id="id86" stroke="none" /><text fill="#e1ed5e" style="font-size:6.75px; font-family:Arial;" text-anchor="middle"><textPath startOffset="19.985693538727396" xlink:href="#id86">February</textPath></text><path d="M 116.38621287248628 86.86637796730983 l 16.746712410315332 -13.4225640054114 a42.46200365840001,42.46200365840001 0 0,0 0.4522120880002539,0.5742634289037863 l -16.97527857890955 13.132308182554576" fill="#ffac0f" stroke="none" /><path d="M 117.45458315368197 88.32363383020206 l 32.98675779233538 -22.06672364195042 a60.68710725084927,60.68710725084927 0 0,0 0.5733583937601413,0.8732641695550558 l -33.36171282145345 21.495641408417693" fill="#56ff2a" stroke="none" /><path d="M 117.65298651832404 88.62581576622439 l 33.346555895134564 -21.485875487382753 a60.669076565085916,60.669076565085916 0 0,0 0.5580757787436098,0.8827418597842347 l -33.71145927012413 20.90868597988431" fill="#57ff2a" stroke="none" /><line stroke="#e1ed5e" stroke-width="0.3" x1="172.23445277983987" x2="176.4835382374775" y1="55.19839476539836" y2="52.563006222186495" /><path d="M 173.08426987136738 54.67131705675599 a86.0,86.0 0 0,1 12.851231095245387,41.99856678651699" fill="none" id="id87" stroke="none" /><text fill="#e1ed5e" style="font-size:6.75px; font-family:Arial;" text-anchor="middle"><textPath startOffset="22.20632615414155" xlink:href="#id87">March</textPath></text><path d="M 117.84615892207809 88.93136811851018 l 33.50759960970245 -20.782247145256346 a60.42919005014746,60.42919005014746 0 0,0 0.5406519110848579,0.8886895869752152 l -33.86036731907354 20.20238978507405" fill="#5aff2a" stroke="none" /><path d="M 118.03404312379186 89.2402003453031 l 33.88460330649771 -20.216849901828112 a60.45741199308139,60.45741199308139 0 0,0 0.5255197936142197,0.8982836770306625 l -34.22758277458225 19.630586812443553" fill="#59ff2a" stroke="none" /><path d="M 118.73160827565052 90.50648371742162 l 28.170485335024456 -14.277309095975252 a52.581922028794345,52.581922028794345 0 0,0 0.40222663207573467,0.8108643460628997 l -28.4120719800536 13.790285161413403" fill="#bfff1e" stroke="none" /><line stroke="#e1ed5e" stroke-width="0.3" x1="184.98032266829074" x2="189.97916517819016" y1="98.17113171792111" y2="98.06355123074" /><path d="M 185.9800911702706 98.14961562048488 a86.0,86.0 0 0,1 -9.607161424134198,41.387399972396054" fill="none" id="id88" stroke="none" /><text fill="#e1ed5e" style="font-size:6.75px; font-family:Arial;" text-anchor="middle"><textPath startOffset="21.466115282336823" xlink:href="#id88">April</textPath></text><path d="M 120.92983693683757 101.71520430193887 l 23.683481847221497 1.9408660503106294 a44.76287595037517,44.76287595037517 0 0,0 -0.06954318569905642,0.7674032592488883 l -23.646564065245364 -2.3482506981080884" fill="#ffcf13" stroke="none" /><path d="M 120.81339534386255 102.79330883721812 l 10.959257668025627 1.4708119837099716 a32.05751403008847,32.05751403008847 0 0,0 -0.07810729178086159,0.5462822167961293 l -10.932316325228165 -1.6592396724865102" fill="#ff0000" stroke="none" /><path d="M 120.76222939487914 103.15116336523771 l 39.035461141708 5.924561989727799 a60.48249816457822,60.48249816457822 0 0,0 -0.16508336603048648,1.027974277856218 l -38.92769602131622 -6.595615497277222" fill="#59ff2a" stroke="none" /><path d="M 120.70491114924044 103.5080841355445 l 44.44175732335876 7.529876496355447 a66.07514652265345,66.07514652265345 0 0,0 -0.19965252951532123,1.1197574138079789 l -44.305558351504246 -8.293752660896645" fill="#32ff4d" stroke="none" /><path d="M 120.64145759157962 103.86396538481128 l 39.05189219197599 7.310295746882361 a60.730224108109454,60.730224108109454 0 0,0 -0.20119075055257682,1.0258673025923422 l -38.92027150844775 -7.981426776542648" fill="#56ff2b" stroke="none" /><path d="M 120.13307415673323 105.97154293290107 l 32.58174400290714 9.663863631927427 a54.9847068924754,54.9847068924754 0 0,0 -0.2769480909914959,0.9050823854695116 l -32.41056913940952 -10.223272989948995" fill="#9fff22" stroke="none" /><line stroke="#e1ed5e" stroke-width="0.3" x1="174.80103733775053" x2="179.2010983576182" y1="140.37084112569926" y2="142.7455964860345" /><path d="M 175.68104954172406 140.8457921977663 a86.0,86.0 0 0,1 -30.038265399797805,32.042727171017184" fill="none" id="id89" stroke="none" /><text fill="#e1ed5e" style="font-size:6.75px; font-family:Arial;" text-anchor="middle"><textPath startOffset="22.206326154141568" xlink:href="#id89">May</textPath></text><line stroke="#e1ed5e" stroke-width="0.3" x1="143.8653032363475" x2="146.44561519142675" y1="172.8068346515853" y2="177.08958963109032" /><path d="M 144.38136562736335 173.6633856474863 a86.0,86.0 0 0,1 -40.68145358897372,12.25698825130547" fill="none" id="id90" stroke="none" /><text fill="#e1ed5e" style="font-size:6.75px; font-family:Arial;" text-anchor="middle"><textPath startOffset="21.466115282336833" xlink:href="#id90">June</textPath></text><line stroke="#e1ed5e" stroke-width="0.3" x1="102.19456741930631" x2="102.32365962044197" y1="184.97166512339345" y2="189.96999836594603" /><path d="M 102.22038585953345 185.97133177190398 a86.0,86.0 0 0,1 -42.740103519485714,-10.115201625700543" fill="none" id="id91" stroke="none" /><text fill="#e1ed5e" style="font-size:6.75px; font-family:Arial;" text-anchor="middle"><textPath startOffset="22.20632615414155" xlink:href="#id91">July</textPath></text><line stroke="#e1ed5e" stroke-width="0.3" x1="58.666819895761336" x2="56.23545636021788" y1="174.27360380694188" y2="178.64263932499728" /><path d="M 58.180547188652646 175.14741091055294 a86.0,86.0 0 0,1 -31.652253787137756,-30.449443065178592" fill="none" id="id92" stroke="none" /><text fill="#e1ed5e" style="font-size:6.75px; font-family:Arial;" text-anchor="middle"><textPath startOffset="22.20632615414155" xlink:href="#id92">August</textPath></text><path d="M 87.95078237400918 117.19931262002967 l -23.248604291164902 33.18555823247716 a61.51887062454115,61.51887062454115 0 0,0 -0.8620629736382066,-0.6150590424993101 l 23.816394592651996 -32.780454928133636" fill="#4cff2c" stroke="none" /><path d="M 87.07902340077011 116.55440617244103 l -38.76292979768965 49.663218517323095 a84.0,84.0 0 0,0 -1.1321700291305676,-0.8994643439794774 l 39.61205731953757 -48.98862025933849" fill="#4dd2ff" stroke="none" /><path d="M 86.51685102203217 116.09983520530335 l -26.262468955492988 31.359248715470272 a61.903786568445675,61.903786568445675 0 0,0 -0.8110413721707098,-0.6911870525306936 l 26.798375804240756 -30.90253727271663" fill="#48ff2c" stroke="none" /><line stroke="#e1ed5e" stroke-width="0.3" x1="26.63291911575756" x2="22.317208475507996" y1="142.92168965132927" y2="145.44649492493687" /><path d="M 25.769776987707644 143.4266507060508 a86.0,86.0 0 0,1 -11.730757126820373,-40.83630448921669" fill="none" id="id93" stroke="none" /><text fill="#e1ed5e" style="font-size:6.75px; font-family:Arial;" text-anchor="middle"><textPath startOffset="21.46611528233685" xlink:href="#id93">September</textPath></text><line stroke="#e1ed5e" stroke-width="0.3" x1="15.007084014347285" x2="10.007500721073583" y1="101.09737516637583" y2="101.16192664675087" /><path d="M 14.007167355692545 101.11028546245083 a86.0,86.0 0 0,1 10.666146001902534,-42.60595125391555" fill="none" id="id94" stroke="none" /><text fill="#e1ed5e" style="font-size:6.75px; font-family:Arial;" text-anchor="middle"><textPath startOffset="22.20632615414155" xlink:href="#id94">October</textPath></text><line stroke="#e1ed5e" stroke-width="0.3" x1="26.266209847984243" x2="21.928928074336255" y1="57.711370442889674" y2="55.22380399835377" /><path d="M 25.398753493254645 57.213857153982495 a86.0,86.0 0 0,1 29.58750427330803,-30.492523968695096" fill="none" id="id95" stroke="none" /><text fill="#e1ed5e" style="font-size:6.75px; font-family:Arial;" text-anchor="middle"><textPath startOffset="21.46611528233685" xlink:href="#id95">November</textPath></text><path d="M 82.34701348167596 88.62581576622439 l -45.51954471958668 -29.32918389422306 a75.15006906163283,75.15006906163283 0 0,0 0.7100012645196483,-1.0813806362502971 l 45.00794681970912 30.108382594451026" fill="#40ffc5" stroke="none" /><path d="M 83.6137871275137 86.86637796730984 l -45.46209103753648 -36.43806687665465 a79.26263330139491,79.26263330139491 0 0,0 0.8624586300649849,-1.0572723022033481 l 44.82813391539511 37.21522334846608" fill="#46fff7" stroke="none" /><path d="M 85.57189188830299 84.74124197986013 l -21.362892825090114 -22.592789692500563 a52.09352562746538,52.09352562746538 0 0,0 0.6568549948325454,-0.610475131053431 l 20.97082994646271 22.957169409628644" fill="#c6ff1e" stroke="none" /><line stroke="#e1ed5e" stroke-width="0.3" x1="56.762969772571076" x2="54.21961505331055" y1="26.818313649435495" y2="22.513508569990535" /><path d="M 56.25429882871897 25.957352633546506 a86.0,86.0 0 0,1 42.265352541879196,-11.944610805530505" fill="none" id="id96" stroke="none" /><text fill="#e1ed5e" style="font-size:6.75px; font-family:Arial;" text-anchor="middle"><textPath startOffset="22.20632615414155" xlink:href="#id96">December</textPath></text></svg>