<?xml version="1.0" encoding="utf-8" ?>
<svg baseProfile="full" height="200mm" version="1.1" viewBox="0,0,200,200" width="200mm" xmlns="http://www.w3.org/2000/svg" xmlns:ev="http://www.w3.org/2001/xml-events" xmlns:xlink="http://www.w3.org/1999/xlink"><defs /><rect fill="#1a1a1a" height="200" width="200" x="0" y="0" /><text alignment-baseline="middle" fill="#e1ed5e" style="dominant-baseline: central; font-size:9.0px; font-family:Arial;" text-anchor="middle" x="100.0" y="100.0">2018</text><line stroke="#e1ed5e" stroke-width="0.3" x1="100.0" x2="100.0" y1="15.0" y2="10.0" /><path d="M 100.0 14.0 a86.0,86.0 0 0,1 42.46469731375804,11.215312516191453" fill="none" id="id25" stroke="none" /><text fill="#e1ed5e" style="font-size:6.75px; font-family:Arial;" text-anchor="middle"><textPath startOffset="22.20632615414155" xlink:href="#id25">January</textPath></text><line stroke="#e1ed5e" stroke-width="0.3" x1="143.23703022742887" x2="145.7803849466894" y1="26.81831364943548" y2="22.513508569990506" /><path d="M 143.74570117128098 25.957352633546492 a86.0,86.0 0 0,1 28.547481713284135,27.462654790039103" fill="none" id="id26" stroke="none" /><text fill="#e1ed5e" style="font-size:6.75px; font-family:Arial;" text-anchor="middle"><textPath startOffset="19.985693538727396" xlink:href="#id26">February</textPath></text><line stroke="#e1ed5e" stroke-width="0.3" x1="172.23445277983987" x2="176.4835382374775" y1="55.19839476539836" y2="52.563006222186495" /><path d="M 173.08426987136738 54.67131705675599 a86.0,86.0 0 0,1 12.851231095245387,41.99856678651699" fill="none" id="id27" stroke="none" /><text fill="#e1ed5e" style="font-size:6.75px; font-family:Arial;" text-anchor="middle"><textPath startOffset="22.20632615414155" xlink:href="#id27">March</textPath></text><line stroke="#e1ed5e" stroke-width="0.3" x1="184.98032266829074" x2="189.97916517819016" y1="98.17113171792111" y2="98.06355123074" /><path d="M 185.9800911702706 98.14961562048488 a86.0,86.0 0 0,1 -9.607161424134198,41.387399972396054" fill="none" id="id28" stroke="none" /><text fill="#e1ed5e" style="font-size:6.75px; font-family:Arial;" text-anchor="middle"><textPath startOffset="21.466115282336823" xlink:href="#id28">April</textPath></text><line stroke="#e1ed5e" stroke-width="0.3" x1="174.80103733775053" x2="179.2010983576182" y1="140.37084112569926" y2="142.7455964860345" /><path d="M 175.68104954172406 140.8457921977663 a86.0,86.0 0 0,1 -30.038265399797805,32.042727171017184" fill="none" id="id29" stroke="none" /><text fill="#e1ed5e" style="font-size:6.75px; font-family:Arial;" text-anchor="middle"><textPath startOffset="22.206326154141568" xlink:href="#id29">May</textPath></text><line stroke="#e1ed5e" stroke-width="0.3" x1="143.8653032363475" x2="146.44561519142675" y1="172.8068346515853" y2="177.08958963109032" /><path d="M 144.38136562736335 173.6633856474863 a86.0,86.0 0 0,1 -40.68145358897372,12.25698825130547" fill="none" id="id30" stroke="none" /><text fill="#e1ed5e" style="font-size:6.75px; font-family:Arial;" text-anchor="middle"><textPath startOffset="21.466115282336833" xlink:href="#id30">June</textPath></text><line stroke="#e1ed5e" stroke-width="0.3" x1="102.19456741930631" x2="102.32365962044197" y1="184.97166512339345" y2="189.96999836594603" /><path d="M 102.22038585953345 185.97133177190398 a86.0,86.0 0 0,1 -42.740103519485714,-10.115201625700543" fill="none" id="id31" stroke="none" /><text fill="#e1ed5e" style="font-size:6.75px; font-family:Arial;" text-anchor="middle"><textPath startOffset="22.20632615414155" xlink:href="#id31">July</textPath></text><path d="M 95.86986931433489 120.58985236759428 l -5.338366140894294 26.613242798024686 a48.14337571638538,48.14337571638538 0 0,0 -0.8111208287652505,-0.16997825604785938 l 5.795678431088932 -26.517408561250285" fill="#dcff1b" stroke="none" /><path d="M 95.16358092515715 120.4354850818985 l -7.052755334151908 29.800245633599168 a51.62345502431518,51.62345502431518 0 0,0 -0.8629640150710689,-0.21209555909429437 l 7.564672633966188 -29.674428816190844" fill="#afff20" stroke="none" /><path d="M 94.81253420990036 120.34920634021253 l -7.569738468556084 29.694300891983985 a51.64396263452262,51.64396263452262 0 0,0 -0.859526595802476,-0.22700878606709668 l 8.079755507170049 -29.559600756613307" fill="#afff20" stroke="none" /><path d="M 94.46302465271185 120.25689768951611 l -8.064844883756358 29.50505058182772 a51.58741134576876,51.58741134576876 0 0,0 -0.8545548821599698,-0.24150574561640856 l 8.571530934020942 -29.36185604287279" fill="#afff20" stroke="none" /><path d="M 94.11515582081647 120.15858648285463 l -8.73679673768583 29.927975534638055 a52.17716049991615,52.17716049991615 0 0,0 -0.8599914767461367,-0.25910837732595576 l 9.250663188872213 -29.773151788206373" fill="#a8ff21" stroke="none" /><path d="M 92.40401165467489 119.57807347666478 l -11.55009526266827 29.769478761004954 a52.93159197845665,52.93159197845665 0 0,0 -0.8466002931959731,-0.33687972850148884 l 12.060816631906102 -29.5662521880974" fill="#9fff22" stroke="none" /><path d="M 92.06813273071674 119.44442032107085 l -11.569304847323426 28.361345271765607 a51.630290894384316,51.630290894384316 0 0,0 -0.8200083603678793,-0.3427635611384219 l 12.05578466718877 -28.15799666760721" fill="#afff20" stroke="none" /><path d="M 91.7346041902142 119.30500536409082 l -12.065568419885873 28.180848011044983 a51.65514860372667,51.65514860372667 0 0,0 -0.8143786547702782,-0.3569996698687297 l 12.548867749313894 -27.968983787881804" fill="#afff20" stroke="none" /><path d="M 90.7491055286396 118.85261126421891 l -7.276740067566522 14.829436460366828 a37.518569300728956,37.518569300728956 0 0,0 -0.577332336136386,-0.2894864185614804 l 7.530926311385669 -14.701982200896046" fill="#ff8e0d" stroke="none" /><path d="M 90.42595943632237 118.69057910512821 l -4.03560868211796 7.878373066083418 a29.851830296812885,29.851830296812885 0 0,0 -0.45532442001449286,-0.2382042165905068 l 4.170624004658948 -7.807739430548194" fill="#ff1802" stroke="none" /><line stroke="#e1ed5e" stroke-width="0.3" x1="58.666819895761336" x2="56.23545636021788" y1="174.27360380694188" y2="178.64263932499728" /><path d="M 58.180547188652646 175.14741091055294 a86.0,86.0 0 0,1 -31.652253787137756,-30.449443065178592" fill="none" id="id32" stroke="none" /><text fill="#e1ed5e" style="font-size:6.75px; font-family:Arial;" text-anchor="middle"><textPath startOffset="22.20632615414155" xlink:href="#id32">August</textPath></text><path d="M 89.7882731507175 118.34994917583269 l -11.108225749019258 19.960911698544066 a43.84361344289138,43.84361344289138 0 0,0 -0.6562997118287067,-0.3726641047466656 l 11.450174227769173 -19.766744428002767" fill="#ffe915" stroke="none" /><path d="M 88.54995079064634 117.60387380957326 l -17.374139792817473 26.711864627864664 a52.86509760596586,52.86509760596586 0 0,0 -0.758551974393285,-0.5027268860529518 l 17.831366465950722 -26.408839720720394" fill="#a0ff22" stroke="none" /><path d="M 88.24862548938628 117.40417183066458 l -4.138604655419288 6.129409499888704 a28.395789972084394,28.395789972084394 0 0,0 -0.40273764518474797,-0.2770066247159803 l 4.243499185226925 -6.057262085807622" fill="#ff0000" stroke="none" /><path d="M 87.95078237400918 117.19931262002967 l -36.14765287797246 51.59793786008904 a84.0,84.0 0 0,0 -1.1770906886044523,-0.8398229526231229 l 37.030470894425804 -50.968070645621694" fill="#4dd2ff" stroke="none" /><path d="M 87.36589467227662 116.77436683061367 l -19.038083906398935 25.27696223152229 a52.64448543555244,52.64448543555244 0 0,0 -0.7191519273668118,-0.5514150316935104 l 19.470364562259235 -24.945507858001413" fill="#a2ff22" stroke="none" /><path d="M 86.79598089348748 116.32954008644616 l -19.813257351290645 24.503249923456767 a52.51149669057084,52.51149669057084 0 0,0 -0.6979774914840494,-0.5743879574256725 l 20.23210497131938 -24.158566847173912" fill="#a4ff21" stroke="none" /><line stroke="#e1ed5e" stroke-width="0.3" x1="26.63291911575756" x2="22.317208475507996" y1="142.92168965132927" y2="145.44649492493687" /><path d="M 25.769776987707644 143.4266507060508 a86.0,86.0 0 0,1 -11.730757126820373,-40.83630448921669" fill="none" id="id33" stroke="none" /><text fill="#e1ed5e" style="font-size:6.75px; font-family:Arial;" text-anchor="middle"><textPath startOffset="21.46611528233685" xlink:href="#id33">September</textPath></text><line stroke="#e1ed5e" stroke-width="0.3" x1="15.007084014347285" x2="10.007500721073583" y1="101.09737516637583" y2="101.16192664675087" /><path d="M 14.007167355692545 101.11028546245083 a86.0,86.0 0 0,1 10.666146001902534,-42.60595125391555" fill="none" id="id34" stroke="none" /><text fill="#e1ed5e" style="font-size:6.75px; font-family:Arial;" text-anchor="middle"><textPath startOffset="22.20632615414155" xlink:href="#id34">October</textPath></text><line stroke="#e1ed5e" stroke-width="0.3" x1="26.266209847984243" x2="21.928928074336255" y1="57.711370442889674" y2="55.22380399835377" /><path d="M 25.398753493254645 57.213857153982495 a86.0,86.0 0 0,1 29.58750427330803,-30.492523968695096" fill="none" id="id35" stroke="none" /><text fill="#e1ed5e" style="font-size:6.75px; font-family:Arial;" text-anchor="middle"><textPath startOffset="21.46611528233685" xlink:href="#id35">November</textPath></text><line stroke="#e1ed5e" stroke-width="0.3" x1="56.762969772571076" x2="54.21961505331055" y1="26.818313649435495" y2="22.513508569990535" /><path d="M 56.25429882871897 25.957352633546506 a86.0,86.0 0 0,1 42.265352541879196,-11.944610805530505" fill="none" id="id36" stroke="none" /><text fill="#e1ed5e" style="font-size:6.75px; font-family:Arial;" text-anchor="middle"><textPath startOffset="22.20632615414155" xlink:href="#id36">December</textPath></text></svg>