<?xml version="1.0" encoding="utf-8" ?>
<svg baseProfile="full" height="200mm" version="1.1" viewBox="0,0,200,200" width="200mm" xmlns="http://www.w3.org/2000/svg" xmlns:ev="http://www.w3.org/2001/xml-events" xmlns:xlink="http://www.w3.org/1999/xlink"><defs /><rect fill="#1a1a1a" height="200" width="200" x="0" y="0" /><text alignment-baseline="middle" fill="#e1ed5e" style="dominant-baseline: central; font-size:9.0px; font-family:Arial;" text-anchor="middle" x="100.0" y="100.0">2025</text><line stroke="#e1ed5e" stroke-width="0.3" x1="100.0" x2="100.0" y1="15.0" y2="10.0" /><path d="M 100.0 14.0 a86.0,86.0 0 0,1 42.46469731375804,11.215312516191453" fill="none" id="id109" stroke="none" /><text fill="#e1ed5e" style="font-size:6.75px; font-family:Arial;" text-anchor="middle"><textPath startOffset="22.20632615414155" xlink:href="#id109">January</textPath></text><path d="M 105.71112130821622 79.79150937346287 l 3.502730282946408 -12.394219675981427 a33.879666176246765,33.879666176246765 0 0,0 0.5598369325439219,0.16343175234906077 l -3.7155574332137573 12.332089594713661" fill="#ff8c0c" stroke="none" /><path d="M 106.0581310904928 79.89281104454417 l 3.7571415809761075 -12.47010910999311 a34.02381411394653,34.02381411394653 0 0,0 0.5593103956336122,0.17378046250686177 l -3.971237349320438 12.403588512603728" fill="#ff8e0d" stroke="none" /><path d="M 106.74666289553966 80.11325718540242 l 6.608724427328885 -19.480149676031157 a41.5706458322764,41.5706458322764 0 0,0 0.6756575964413336,0.23572366851370488 l -6.943064027833492 19.363505154345248" fill="#fff216" stroke="none" /><path d="M 107.08798089147638 80.2323363322302 l 7.350197707775125 -20.498959915881894 a42.77688600273959,42.77688600273959 0 0,0 0.6909845609781405,0.25449544526684065 l -7.701964594525842 20.36940120280873" fill="#fdff18" stroke="none" /><line stroke="#e1ed5e" stroke-width="0.3" x1="143.23703022742887" x2="145.7803849466894" y1="26.81831364943548" y2="22.513508569990506" /><path d="M 143.74570117128098 25.957352633546492 a86.0,86.0 0 0,1 28.547481713284135,27.462654790039103" fill="none" id="id110" stroke="none" /><text fill="#e1ed5e" style="font-size:6.75px; font-family:Arial;" text-anchor="middle"><textPath startOffset="19.985693538727396" xlink:href="#id110">February</textPath></text><path d="M 113.06298171725822 83.55741782278167 l 9.68003328877076 -12.184411359815417 a36.561584901831466,36.561584901831466 0 0,0 0.4893970123333637,0.39572501535934035 l -9.888333699668614 12.015980247191948" fill="#ffb010" stroke="none" /><path d="M 114.42810811169701 84.74124197986012 l 2.2339375549737763 -2.3625490133258027 a24.251478869666684,24.251478869666684 0 0,0 0.30085317203464484,0.28942051313167255 l -2.2742739706208392 2.3237454134318285" fill="#ff0000" stroke="none" /><path d="M 114.94478906791727 85.2469230424477 l 7.025741637610905 -6.935615256428522 a30.8723758307544,30.8723758307544 0 0,0 0.3700800124280619,0.3813999837586179 l -7.144085913742076 6.813651077119791" fill="#ff6109" stroke="none" /><path d="M 116.38621287248628 86.86637796730983 l 14.766795152654552 -11.835651573571889 a39.924610623509714,39.924610623509714 0 0,0 0.4251893452296581,0.5399472897876232 l -14.968338578478173 11.579711889831227" fill="#ffdd14" stroke="none" /><path d="M 116.60985879189232 87.15038557335679 l 16.14512655488108 -12.490091198177193 a41.412434681142514,41.412434681142514 0 0,0 0.43132837326967666,0.56757757947929 l -16.357730868374873 12.21032884281687" fill="#fff016" stroke="none" /><path d="M 116.82858285166822 87.43820079747576 l 7.7804555012702314 -5.807768875882688 a30.70905078382629,30.70905078382629 0 0,0 0.31255582317720976,0.4263257915564151 l -7.879273936961067 5.67298064065478" fill="#ff5f08" stroke="none" /><path d="M 117.04232023915458 87.72973835380427 l 17.968230682263034 -12.936905814269963 a43.140931459591094,43.140931459591094 0 0,0 0.4287127602629674,0.606383796089226 l -18.188256062329884 12.625695517848943" fill="#f8ff18" stroke="none" /><path d="M 117.2510076193507 88.02491185347247 l 18.061702579413843 -12.53784620802256 a42.98687534879002,42.98687534879002 0 0,0 0.4167179103981658,0.6114821132199615 l -18.27484495548074 12.225086071532193" fill="#faff18" stroke="none" /><path d="M 117.65298651832404 88.62581576622439 l 52.95895955497212 -34.12255270132683 a84.0,84.0 0 0,0 0.7726896150161773,1.2222094091431752 l -53.538476766234254 33.20589564446945" fill="#4dd2ff" stroke="none" /><line stroke="#e1ed5e" stroke-width="0.3" x1="172.23445277983987" x2="176.4835382374775" y1="55.19839476539836" y2="52.563006222186495" /><path d="M 173.08426987136738 54.67131705675599 a86.0,86.0 0 0,1 12.851231095245387,41.99856678651699" fill="none" id="id111" stroke="none" /><text fill="#e1ed5e" style="font-size:6.75px; font-family:Arial;" text-anchor="middle"><textPath startOffset="22.20632615414155" xlink:href="#id111">March</textPath></text><path d="M 117.84615892207809 88.93136811851018 l 19.363322359028327 -12.009614401088644 a43.78528232966364,43.78528232966364 0 0,0 0.3917410865391027,0.6439193448869833 l -19.56717924385365 11.674527282994578" fill="#f0ff19" stroke="none" /><line stroke="#e1ed5e" stroke-width="0.3" x1="184.98032266829074" x2="189.97916517819016" y1="98.17113171792111" y2="98.06355123074" /><path d="M 185.9800911702706 98.14961562048488 a86.0,86.0 0 0,1 -9.607161424134198,41.387399972396054" fill="none" id="id112" stroke="none" /><text fill="#e1ed5e" style="font-size:6.75px; font-family:Arial;" text-anchor="middle"><textPath startOffset="21.466115282336823" xlink:href="#id112">April</textPath></text><line stroke="#e1ed5e" stroke-width="0.3" x1="174.80103733775053" x2="179.2010983576182" y1="140.37084112569926" y2="142.7455964860345" /><path d="M 175.68104954172406 140.8457921977663 a86.0,86.0 0 0,1 -30.038265399797805,32.042727171017184" fill="none" id="id113" stroke="none" /><text fill="#e1ed5e" style="font-size:6.75px; font-family:Arial;" text-anchor="middle"><textPath startOffset="22.206326154141568" xlink:href="#id113">May</textPath></text><line stroke="#e1ed5e" stroke-width="0.3" x1="143.8653032363475" x2="146.44561519142675" y1="172.8068346515853" y2="177.08958963109032" /><path d="M 144.38136562736335 173.6633856474863 a86.0,86.0 0 0,1 -40.68145358897372,12.25698825130547" fill="none" id="id114" stroke="none" /><text fill="#e1ed5e" style="font-size:6.75px; font-family:Arial;" text-anchor="middle"><textPath startOffset="21.466115282336833" xlink:href="#id114">June</textPath></text><line stroke="#e1ed5e" stroke-width="0.3" x1="102.19456741930631" x2="102.32365962044197" y1="184.97166512339345" y2="189.96999836594603" /><path d="M 102.22038585953345 185.97133177190398 a86.0,86.0 0 0,1 -42.740103519485714,-10.115201625700543" fill="none" id="id115" stroke="none" /><text fill="#e1ed5e" style="font-size:6.75px; font-family:Arial;" text-anchor="middle"><textPath startOffset="22.20632615414155" xlink:href="#id115">July</textPath></text><line stroke="#e1ed5e" stroke-width="0.3" x1="58.666819895761336" x2="56.23545636021788" y1="174.27360380694188" y2="178.64263932499728" /><path d="M 58.180547188652646 175.14741091055294 a86.0,86.0 0 0,1 -31.652253787137756,-30.449443065178592" fill="none" id="id116" stroke="none" /><text fill="#e1ed5e" style="font-size:6.75px; font-family:Arial;" text-anchor="middle"><textPath startOffset="22.20632615414155" xlink:href="#id116">August</textPath></text><line stroke="#e1ed5e" stroke-width="0.3" x1="26.63291911575756" x2="22.317208475507996" y1="142.92168965132927" y2="145.44649492493687" /><path d="M 25.769776987707644 143.4266507060508 a86.0,86.0 0 0,1 -11.730757126820373,-40.83630448921669" fill="none" id="id117" stroke="none" /><text fill="#e1ed5e" style="font-size:6.75px; font-family:Arial;" text-anchor="middle"><textPath startOffset="21.46611528233685" xlink:href="#id117">September</textPath></text><line stroke="#e1ed5e" stroke-width="0.3" x1="15.007084014347285" x2="10.007500721073583" y1="101.09737516637583" y2="101.16192664675087" /><path d="M 14.007167355692545 101.11028546245083 a86.0,86.0 0 0,1 10.666146001902534,-42.60595125391555" fill="none" id="id118" stroke="none" /><text fill="#e1ed5e" style="font-size:6.75px; font-family:Arial;" text-anchor="middle"><textPath startOffset="22.20632615414155" xlink:href="#id118">October</textPath></text><line stroke="#e1ed5e" stroke-width="0.3" x1="26.266209847984243" x2="21.928928074336255" y1="57.711370442889674" y2="55.22380399835377" /><path d="M 25.398753493254645 57.213857153982495 a86.0,86.0 0 0,1 29.58750427330803,-30.492523968695096" fill="none" id="id119" stroke="none" /><text fill="#e1ed5e" style="font-size:6.75px; font-family:Arial;" text-anchor="middle"><textPath startOffset="21.46611528233685" xlink:href="#id119">November</textPath></text><line stroke="#e1ed5e" stroke-width="0.3" x1="56.762969772571076" x2="54.21961505331055" y1="26.818313649435495" y2="22.513508569990535" /><path d="M 56.25429882871897 25.957352633546506 a86.0,86.0 0 0,1 42.265352541879196,-11.944610805530505" fill="none" id="id120" stroke="none" /><text fill="#e1ed5e" style="font-size:6.75px; font-family:Arial;" text-anchor="middle"><textPath startOffset="22.20632615414155" xlink:href="#id120">December</textPath></text></svg>