<?xml version="1.0" encoding="utf-8" ?>
<svg baseProfile="full" height="200mm" version="1.1" viewBox="0,0,200,200" width="200mm" xmlns="http://www.w3.org/2000/svg" xmlns:ev="http://www.w3.org/2001/xml-events" xmlns:xlink="http://www.w3.org/1999/xlink"><defs /><rect fill="#1a1a1a" height="200" width="200" x="0" y="0" /><text alignment-baseline="middle" fill="#e1ed5e" style="dominant-baseline: central; font-size:9.0px; font-family:Arial;" text-anchor="middle" x="100.0" y="100.0">2024</text><line stroke="#e1ed5e" stroke-width="0.3" x1="100.0" x2="100.0" y1="15.0" y2="10.0" /><path d="M 100.0 14.0 a86.0,86.0 0 0,1 42.35913384403234,11.155469271406648" fill="none" id="id97" stroke="none" /><text fill="#e1ed5e" style="font-size:6.75px; font-family:Arial;" text-anchor="middle"><textPath startOffset="22.145653131862478" xlink:href="#id97">January</textPath></text><path d="M 100.72087961077811 79.0123766808444 l 0.23273876347218192 -6.775935158226713 a27.779931017386197,27.779931017386197 0 0,0 0.4764578821308719,0.020461151530788483 l -0.3490224062038901 6.770941438270094" fill="#ff4c07" stroke="none" /><path d="M 103.23170211078529 79.25015418208739 l 2.2656855812328107 -14.547326724685208 a35.7227051178697,35.7227051178697 0 0,0 0.6051128505822603,0.09957108929086574 l -2.5150759348681415 14.506289636898673" fill="#ffb711" stroke="none" /><line stroke="#e1ed5e" stroke-width="0.3" x1="143.13028292997686" x2="145.6673583964461" y1="26.7553504044142" y2="22.446841604673864" /><path d="M 143.63769802327073 25.89364864446614 a86.0,86.0 0 0,1 29.32050498858742,28.57503671076993" fill="none" id="id98" stroke="none" /><text fill="#e1ed5e" style="font-size:6.75px; font-family:Arial;" text-anchor="middle"><textPath startOffset="20.669276256404974" xlink:href="#id98">February</textPath></text><line stroke="#e1ed5e" stroke-width="0.3" x1="172.87174338648825" x2="177.1583165268699" y1="56.24261187166439" y2="53.66864786411523" /><path d="M 173.72905801456457 55.72781907015455 a86.0,86.0 0 0,1 12.242430191666344,42.057860355516425" fill="none" id="id99" stroke="none" /><text fill="#e1ed5e" style="font-size:6.75px; font-family:Arial;" text-anchor="middle"><textPath startOffset="22.145653131862474" xlink:href="#id99">March</textPath></text><path d="M 120.51834098615036 95.52812308129327 l 18.935958813838635 -4.127004089187513 a40.380472103423166,40.380472103423166 0 0,0 0.14179754528091526,0.6785525854584141 l -19.004014069943917 3.801335052443694" fill="#fff216" stroke="none" /><path d="M 120.592083275326 95.88100663000786 l 19.095297199494723 -3.8195942348869987 a40.473563496602594,40.473563496602594 0 0,0 0.13042838601755463,0.6824564294337263 l -19.158051877794435 3.491235240419958" fill="#fff316" stroke="none" /><line stroke="#e1ed5e" stroke-width="0.3" x1="184.99686870605535" x2="189.99668451229388" y1="99.2704041080226" y2="99.22748670261217" /><path d="M 185.99683186730306 99.26182062694052 a86.0,86.0 0 0,1 -10.086455211305974,41.156179273409016" fill="none" id="id100" stroke="none" /><text fill="#e1ed5e" style="font-size:6.75px; font-family:Arial;" text-anchor="middle"><textPath startOffset="21.40746469413373" xlink:href="#id100">April</textPath></text><path d="M 120.93736805541906 101.62068470465957 l 51.5111411322475 3.98728810286098 a72.66523131818474,72.66523131818474 0 0,0 -0.10694376456551234,1.2428486512891037 l -51.43510374498425 -4.8709578015257415" fill="#3fffbc" stroke="none" /><path d="M 120.7213421655516 103.40968896794604 l 6.132154687821364 1.009043720322471 a27.214619082847456,27.214619082847456 0 0,0 -0.07981034681411825,0.46032487164951114 l -6.113929523515012 -1.11416162489257" fill="#ff4406" stroke="none" /><line stroke="#e1ed5e" stroke-width="0.3" x1="174.33088141563837" x2="178.70328620479359" y1="141.23008692659167" y2="143.65538615756765" /><path d="M 175.20536237346943 141.71514677278685 a86.0,86.0 0 0,1 -30.301960400862466,31.631185727798858" fill="none" id="id101" stroke="none" /><text fill="#e1ed5e" style="font-size:6.75px; font-family:Arial;" text-anchor="middle"><textPath startOffset="22.145653131862474" xlink:href="#id101">May</textPath></text><path d="M 116.79662413953412 112.60449989151573 l 3.943822941689351 2.959518259605438 a25.930769486026826,25.930769486026826 0 0,0 -0.2702332203665862,0.35374396006277575 l -3.8924377439684603 -3.026783132909091" fill="#ff3104" stroke="none" /><path d="M 116.57777611688842 112.89097897827486 l 4.890884526608015 3.803181390140984 a27.195558097454047,27.195558097454047 0 0,0 -0.2897409182780083,0.36607818515522905 l -4.824877177688445 -3.886579519210896" fill="#ff4306" stroke="none" /><path d="M 112.16784306229584 117.11559508785304 l 3.237985873281494 4.554632634850696 a26.588311995049803,26.588311995049803 0 0,0 -0.3742683591971601,0.26126838186520884 l -3.1593224229105754 -4.609545832521027" fill="#ff3b05" stroke="none" /><path d="M 111.8722381534696 117.32195027204791 l 4.560762059400934 6.654288144691413 a29.06722388898757,29.06722388898757 0 0,0 -0.41400545523388765,0.2785613467577801 l -4.445860316070043 -6.7315991655063145" fill="#ff5e08" stroke="none" /><path d="M 111.27062007382361 117.71928675628689 l 4.674034953971267 7.34835928421353 a29.70890273919926,29.70890273919926 0 0,0 -0.432668959616411,0.2700174308585347 l -4.547201865565142 -7.427512511913613" fill="#ff6709" stroke="none" /><path d="M 110.96478420261333 117.91015095944535 l 14.839292042400489 24.238868335169315 a49.420544092070514,49.420544092070514 0 0,0 -0.7273462539032332,0.4367505271135892 l -14.421013031939818 -24.49003286281883" fill="#a1ff22" stroke="none" /><line stroke="#e1ed5e" stroke-width="0.3" x1="143.1302829299769" x2="145.66735839644613" y1="173.24464959558577" y2="177.55315839532614" /><path d="M 143.63769802327073 174.10635135553383 a86.0,86.0 0 0,1 -40.68552437913181,11.842963189579606" fill="none" id="id102" stroke="none" /><text fill="#e1ed5e" style="font-size:6.75px; font-family:Arial;" text-anchor="middle"><textPath startOffset="21.407464694133747" xlink:href="#id102">June</textPath></text><path d="M 109.71004243097381 118.62028667847754 l 9.253580236012738 17.744960232843273 a41.01280492208713,41.01280492208713 0 0,0 -0.6270521534120657,0.3201772974556832 l -8.947600860887091 -17.901195481971794" fill="#fffa17" stroke="none" /><path d="M 109.3889696526874 118.78422872680471 l 9.469040252337582 18.94442356327338 a42.17909127996518,42.17909127996518 0 0,0 -0.6504412574503021,0.31816341304600887 l -9.14243874562521 -19.10418072641661" fill="#f6ff19" stroke="none" /><path d="M 109.06512990194946 118.94263497670748 l 10.905377655081576 22.78804500737801 a46.26306111812736,46.26306111812736 0 0,0 -0.7193053136152799,0.33667120662642613 l -10.512583627594791 -22.97189244557497" fill="#c5ff1e" stroke="none" /><path d="M 108.73861861582097 119.09545874513695 l 2.9500980661956615 6.4464966825715155 a28.089456825355306,28.089456825355306 0 0,0 -0.44018398868047437,0.19688869922247648 l -2.83900067465956 -6.496189132703842" fill="#ff5007" stroke="none" /><path d="M 108.4095320186766 119.2426549942271 l 10.0248487136127 22.938815707812466 a46.03371442290988,46.03371442290988 0 0,0 -0.7268173839170454,0.310235121961013 l -9.629596254525223 -23.107525479432883" fill="#c8ff1d" stroke="none" /><path d="M 107.06938296918513 119.77432235084164 l 8.852145892568224 24.761027537952167 a47.29579760415223,47.29579760415223 0 0,0 -0.7668545757495581,0.26675182862640445 l -8.425785544773644 -24.90933779914716" fill="#b9ff1f" stroke="none" /><path d="M 106.72888874123015 119.89276391827305 l 11.013351882619222 32.55901789658064 a55.37126075779373,55.37126075779373 0 0,0 -0.9030189427296496,0.2968402627105214 l -10.452810202241839 -32.743279080693185" fill="#61ff29" stroke="none" /><path d="M 106.38641147887787 120.00534299687104 l 7.832389789895933 24.534849461279915 a46.75471156717802,46.75471156717802 0 0,0 -0.7666868040734842,0.23752153171917648 l -7.410062352950824 -24.665687580805734" fill="#c0ff1e" stroke="none" /><path d="M 104.9986988182912 120.39639698878246 l 0.6677219462547004 2.724533401392047 a23.805162179413355,23.805162179413355 0 0,0 -0.3977364754173166,0.09386472521821225 l -0.6208533170975047 -2.735594270256484" fill="#ff1302" stroke="none" /><path d="M 104.29559338865022 120.5559693870025 l 5.1675358845671555 24.728529876701753 a46.262692195829416,46.262692195829416 0 0,0 -0.7787630609535804,0.15577442272225847 l -4.7422763380826165 -24.813593696086873" fill="#c5ff1e" stroke="none" /><path d="M 102.51750503828377 120.84855314841334 l 2.4063384064739677 19.92793396538415 a41.07269330845223,41.07269330845223 0 0,0 -0.7007081636656916,0.07851581127610675 l -2.063894341207477 -19.966305537167226" fill="#fffb17" stroke="none" /><path d="M 102.15924093988457 120.88869738790638 l 2.62890575866204 25.432278464001122 a46.56779093622329,46.56779093622329 0 0,0 -0.7958666904383747,0.07536940304399274 l -2.19193950483865 -25.4736596225503" fill="#c2ff1e" stroke="none" /><path d="M 101.80034050326958 120.92268563240118 l 0.729054564325807 8.472719149824064 a29.504027889744936,29.504027889744936 0 0,0 -0.5049839239328809,0.039088949453948536 l -0.5835016456176901 -8.483985866273066" fill="#ff6409" stroke="none" /><path d="M 101.44090949804482 120.95050786540614 l 0.6500761685440067 9.451964818522347 a30.47429353331915,30.47429353331915 0 0,0 -0.5222069829875233,0.031414675342197426 l -0.4877248334240183 -9.461731471689236" fill="#ff710a" stroke="none" /><line stroke="#e1ed5e" stroke-width="0.3" x1="101.45913802915013" x2="101.54496967792366" y1="184.9874750549273" y2="189.98673829345242" /><path d="M 101.47630435890484 185.9873277026323 a86.0,86.0 0 0,1 -42.54439059252881,-10.42667462771756" fill="none" id="id103" stroke="none" /><text fill="#e1ed5e" style="font-size:6.75px; font-family:Arial;" text-anchor="middle"><textPath startOffset="22.145653131862474" xlink:href="#id103">July</textPath></text><path d="M 98.55909050195518 120.95050786540614 l -0.530697670399328 7.716227655477629 a28.73445597624843,28.73445597624843 0 0,0 -0.4918121141014142,-0.03806936806864557 l 0.6630787792759782 -7.70598052041393" fill="#ff5908" stroke="none" /><path d="M 94.6519064749342 120.30758222061772 l -1.6417809784318549 6.234109790991519 a27.446671208249803,27.446671208249803 0 0,0 -0.4545934632694993,-0.12390146990143909 l 1.7485558426360492 -6.205007826945936" fill="#ff4706" stroke="none" /><path d="M 94.30408787586889 120.21278271476187 l -2.0133258153359144 7.14458305404658 a28.422839608591012,28.422839608591012 0 0,0 -0.46848958810463187,-0.13637049125684544 l 2.1356754158221527 -7.108968868487218" fill="#ff5507" stroke="none" /><path d="M 93.95794788825049 120.11202640906438 l -2.4656806278526555 8.207448890958352 a29.569819032877028,29.569819032877028 0 0,0 -0.4848878175362788,-0.15021948535081975 l 2.606209078260568 -8.163912817800885" fill="#ff6509" stroke="none" /><path d="M 92.93061703081489 119.77432235084164 l -6.278121764710329 17.561023935802872 a39.649514057110736,39.649514057110736 0 0,0 -0.6389440804080373,-0.23462911662352334 l 6.578654996772485 -17.450663970170627" fill="#ffe915" stroke="none" /><path d="M 92.59220618246901 119.65005319985036 l -6.176701753204271 16.384435236687825 a38.51003605288277,38.51003605288277 0 0,0 -0.6165782044454016,-0.23850569508790587 l 6.457052220143201 -16.275989653461878" fill="#ffdb14" stroke="none" /><path d="M 91.59046798132341 119.24265499422711 l -13.674872842061813 31.290785219119943 a55.148431689839796,55.148431689839796 0 0,0 -0.864219510602754,-0.38655439466421465 l 14.210005755520202 -31.051427073545874" fill="#63ff29" stroke="none" /><path d="M 90.28995756902619 118.62028667847754 l -3.7175237940904324 7.128842049054075 a29.039923638940238,29.039923638940238 0 0,0 -0.4400394519340471,-0.23429622283418267 l 3.8393520618110415 -7.063975358497319" fill="#ff5d08" stroke="none" /><line stroke="#e1ed5e" stroke-width="0.3" x1="58.13341422392154" x2="55.67067388415222" y1="173.97424548756322" y2="178.32567169271397" /><path d="M 57.64086615596768 174.84453072859336 a86.0,86.0 0 0,1 -31.369924170532247,-30.572349798747897" fill="none" id="id104" stroke="none" /><text fill="#e1ed5e" style="font-size:6.75px; font-family:Arial;" text-anchor="middle"><textPath startOffset="22.145653131862474" xlink:href="#id104">August</textPath></text><path d="M 89.65649057296885 118.27599006163327 l -8.51992890642234 15.053898013828121 a38.297659783370385,38.297659783370385 0 0,0 -0.5693722784613374,-0.32872723823876626 l 8.777093652744076 -14.905423878313183" fill="#ffd814" stroke="none" /><path d="M 89.34428304082925 118.09573695890944 l -8.337680499825904 14.15920427976717 a37.43167617601303,37.43167617601303 0 0,0 -0.5509002368169224,-0.3307997635591056 l 8.579513493200253 -14.013990515672146" fill="#ffcd13" stroke="none" /><path d="M 84.1078160697243 113.72728997021213 l -1.1524014905745472 0.9954169604773153 a22.52278827178447,22.52278827178447 0 0,0 -0.25022328327550336,-0.2947623985210461 l 1.1693193373571626 -0.9754877795067148" fill="#ff0000" stroke="none" /><path d="M 83.8745106332314 113.45245675266167 l -7.572199656249175 6.3169982678562535 a30.86117004975571,30.86117004975571 0 0,0 -0.3358770750899618,-0.40971541876126805 l 7.679523550577767 -6.18608056739649" fill="#ff760a" stroke="none" /><path d="M 83.64595745247003 113.17365903436017 l -6.001001443169313 4.833981974013878 a28.70580301110866,28.70580301110866 0 0,0 -0.30583103661788325,-0.386407524054968 l 6.083098910428759 -4.730254506044229" fill="#ff5908" stroke="none" /><line stroke="#e1ed5e" stroke-width="0.3" x1="26.387840678322732" x2="22.057713659400548" y1="142.50000000000003" y2="145.00000000000006" /><path d="M 25.521815274538298 143.00000000000003 a86.0,86.0 0 0,1 -11.493303480769221,-40.785679425670985" fill="none" id="id105" stroke="none" /><text fill="#e1ed5e" style="font-size:6.75px; font-family:Arial;" text-anchor="middle"><textPath startOffset="21.40746469413373" xlink:href="#id105">September</textPath></text><path d="M 81.63589988554817 110.18625677009913 l -4.1878721230820295 2.322942071769854 a25.78898034951972,25.78898034951972 0 0,0 -0.21141394742136674,-0.3889778512061537 l 4.227131420118726 -2.2507093870891133" fill="#ff2f04" stroke="none" /><path d="M 80.16572619554312 106.89939002012753 l -14.689549607582284 5.109787883433763 a36.55290326232718,36.55290326232718 0 0,0 -0.2010663433644649,-0.5944169170091755 l 14.775101372519117 -4.856869291950426" fill="#ffc212" stroke="none" /><path d="M 79.2786578344484 103.40968896794605 l -62.16402649665483 10.22906690383814 a84.0,84.0 0 0,0 -0.2219140314469299,-1.4248472722742 l 62.33046202024003 -9.16043144963249" fill="#4dd2ff" stroke="none" /><line stroke="#e1ed5e" stroke-width="0.3" x1="15.003131293944662" x2="10.003315487706104" y1="100.72959589197737" y2="100.7725132973878" /><path d="M 14.003168132696942 100.73817937305945 a86.0,86.0 0 0,1 10.791469493833604,-42.45332614584628" fill="none" id="id106" stroke="none" /><text fill="#e1ed5e" style="font-size:6.75px; font-family:Arial;" text-anchor="middle"><textPath startOffset="22.145653131862435" xlink:href="#id106">October</textPath></text><path d="M 79.00696218219943 99.45929381324524 l -17.118097319449287 -0.4409014648774665 a38.123774406942765,38.123774406942765 0 0,0 0.02246636386416087,-0.6540836709519763 l 17.108006268588277 0.7346914003935814" fill="#ffd614" stroke="none" /><line stroke="#e1ed5e" stroke-width="0.3" x1="26.387840678322718" x2="22.05771365940052" y1="57.49999999999999" y2="54.99999999999999" /><path d="M 25.521815274538284 56.99999999999999 a86.0,86.0 0 0,1 29.574782752854787,-30.34633250058573" fill="none" id="id107" stroke="none" /><text fill="#e1ed5e" style="font-size:6.75px; font-family:Arial;" text-anchor="middle"><textPath startOffset="21.40746469413373" xlink:href="#id107">November</textPath></text><line stroke="#e1ed5e" stroke-width="0.3" x1="56.869717070023135" x2="54.33264160355391" y1="26.7553504044142" y2="22.446841604673864" /><path d="M 56.362301976729285 25.89364864446614 a86.0,86.0 0 0,1 42.16139366436587,-11.88097634709845" fill="none" id="id108" stroke="none" /><text fill="#e1ed5e" style="font-size:6.75px; font-family:Arial;" text-anchor="middle"><textPath startOffset="22.145653131862474" xlink:href="#id108">December</textPath></text></svg>