<?xml version="1.0" encoding="utf-8" ?>
<svg baseProfile="full" height="200mm" version="1.1" viewBox="0,0,200,200" width="200mm" xmlns="http://www.w3.org/2000/svg" xmlns:ev="http://www.w3.org/2001/xml-events" xmlns:xlink="http://www.w3.org/1999/xlink"><defs /><rect fill="#1a1a1a" height="200" width="200" x="0" y="0" /><text alignment-baseline="middle" fill="#e1ed5e" style="dominant-baseline: central; font-size:9.0px; font-family:Arial;" text-anchor="middle" x="100.0" y="100.0">2025</text><line stroke="#e1ed5e" stroke-width="0.3" x1="100.0" x2="100.0" y1="15.0" y2="10.0" /><path d="M 100.0 14.0 a86.0,86.0 0 0,1 42.46469731375804,11.215312516191453" fill="none" id="id109" stroke="none" /><text fill="#e1ed5e" style="font-size:6.75px; font-family:Arial;" text-anchor="middle"><textPath startOffset="22.20632615414155" xlink:href="#id109">January</textPath></text><path d="M 105.71112130821622 79.79150937346287 l 2.775180039277153 -9.819822900627846 a31.204437566573546,31.204437566573546 0 0,0 0.5156307183828379,0.15052674622123266 l -2.943800975383418 9.77059782548791" fill="#ff6e0a" stroke="none" /><path d="M 106.0581310904928 79.89281104454417 l 2.976747701936212 -9.879949380673038 a31.318644612818296,31.318644612818296 0 0,0 0.5148406774866447,0.15996350461110306 l -3.1463737521335746 9.827245741179414" fill="#ff700a" stroke="none" /><path d="M 106.74666289553966 80.11325718540242 l 5.2360297922736345 -15.4339381499789 a37.29792792973853,37.29792792973853 0 0,0 0.6062120958843241,0.21149549696751227 l -5.500923892221232 15.34152179983918" fill="#ffc111" stroke="none" /><path d="M 107.08798089147638 80.2323363322302 l 5.823492052091383 -16.241131856902467 a38.25362059609703,38.25362059609703 0 0,0 0.6179192480660144,0.2275848738977636 l -6.102193625929973 16.138483715198376" fill="#ffcd13" stroke="none" /><line stroke="#e1ed5e" stroke-width="0.3" x1="143.23703022742887" x2="145.7803849466894" y1="26.81831364943548" y2="22.513508569990506" /><path d="M 143.74570117128098 25.957352633546492 a86.0,86.0 0 0,1 28.547481713284135,27.462654790039103" fill="none" id="id110" stroke="none" /><text fill="#e1ed5e" style="font-size:6.75px; font-family:Arial;" text-anchor="middle"><textPath startOffset="19.985693538727396" xlink:href="#id110">February</textPath></text><path d="M 113.06298171725822 83.55741782278167 l 7.669398723997041 -9.653593758197706 a33.329296380408785,33.329296380408785 0 0,0 0.4461310447985579,0.3607402785592205 l -7.834433167360091 9.520147382374356" fill="#ff8c0c" stroke="none" /><path d="M 114.42810811169701 84.74124197986012 l 1.7699275738524474 -1.8718252146095988 a23.576115923387665,23.576115923387665 0 0,0 0.2924749165989796,0.28136063804064565 l -1.801885734063845 1.8410814898066512" fill="#ff0000" stroke="none" /><path d="M 114.94478906791727 85.2469230424477 l 5.566428579655067 -5.4950223011621535 a28.821789898908698,28.821789898908698 0 0,0 0.3454987857902893,0.35606686895756984 l -5.660191629148465 5.3983912366544695" fill="#ff4d07" stroke="none" /><path d="M 116.38621287248628 86.86637796730983 l 11.699591987216827 -9.377274681619692 a35.993789818517996,35.993789818517996 0 0,0 0.3833268674700035,0.48678619423403796 l -11.859272935280796 9.174496093432616" fill="#ffb010" stroke="none" /><path d="M 116.60985879189232 87.15038557335679 l 12.791630907139131 -9.895780999950581 a37.17257873264063,37.17257873264063 0 0,0 0.3871684444162827,0.5094682894768995 l -12.960075291779527 9.674127934592649" fill="#ffbf11" stroke="none" /><path d="M 116.82858285166822 87.43820079747576 l 6.164381228190506 -4.601440292321629 a28.692389010591473,28.692389010591473 0 0,0 0.2920302984698361,0.39832899892260604 l -6.242674139173968 4.49464884972753" fill="#ff4b07" stroke="none" /><path d="M 117.04232023915458 87.72973835380427 l 14.236059046087451 -10.249787989833601 a38.5420503647728,38.5420503647728 0 0,0 0.38301140561958263,0.5417424709789654 l -14.410383071510916 10.003219018522842" fill="#ffd113" stroke="none" /><path d="M 117.2510076193507 88.02491185347247 l 14.310115945206753 -9.93361684210594 a38.419993166790604,38.419993166790604 0 0,0 0.37244622085395285,0.5465188716533889 l -14.47898663172944 9.685819947182145" fill="#ffd013" stroke="none" /><path d="M 117.65298651832404 88.62581576622439 l 41.958882239204755 -27.034975432435765 a70.9143035150833,70.9143035150833 0 0,0 0.6523184033596436,1.0318110595115448 l -42.41802823881035 26.308716725210015" fill="#3cffa7" stroke="none" /><line stroke="#e1ed5e" stroke-width="0.3" x1="172.23445277983987" x2="176.4835382374775" y1="55.19839476539836" y2="52.563006222186495" /><path d="M 173.08426987136738 54.67131705675599 a86.0,86.0 0 0,1 12.851231095245387,41.99856678651699" fill="none" id="id111" stroke="none" /><text fill="#e1ed5e" style="font-size:6.75px; font-family:Arial;" text-anchor="middle"><textPath startOffset="22.20632615414155" xlink:href="#id111">March</textPath></text><path d="M 117.84615892207809 88.93136811851018 l 15.341376972840298 -9.515103782778635 a39.05256345840786,39.05256345840786 0 0,0 0.3493980814409306,0.5743185778491362 l -15.502890852567452 9.249617431722417" fill="#ffd814" stroke="none" /><path d="M 118.3937258080291 89.86733742301442 l 13.429929906751056 -7.398226416872805 a36.33286572743533,36.33286572743533 0 0,0 0.2970504179801746,0.5503893103774067 l -13.555288423949696 7.16595612316294" fill="#ffb410" stroke="none" /><path d="M 118.73160827565052 90.50648371742162 l 15.260480174181223 -7.734286073122724 a38.10851940430493,38.10851940430493 0 0,0 0.29151200302249236,0.587670409789803 l -15.391352190157123 7.470456074833971" fill="#ffcc13" stroke="none" /><path d="M 118.89224826269711 90.83032412892265 l 9.41988753438828 -4.572103554392471 a31.470836264244227,31.470836264244227 0 0,0 0.23234739503422777,0.48938286991541313 l -9.497193123264266 4.409278268836518" fill="#ff720a" stroke="none" /><path d="M 119.04729006885535 91.15688171328212 l 7.8457670051895825 -3.6425678102296697 a29.65010752255964,29.65010752255964 0 0,0 0.21093606503133555,0.4647696586615726 l -7.907305387184265 3.5069761427260344" fill="#ff5908" stroke="none" /><path d="M 119.34039704204932 91.81776055985345 l 15.94652798376709 -6.746413215742032 a38.31490242578934,38.31490242578934 0 0,0 0.2517440763728741,0.6096182490979354 l -16.06029374702616 6.4709203961907935" fill="#ffce13" stroke="none" /><path d="M 119.47837535516314 92.15188598940014 l 52.96472356507639 -21.340239188297684 a78.1022569688687,78.1022569688687 0 0,0 0.4916962923848264,1.2513134322410016 l -53.32421340734292 20.4253767511609" fill="#45fff3" stroke="none" /><path d="M 119.61058180528143 92.48833698450437 l 9.973859060651021 -3.8204000764261434 a31.680511284844343,31.680511284844343 0 0,0 0.19067958382508599,0.5109264847265661 l -10.038143232977733 3.648150454670244" fill="#ff750a" stroke="none" /><path d="M 119.85752413597 93.16781622104841 l 5.5347405938317475 -1.9042839704968573 a26.853174427718713,26.853174427718713 0 0,0 0.14662179289052035,0.43838049836860343 l -5.566699680494038 1.8087303692059398" fill="#ff3004" stroke="none" /><path d="M 120.18372546131832 94.20196356495316 l 8.063673552572748 -2.3163946194047513 a29.38978636171795,29.38978636171795 0 0,0 0.13549143476393202,0.48743478022467657 l -8.102351757903044 2.177248535761123" fill="#ff5507" stroke="none" /><path d="M 120.37134235888165 94.90015583598534 l 4.985957383180909 -1.2482047188979075 a26.139823542416142,26.139823542416142 0 0,0 0.10551426873175827,0.4374247635534367 l -5.006704452173486 1.1621947236850645" fill="#ff2603" stroke="none" /><path d="M 120.53481517161879 95.60439243477599 l 15.40624951905388 -3.297805525480347 a36.755254537050064,36.755254537050064 0 0,0 0.12710440301448,0.619806209308554 l -15.460733217983357 3.032123660008381" fill="#ffba11" stroke="none" /><path d="M 120.83666639777658 97.38593545837742 l 5.618198773892528 -0.7048312778183671 a26.66223847900798,26.66223847900798 0 0,0 0.05320976203758823,0.4558687464839938 l -5.629498888933706 0.6080187930095206" fill="#ff2e04" stroke="none" /><path d="M 120.87857604477298 97.74499172005257 l 12.723271728584697 -1.3741877336104265 a33.797266716240934,33.797266716240934 0 0,0 0.057492167199450994,0.5789382777685921 l -12.745041021466378 1.1549739251373994" fill="#ff920d" stroke="none" /><path d="M 120.96714384426684 98.82574320788733 l 21.023188825501403 -1.177395569638464 a42.056132805434416,42.056132805434416 0 0,0 0.03425850875970772,0.7231429740204985 l -21.04034094249461 0.8153414889949655" fill="#fffe18" stroke="none" /><path d="M 120.98425023603335 99.18683210126433 l 11.30282560696752 -0.43799968286743385 a32.31130896155315,32.31130896155315 0 0,0 0.01675311450054498,0.5559543096944431 l -11.30869041592371 0.24337522574799159" fill="#ff7e0b" stroke="none" /><line stroke="#e1ed5e" stroke-width="0.3" x1="184.98032266829074" x2="189.97916517819016" y1="98.17113171792111" y2="98.06355123074" /><path d="M 185.9800911702706 98.14961562048488 a86.0,86.0 0 0,1 -9.607161424134198,41.387399972396054" fill="none" id="id112" stroke="none" /><text fill="#e1ed5e" style="font-size:6.75px; font-family:Arial;" text-anchor="middle"><textPath startOffset="21.466115282336823" xlink:href="#id112">April</textPath></text><path d="M 120.99513854157772 99.54816195383933 l 14.039657629959908 -0.3021485883373975 a35.04290853548245,35.04290853548245 0 0,0 0.007787857367125787,0.6031781356038303 l -14.04277849444475 0.060434194673104506" fill="#ffa30f" stroke="none" /><path d="M 120.99980553446 99.90962569577887 l 62.99941660337998 -0.27112291266339017 a84.0,84.0 0 0,0 -0.006222810841987947,1.4459620871852612 l -62.994749495248485 -0.8133486527255557" fill="#4dd2ff" stroke="none" /><path d="M 120.89721153311464 102.0752229133903 l 13.262297682591283 1.3170285418943848 a34.327531804570214,34.327531804570214 0 0,0 -0.0634531323715647,0.5874971995799685 l -13.237662248718667 -1.5451220633591447" fill="#ff990e" stroke="none" /><path d="M 120.8583938346157 102.4346265915055 l 14.40900545776831 1.6818432005254669 a35.506827180095264,35.506827180095264 0 0,0 -0.07608350640653706,0.6064604052898064 l -14.377920442114926 -1.9296213601026682" fill="#ffa90f" stroke="none" /><path d="M 120.81339534386255 102.79330883721812 l 34.41143568309552 4.618264622705964 a55.71995498120867,55.71995498120867 0 0,0 -0.1357602082821806,0.9495065805272985 l -34.326841423796736 -5.209916675213672" fill="#63ff29" stroke="none" /><path d="M 120.41448212921028 104.9243191809786 l 31.9991683945389 7.718741906027853 a53.916952388608635,53.916952388608635 0 0,0 -0.22539516130532053,0.9003416279629106 l -31.861561918938516 -8.26841137338816" fill="#76ff27" stroke="none" /><path d="M 120.32669344350535 105.2749913415812 l 16.95093528684273 4.39894649458436 a38.51242237273148,38.51242237273148 0 0,0 -0.17204402035828173,0.6402398016996869 l -16.87270319014267 -4.690077229459595" fill="#ffd113" stroke="none" /><path d="M 120.23288151984713 105.62410040840565 l 28.810416394933146 8.008383504551103 a50.90274735213136,50.90274735213136 0 0,0 -0.24192709468901505,0.8421799544655701 l -28.66829666335803 -8.503120934521256" fill="#97ff23" stroke="none" /><path d="M 120.13307415673323 105.97154293290107 l 3.630969597300102 1.0769587728898662 a24.787318367264906,24.787318367264906 0 0,0 -0.12484926974398221,0.4080146372537362 l -3.611893555049987 -1.1393003826956594" fill="#ff1202" stroke="none" /><path d="M 119.79798401119884 107.00284435728193 l 14.385996565679164 5.0885430969566245 a36.25942882408505,36.25942882408505 0 0,0 -0.21319808426582304,0.586629562965823 l -14.296274220408113 -5.335420456928579" fill="#ffb310" stroke="none" /><line stroke="#e1ed5e" stroke-width="0.3" x1="174.80103733775053" x2="179.2010983576182" y1="140.37084112569926" y2="142.7455964860345" /><path d="M 175.68104954172406 140.8457921977663 a86.0,86.0 0 0,1 -30.038265399797805,32.042727171017184" fill="none" id="id113" stroke="none" /><text fill="#e1ed5e" style="font-size:6.75px; font-family:Arial;" text-anchor="middle"><textPath startOffset="22.206326154141568" xlink:href="#id113">May</textPath></text><line stroke="#e1ed5e" stroke-width="0.3" x1="143.8653032363475" x2="146.44561519142675" y1="172.8068346515853" y2="177.08958963109032" /><path d="M 144.38136562736335 173.6633856474863 a86.0,86.0 0 0,1 -40.68145358897372,12.25698825130547" fill="none" id="id114" stroke="none" /><text fill="#e1ed5e" style="font-size:6.75px; font-family:Arial;" text-anchor="middle"><textPath startOffset="21.466115282336833" xlink:href="#id114">June</textPath></text><line stroke="#e1ed5e" stroke-width="0.3" x1="102.19456741930631" x2="102.32365962044197" y1="184.97166512339345" y2="189.96999836594603" /><path d="M 102.22038585953345 185.97133177190398 a86.0,86.0 0 0,1 -42.740103519485714,-10.115201625700543" fill="none" id="id115" stroke="none" /><text fill="#e1ed5e" style="font-size:6.75px; font-family:Arial;" text-anchor="middle"><textPath startOffset="22.20632615414155" xlink:href="#id115">July</textPath></text><line stroke="#e1ed5e" stroke-width="0.3" x1="58.666819895761336" x2="56.23545636021788" y1="174.27360380694188" y2="178.64263932499728" /><path d="M 58.180547188652646 175.14741091055294 a86.0,86.0 0 0,1 -31.652253787137756,-30.449443065178592" fill="none" id="id116" stroke="none" /><text fill="#e1ed5e" style="font-size:6.75px; font-family:Arial;" text-anchor="middle"><textPath startOffset="22.20632615414155" xlink:href="#id116">August</textPath></text><line stroke="#e1ed5e" stroke-width="0.3" x1="26.63291911575756" x2="22.317208475507996" y1="142.92168965132927" y2="145.44649492493687" /><path d="M 25.769776987707644 143.4266507060508 a86.0,86.0 0 0,1 -11.730757126820373,-40.83630448921669" fill="none" id="id117" stroke="none" /><text fill="#e1ed5e" style="font-size:6.75px; font-family:Arial;" text-anchor="middle"><textPath startOffset="21.46611528233685" xlink:href="#id117">September</textPath></text><line stroke="#e1ed5e" stroke-width="0.3" x1="15.007084014347285" x2="10.007500721073583" y1="101.09737516637583" y2="101.16192664675087" /><path d="M 14.007167355692545 101.11028546245083 a86.0,86.0 0 0,1 10.666146001902534,-42.60595125391555" fill="none" id="id118" stroke="none" /><text fill="#e1ed5e" style="font-size:6.75px; font-family:Arial;" text-anchor="middle"><textPath startOffset="22.20632615414155" xlink:href="#id118">October</textPath></text><line stroke="#e1ed5e" stroke-width="0.3" x1="26.266209847984243" x2="21.928928074336255" y1="57.711370442889674" y2="55.22380399835377" /><path d="M 25.398753493254645 57.213857153982495 a86.0,86.0 0 0,1 29.58750427330803,-30.492523968695096" fill="none" id="id119" stroke="none" /><text fill="#e1ed5e" style="font-size:6.75px; font-family:Arial;" text-anchor="middle"><textPath startOffset="21.46611528233685" xlink:href="#id119">November</textPath></text><line stroke="#e1ed5e" stroke-width="0.3" x1="56.762969772571076" x2="54.21961505331055" y1="26.818313649435495" y2="22.513508569990535" /><path d="M 56.25429882871897 25.957352633546506 a86.0,86.0 0 0,1 42.265352541879196,-11.944610805530505" fill="none" id="id120" stroke="none" /><text fill="#e1ed5e" style="font-size:6.75px; font-family:Arial;" text-anchor="middle"><textPath startOffset="22.20632615414155" xlink:href="#id120">December</textPath></text></svg>