<?xml version="1.0" encoding="utf-8" ?>
<svg baseProfile="full" height="200mm" version="1.1" viewBox="0,0,200,200" width="200mm" xmlns="http://www.w3.org/2000/svg" xmlns:ev="http://www.w3.org/2001/xml-events" xmlns:xlink="http://www.w3.org/1999/xlink"><defs /><rect fill="#1a1a1a" height="200" width="200" x="0" y="0" /><text alignment-baseline="middle" fill="#e1ed5e" style="dominant-baseline: central; font-size:9.0px; font-family:Arial;" text-anchor="middle" x="100.0" y="100.0">2023</text><line stroke="#e1ed5e" stroke-width="0.3" x1="100.0" x2="100.0" y1="15.0" y2="10.0" /><path d="M 100.0 14.0 a86.0,86.0 0 0,1 42.46469731375804,11.215312516191453" fill="none" id="id85" stroke="none" /><text fill="#e1ed5e" style="font-size:6.75px; font-family:Arial;" text-anchor="middle"><textPath startOffset="22.20632615414155" xlink:href="#id85">January</textPath></text><line stroke="#e1ed5e" stroke-width="0.3" x1="143.23703022742887" x2="145.7803849466894" y1="26.81831364943548" y2="22.513508569990506" /><path d="M 143.74570117128098 25.957352633546492 a86.0,86.0 0 0,1 28.547481713284135,27.462654790039103" fill="none" id="id86" stroke="none" /><text fill="#e1ed5e" style="font-size:6.75px; font-family:Arial;" text-anchor="middle"><textPath startOffset="19.985693538727396" xlink:href="#id86">February</textPath></text><path d="M 116.38621287248628 86.86637796730983 l 13.343274897434794 -10.694693798067403 a38.10027661831629,38.10027661831629 0 0,0 0.40576054256798294,0.515274683433097 l -13.525389520596741 10.463426720681268" fill="#ff850c" stroke="none" /><path d="M 117.45458315368197 88.32363383020206 l 52.01175392129723 -34.79362861727129 a83.57650628092125,83.57650628092125 0 0,0 0.789612383388776,1.2026338320928986 l -52.60296294004392 33.89317672120071" fill="#4cd6ff" stroke="none" /><path d="M 117.65298651832404 88.62581576622439 l 52.458043964055484 -33.799802428406025 a83.40411060766799,83.40411060766799 0 0,0 0.7672082156691148,1.2135391517370229 l -53.03207977597056 32.8918156289548" fill="#4cd8ff" stroke="none" /><line stroke="#e1ed5e" stroke-width="0.3" x1="172.23445277983987" x2="176.4835382374775" y1="55.19839476539836" y2="52.563006222186495" /><path d="M 173.08426987136738 54.67131705675599 a86.0,86.0 0 0,1 12.851231095245387,41.99856678651699" fill="none" id="id87" stroke="none" /><text fill="#e1ed5e" style="font-size:6.75px; font-family:Arial;" text-anchor="middle"><textPath startOffset="22.20632615414155" xlink:href="#id87">March</textPath></text><path d="M 117.84615892207809 88.93136811851018 l 26.697843838892318 -16.558667149187848 a52.41598834038925,52.41598834038925 0 0,0 0.4689588631606013,0.7708450666054317 l -26.97891850033914 16.096654309375335" fill="#afff20" stroke="none" /><path d="M 118.03404312379186 89.2402003453031 l 26.998229003480787 -16.108175693881805 a52.43847473255272,52.43847473255272 0 0,0 0.4558160118076043,0.7791373191103101 l -27.271504689758718 15.6410589624176" fill="#afff20" stroke="none" /><path d="M 118.73160827565052 90.50648371742162 l 44.42444906928329 -22.515110522145964 a70.80423553206889,70.80423553206889 0 0,0 0.5416186418435899,1.091870131939165 l -44.805427724080296 21.74708080170785" fill="#3aff95" stroke="none" /><line stroke="#e1ed5e" stroke-width="0.3" x1="184.98032266829074" x2="189.97916517819016" y1="98.17113171792111" y2="98.06355123074" /><path d="M 185.9800911702706 98.14961562048488 a86.0,86.0 0 0,1 -9.607161424134198,41.387399972396054" fill="none" id="id88" stroke="none" /><text fill="#e1ed5e" style="font-size:6.75px; font-family:Arial;" text-anchor="middle"><textPath startOffset="21.466115282336823" xlink:href="#id88">April</textPath></text><path d="M 120.92983693683757 101.71520430193887 l 18.870283377006587 1.546423477866699 a39.933542201643846,39.933542201643846 0 0,0 -0.06204037792452763,0.6846104006558512 l -18.840868402804986 -1.8710152670711209" fill="#ffa10e" stroke="none" /><path d="M 120.81339534386255 102.79330883721812 l 8.732005670928743 1.1718985876293564 a29.810293374049436,29.810293374049436 0 0,0 -0.07263199761698859,0.5079880221664758 l -8.710539622295153 -1.3220320817762414" fill="#ff0000" stroke="none" /><path d="M 120.76222939487914 103.15116336523771 l 31.10227703206472 4.720512142260092 a52.45846263669802,52.45846263669802 0 0,0 -0.14318224034473478,0.8915959473047851 l -31.0164130373587 -5.255187319258082" fill="#afff20" stroke="none" /><path d="M 120.70491114924044 103.5080841355445 l 35.40985062389903 5.999578279777246 a56.91451601709283,56.91451601709283 0 0,0 -0.1719727868489413,0.9645147172179643 l -35.3013313947109 -6.608211747728429" fill="#77ff27" stroke="none" /><path d="M 120.64145759157962 103.86396538481128 l 61.924372774738885 11.591896154433844 a84.0,84.0 0 0,0 -0.2782802680973435,1.4189450917282203 l -61.715662573665874 -12.656104973230008" fill="#4dd2ff" stroke="none" /><path d="M 120.13307415673323 105.97154293290107 l 47.55119084154108 14.103855944218562 a70.59873489257492,70.59873489257492 0 0,0 -0.35559314507483597,1.1620989725862425 l -47.301370923960114 -14.920281889356861" fill="#3aff92" stroke="none" /><line stroke="#e1ed5e" stroke-width="0.3" x1="174.80103733775053" x2="179.2010983576182" y1="140.37084112569926" y2="142.7455964860345" /><path d="M 175.68104954172406 140.8457921977663 a86.0,86.0 0 0,1 -30.038265399797805,32.042727171017184" fill="none" id="id89" stroke="none" /><text fill="#e1ed5e" style="font-size:6.75px; font-family:Arial;" text-anchor="middle"><textPath startOffset="22.206326154141568" xlink:href="#id89">May</textPath></text><line stroke="#e1ed5e" stroke-width="0.3" x1="143.8653032363475" x2="146.44561519142675" y1="172.8068346515853" y2="177.08958963109032" /><path d="M 144.38136562736335 173.6633856474863 a86.0,86.0 0 0,1 -40.68145358897372,12.25698825130547" fill="none" id="id90" stroke="none" /><text fill="#e1ed5e" style="font-size:6.75px; font-family:Arial;" text-anchor="middle"><textPath startOffset="21.466115282336833" xlink:href="#id90">June</textPath></text><line stroke="#e1ed5e" stroke-width="0.3" x1="102.19456741930631" x2="102.32365962044197" y1="184.97166512339345" y2="189.96999836594603" /><path d="M 102.22038585953345 185.97133177190398 a86.0,86.0 0 0,1 -42.740103519485714,-10.115201625700543" fill="none" id="id91" stroke="none" /><text fill="#e1ed5e" style="font-size:6.75px; font-family:Arial;" text-anchor="middle"><textPath startOffset="22.20632615414155" xlink:href="#id91">July</textPath></text><line stroke="#e1ed5e" stroke-width="0.3" x1="58.666819895761336" x2="56.23545636021788" y1="174.27360380694188" y2="178.64263932499728" /><path d="M 58.180547188652646 175.14741091055294 a86.0,86.0 0 0,1 -31.652253787137756,-30.449443065178592" fill="none" id="id92" stroke="none" /><text fill="#e1ed5e" style="font-size:6.75px; font-family:Arial;" text-anchor="middle"><textPath startOffset="22.20632615414155" xlink:href="#id92">August</textPath></text><path d="M 87.95078237400918 117.19931262002967 l -18.523786068459415 26.44125099133027 a53.28421292670111,53.28421292670111 0 0,0 -0.7466708438766294,-0.5327298217654917 l 18.97618424018493 -26.11847690772056" fill="#a4ff21" stroke="none" /><path d="M 87.07902340077011 116.55440617244103 l -30.885132284349087 39.57015327735831 a71.19649815092058,71.19649815092058 0 0,0 -0.959601683160978,-0.762365613130403 l 31.561691460227422 -39.03265375022277" fill="#3bff9a" stroke="none" /><path d="M 86.51685102203217 116.09983520530335 l -20.92514245020655 24.986102700958124 a53.59090233093068,53.59090233093068 0 0,0 -0.7021289225060058,-0.5983695001212963 l 21.352136849289614 -24.622208810613877" fill="#a0ff22" stroke="none" /><line stroke="#e1ed5e" stroke-width="0.3" x1="26.63291911575756" x2="22.317208475507996" y1="142.92168965132927" y2="145.44649492493687" /><path d="M 25.769776987707644 143.4266507060508 a86.0,86.0 0 0,1 -11.730757126820373,-40.83630448921669" fill="none" id="id93" stroke="none" /><text fill="#e1ed5e" style="font-size:6.75px; font-family:Arial;" text-anchor="middle"><textPath startOffset="21.46611528233685" xlink:href="#id93">September</textPath></text><line stroke="#e1ed5e" stroke-width="0.3" x1="15.007084014347285" x2="10.007500721073583" y1="101.09737516637583" y2="101.16192664675087" /><path d="M 14.007167355692545 101.11028546245083 a86.0,86.0 0 0,1 10.666146001902534,-42.60595125391555" fill="none" id="id94" stroke="none" /><text fill="#e1ed5e" style="font-size:6.75px; font-family:Arial;" text-anchor="middle"><textPath startOffset="22.20632615414155" xlink:href="#id94">October</textPath></text><line stroke="#e1ed5e" stroke-width="0.3" x1="26.266209847984243" x2="21.928928074336255" y1="57.711370442889674" y2="55.22380399835377" /><path d="M 25.398753493254645 57.213857153982495 a86.0,86.0 0 0,1 29.58750427330803,-30.492523968695096" fill="none" id="id95" stroke="none" /><text fill="#e1ed5e" style="font-size:6.75px; font-family:Arial;" text-anchor="middle"><textPath startOffset="21.46611528233685" xlink:href="#id95">November</textPath></text><path d="M 82.34701348167596 88.62581576622439 l -36.26859908488063 -23.36860833514885 a64.14514034165832,64.14514034165832 0 0,0 0.606029127105877,-0.9230239378507888 l 35.86097332241683 23.989450336977306" fill="#31ff3d" stroke="none" /><path d="M 83.6137871275137 86.86637796730984 l -36.22282172543942 -29.032751692017708 a67.4219073774799,67.4219073774799 0 0,0 0.7336194048971405,-0.8993306462690357 l 35.71770382846588 29.651966507894826" fill="#35ff69" stroke="none" /><path d="M 85.57189188830299 84.74124197986013 l -17.021308098300793 -18.001252794027646 a45.77438256610583,45.77438256610583 0 0,0 0.5771759822696669,-0.5364221726087264 l 16.70892423223627 18.29157955271102" fill="#fff517" stroke="none" /><line stroke="#e1ed5e" stroke-width="0.3" x1="56.762969772571076" x2="54.21961505331055" y1="26.818313649435495" y2="22.513508569990535" /><path d="M 56.25429882871897 25.957352633546506 a86.0,86.0 0 0,1 42.265352541879196,-11.944610805530505" fill="none" id="id96" stroke="none" /><text fill="#e1ed5e" style="font-size:6.75px; font-family:Arial;" text-anchor="middle"><textPath startOffset="22.20632615414155" xlink:href="#id96">December</textPath></text></svg>