<?xml version="1.0" encoding="utf-8" ?>
<svg baseProfile="full" height="200mm" version="1.1" viewBox="0,0,200,200" width="200mm" xmlns="http://www.w3.org/2000/svg" xmlns:ev="http://www.w3.org/2001/xml-events" xmlns:xlink="http://www.w3.org/1999/xlink"><defs /><rect fill="#1a1a1a" height="200" width="200" x="0" y="0" /><text alignment-baseline="middle" fill="#e1ed5e" style="dominant-baseline: central; font-size:9.0px; font-family:Arial;" text-anchor="middle" x="100.0" y="100.0">2026</text><line stroke="#e1ed5e" stroke-width="0.3" x1="100.0" x2="100.0" y1="15.0" y2="10.0" /><path d="M 100.0 14.0 a86.0,86.0 0 0,1 42.46469731375804,11.215312516191453" fill="none" id="id121" stroke="none" /><text fill="#e1ed5e" style="font-size:6.75px; font-family:Arial;" text-anchor="middle"><textPath startOffset="22.20632615414155" xlink:href="#id121">January</textPath></text><path d="M 102.16513564639614 79.11191278185805 l 0.7369371033805853 -7.109580646977265 a28.147671877626493,28.147671877626493 0 0,0 0.48150385510125554,0.0541025684458465 l -0.8592076619915661 7.095842125060818" fill="#ff1001" stroke="none" /><path d="M 104.66035177308747 79.52364482259891 l 3.969145904125602 -17.439379094329386 a38.885358883846024,38.885358883846024 0 0,0 0.6513784847284969,0.15416024214045576 l -4.268748075816623 17.36847294004806" fill="#ffb110" stroke="none" /><line stroke="#e1ed5e" stroke-width="0.3" x1="143.23703022742887" x2="145.7803849466894" y1="26.81831364943548" y2="22.513508569990506" /><path d="M 143.74570117128098 25.957352633546492 a86.0,86.0 0 0,1 28.547481713284135,27.462654790039103" fill="none" id="id122" stroke="none" /><text fill="#e1ed5e" style="font-size:6.75px; font-family:Arial;" text-anchor="middle"><textPath startOffset="19.985693538727396" xlink:href="#id122">February</textPath></text><path d="M 114.42810811169701 84.74124197986012 l 8.604559236109544 -9.099937859996567 a33.52386955790889,33.52386955790889 0 0,0 0.41588236946603896,0.40007850992315996 l -8.759924849188003 8.950476263311105" fill="#ff6309" stroke="none" /><line stroke="#e1ed5e" stroke-width="0.3" x1="172.23445277983987" x2="176.4835382374775" y1="55.19839476539836" y2="52.563006222186495" /><path d="M 173.08426987136738 54.67131705675599 a86.0,86.0 0 0,1 12.851231095245387,41.99856678651699" fill="none" id="id123" stroke="none" /><text fill="#e1ed5e" style="font-size:6.75px; font-family:Arial;" text-anchor="middle"><textPath startOffset="22.20632615414155" xlink:href="#id123">March</textPath></text><path d="M 118.03404312379186 89.2402003453031 l 30.80651497254678 -18.380344711870023 a56.87308791393511,56.87308791393511 0 0,0 0.4943634276994004,0.8450273481978384 l -31.118338074716505 17.847337951318288" fill="#68ff28" stroke="none" /><path d="M 118.21658344932153 89.55222093294921 l 11.051210231736665 -6.338213927212358 a33.73978819969743,33.73978819969743 0 0,0 0.28460693638038753,0.5062839825253387 l -11.158674809409485 6.147046434752226" fill="#ff6609" stroke="none" /><path d="M 118.56541770881063 90.18545643968196 l 24.92553223067247 -13.17679600206089 a49.19415027735754,49.19415027735754 0 0,0 0.3893144628476414,0.752031625916933 l -25.14865612668023 12.745791653883611" fill="#c4ff1e" stroke="none" /><path d="M 119.34039704204932 91.81776055985345 l 14.798703535957051 -6.260809200125578 a37.0685829551185,37.0685829551185 0 0,0 0.24355526407934794,0.5897883905983969 l -14.904280486922596 6.005146239073879" fill="#ff970d" stroke="none" /><path d="M 119.47837535516314 92.15188598940014 l 22.783707330459347 -9.1798791969674 a45.56354009077156,45.56354009077156 0 0,0 0.28684732810589203,0.7299951620957578 l -22.93834820844694 8.786335029975858" fill="#f3ff19" stroke="none" /><path d="M 120.37134235888165 94.90015583598534 l 27.912288920990214 -6.987675198337657 a49.7736594385611,49.7736594385611 0 0,0 0.20091303482754563,0.8329142381459791 l -28.02843475607858 6.506175728532272" fill="#bdff1f" stroke="none" /><path d="M 120.45610955862082 95.25157060432595 l 61.36832867586249 -14.245288187022162 a84.0,84.0 0 0,0 0.31482245199184966,1.4112873218001445 l -61.60444551485638 13.186822695672053" fill="#4dd2ff" stroke="none" /><path d="M 120.53481517161879 95.60439243477599 l 33.68333315075667 -7.210131320006191 a55.446377542444104,55.446377542444104 0 0,0 0.19174071314739022,0.9349958126349408 l -33.80245315981906 6.629259851207839" fill="#79ff26" stroke="none" /><path d="M 120.6074358757038 95.95851677861258 l 50.53538625741315 -9.910884443729605 a72.49806690200035,72.49806690200035 0 0,0 0.22962649704386398,1.2266739291365003 l -50.69849847836687 9.039532437130543" fill="#3dffb1" stroke="none" /><path d="M 120.98425023603335 99.18683210126433 l 29.468720998806745 -1.1419525436214522 a50.49083879643638,50.49083879643638 0 0,0 0.026179032381255695,0.8687546351764045 l -29.484011725643647 0.6345277610200486" fill="#b4ff20" stroke="none" /><line stroke="#e1ed5e" stroke-width="0.3" x1="184.98032266829074" x2="189.97916517819016" y1="98.17113171792111" y2="98.06355123074" /><path d="M 185.9800911702706 98.14961562048488 a86.0,86.0 0 0,1 -9.607161424134198,41.387399972396054" fill="none" id="id124" stroke="none" /><text fill="#e1ed5e" style="font-size:6.75px; font-family:Arial;" text-anchor="middle"><textPath startOffset="21.466115282336823" xlink:href="#id124">April</textPath></text><path d="M 120.99513854157772 99.54816195383933 l 18.665874558144985 -0.40170977074193476 a39.67019667170953,39.67019667170953 0 0,0 0.008816215500271077,0.6828256063063574 l -18.67002378076297 0.08034790637511463" fill="#ffbc11" stroke="none" /><path d="M 120.76222939487914 103.15116336523771 l 6.3460503921704365 0.9631644622273592 a27.418725836275005,27.418725836275005 0 0,0 -0.07483777440876657,0.4660148926816237 l -6.328530863400381 -1.072258584602188" fill="#ff0400" stroke="none" /><path d="M 120.23288151984713 105.62410040840565 l 34.37163771835519 9.554226941908832 a56.6748192973609,56.6748192973609 0 0,0 -0.2693602032869714,0.9376782043807954 l -34.20208487818211 -10.14446262179421" fill="#6bff28" stroke="none" /><line stroke="#e1ed5e" stroke-width="0.3" x1="174.80103733775053" x2="179.2010983576182" y1="140.37084112569926" y2="142.7455964860345" /><path d="M 175.68104954172406 140.8457921977663 a86.0,86.0 0 0,1 -30.038265399797805,32.042727171017184" fill="none" id="id125" stroke="none" /><text fill="#e1ed5e" style="font-size:6.75px; font-family:Arial;" text-anchor="middle"><textPath startOffset="22.206326154141568" xlink:href="#id125">May</textPath></text><path d="M 117.75023020441432 111.22182372390056 l 27.603015295467753 17.450825613339713 a53.65666498571188,53.65666498571188 0 0,0 -0.5002720976956808,0.7764334052099391 l -27.298538334395023 -17.923380618471107" fill="#8eff24" stroke="none" /><path d="M 116.71984013943494 112.70617746262583 l 13.63575240821849 10.36243699044763 a38.126407799630186,38.126407799630186 0 0,0 -0.4015857852020029,0.5191037616822091 l -13.455359805798418 -10.595618746243092" fill="#ffa60f" stroke="none" /><path d="M 116.498646956653 112.99209946851258 l 36.99045273715665 29.128669921181583 a68.08261892755084,68.08261892755084 0 0,0 -0.7329647923768768,0.9144862769790804 l -36.48357003272492 -29.761084031738914" fill="#37ff7c" stroke="none" /><path d="M 116.0416608686014 113.55231037782055 l 22.627038150710888 19.115766531969832 a50.62086064884854,50.62086064884854 0 0,0 -0.5680564278035699,0.6607779601905914 l -22.29463921333654 -19.50242159132195" fill="#b2ff20" stroke="none" /><path d="M 115.80600337817218 113.82643327865902 l 23.072230459262194 20.182626018881916 a51.653975458060174,51.653975458060174 0 0,0 -0.5911702800869849,0.6641860766308383 l -22.721401329526874 -20.57678626525362" fill="#a6ff21" stroke="none" /><path d="M 115.32070863581623 114.36230785411682 l 14.941274937321769 14.006609973715655 a41.47991259035132,41.47991259035132 0 0,0 -0.49280792574599336,0.5167071399245509 l -14.69796046019681 -14.261724230222713" fill="#ffd513" stroke="none" /><path d="M 114.81725581225074 114.88116024355365 l 34.23527495075169 34.3829261625515 a69.52050764834426,69.52050764834426 0 0,0 -0.8552679267527953,0.837059676364495 l -33.6383570716231 -34.96713594183857" fill="#39ff8d" stroke="none" /><path d="M 114.29624159901734 115.38237550388516 l 4.177847708840416 4.49525295234566 a27.136913767019664,27.136913767019664 0 0,0 -0.3448978338331624,0.3150559937578825 l -4.099850325540388 -4.566501712690125" fill="#ff0000" stroke="none" /><path d="M 113.75828350139079 115.86535959552629 l 19.318797811668805 22.277464641894362 a50.48730879139351,50.48730879139351 0 0,0 -0.6614667449155955,0.5637163102316367 l -18.932465590176164 -22.606705342348945" fill="#b4ff20" stroke="none" /><path d="M 112.34349029814194 116.9893568818739 l 7.58577921163337 10.44092935957824 a33.90569843671205,33.90569843671205 0 0,0 -0.475120022862912,0.3389855210936752 l -7.4049318609215735 -10.569959142516135" fill="#ff6809" stroke="none" /><line stroke="#e1ed5e" stroke-width="0.3" x1="143.8653032363475" x2="146.44561519142675" y1="172.8068346515853" y2="177.08958963109032" /><path d="M 144.38136562736335 173.6633856474863 a86.0,86.0 0 0,1 -40.68145358897372,12.25698825130547" fill="none" id="id126" stroke="none" /><text fill="#e1ed5e" style="font-size:6.75px; font-family:Arial;" text-anchor="middle"><textPath startOffset="21.466115282336833" xlink:href="#id126">June</textPath></text><path d="M 110.8373102113329 117.98757091392108 l 11.157019060230022 18.518217862213756 a42.61951588502269,42.61951588502269 0 0,0 -0.6316458411731095,0.3731874966231997 l -10.836605348028531 -18.707523931130705" fill="#ffe415" stroke="none" /><path d="M 110.21172684928248 118.3499491758327 l 7.82601523959552 14.062947826102521 a37.09388132459237,37.09388132459237 0 0,0 -0.5606072262703414,0.30568775836830364 l -7.58278520145653 -14.195576236230595" fill="#ff970d" stroke="none" /><path d="M 108.92500713936063 119.00905698771935 l 12.643385050758393 26.928698565137804 a50.74911749873928,50.74911749873928 0 0,0 -0.7939385373759782,0.364458242283103 l -12.177978517614996 -27.142343877754982" fill="#b1ff20" stroke="none" /><path d="M 108.59647513512805 119.15986991738527 l 12.174606784217456 27.13482894026287 a50.74088082030593,50.74088082030593 0 0,0 -0.7999645994884861,0.35068097162323547 l -11.705721510071218 -27.34037446518056" fill="#b1ff20" stroke="none" /><path d="M 108.2653958097858 119.30500536409082 l 3.751545848443429 8.762267941492556 a30.531601949907547,30.531601949907547 0 0,0 -0.4849124113122445,0.20269342725607922 l -3.6001619776337233 -8.82554641176861" fill="#ff3505" stroke="none" /><path d="M 107.93186726928326 119.44442032107085 l 11.77491407140644 28.86538196819919 a52.17465120188267,52.17465120188267 0 0,0 -0.8344936049323476,0.3320622273878242 l -11.276299390432227 -29.063791039993085" fill="#9fff22" stroke="none" /><path d="M 105.53697534728816 120.25689768951611 l 8.067348571498515 29.514210266178495 a51.596907043200545,51.596907043200545 0 0,0 -0.858743434903112,0.2268019461555356 l -7.558114693783905 -29.648703561637614" fill="#a6ff21" stroke="none" /><line stroke="#e1ed5e" stroke-width="0.3" x1="102.19456741930631" x2="102.32365962044197" y1="184.97166512339345" y2="189.96999836594603" /><path d="M 102.22038585953345 185.97133177190398 a86.0,86.0 0 0,1 -42.740103519485714,-10.115201625700543" fill="none" id="id127" stroke="none" /><text fill="#e1ed5e" style="font-size:6.75px; font-family:Arial;" text-anchor="middle"><textPath startOffset="22.20632615414155" xlink:href="#id127">July</textPath></text><path d="M 95.51606077576429 120.51570834832081 l -6.218041902858515 28.449880294358127 a50.12146517380283,50.12146517380283 0 0,0 -0.8412765026987076,-0.19147179305307999 l 6.706838554950086 -28.33863176772736" fill="#b9ff1f" stroke="none" /><path d="M 94.81253420990036 120.34920634021253 l -14.956880162894945 58.67231765103066 a81.54873345290258,81.54873345290258 0 0,0 -1.3572410342098988,-0.3584596929066339 l 15.964611639916333 -58.40616660882044" fill="#4aebff" stroke="none" /><line stroke="#e1ed5e" stroke-width="0.3" x1="58.666819895761336" x2="56.23545636021788" y1="174.27360380694188" y2="178.64263932499728" /><path d="M 58.180547188652646 175.14741091055294 a86.0,86.0 0 0,1 -31.652253787137756,-30.449443065178592" fill="none" id="id128" stroke="none" /><text fill="#e1ed5e" style="font-size:6.75px; font-family:Arial;" text-anchor="middle"><textPath startOffset="22.20632615414155" xlink:href="#id128">August</textPath></text><line stroke="#e1ed5e" stroke-width="0.3" x1="26.63291911575756" x2="22.317208475507996" y1="142.92168965132927" y2="145.44649492493687" /><path d="M 25.769776987707644 143.4266507060508 a86.0,86.0 0 0,1 -11.730757126820373,-40.83630448921669" fill="none" id="id129" stroke="none" /><text fill="#e1ed5e" style="font-size:6.75px; font-family:Arial;" text-anchor="middle"><textPath startOffset="21.46611528233685" xlink:href="#id129">September</textPath></text><line stroke="#e1ed5e" stroke-width="0.3" x1="15.007084014347285" x2="10.007500721073583" y1="101.09737516637583" y2="101.16192664675087" /><path d="M 14.007167355692545 101.11028546245083 a86.0,86.0 0 0,1 10.666146001902534,-42.60595125391555" fill="none" id="id130" stroke="none" /><text fill="#e1ed5e" style="font-size:6.75px; font-family:Arial;" text-anchor="middle"><textPath startOffset="22.20632615414155" xlink:href="#id130">October</textPath></text><line stroke="#e1ed5e" stroke-width="0.3" x1="26.266209847984243" x2="21.928928074336255" y1="57.711370442889674" y2="55.22380399835377" /><path d="M 25.398753493254645 57.213857153982495 a86.0,86.0 0 0,1 29.58750427330803,-30.492523968695096" fill="none" id="id131" stroke="none" /><text fill="#e1ed5e" style="font-size:6.75px; font-family:Arial;" text-anchor="middle"><textPath startOffset="21.46611528233685" xlink:href="#id131">November</textPath></text><line stroke="#e1ed5e" stroke-width="0.3" x1="56.762969772571076" x2="54.21961505331055" y1="26.818313649435495" y2="22.513508569990535" /><path d="M 56.25429882871897 25.957352633546506 a86.0,86.0 0 0,1 42.265352541879196,-11.944610805530505" fill="none" id="id132" stroke="none" /><text fill="#e1ed5e" style="font-size:6.75px; font-family:Arial;" text-anchor="middle"><textPath startOffset="22.20632615414155" xlink:href="#id132">December</textPath></text></svg>