<?xml version="1.0" encoding="utf-8" ?>
<svg baseProfile="full" height="200mm" version="1.1" viewBox="0,0,200,200" width="200mm" xmlns="http://www.w3.org/2000/svg" xmlns:ev="http://www.w3.org/2001/xml-events" xmlns:xlink="http://www.w3.org/1999/xlink"><defs /><rect fill="#1a1a1a" height="200" width="200" x="0" y="0" /><text alignment-baseline="middle" fill="#e1ed5e" style="dominant-baseline: central; font-size:9.0px; font-family:Arial;" text-anchor="middle" x="100.0" y="100.0">2025</text><line stroke="#e1ed5e" stroke-width="0.3" x1="100.0" x2="100.0" y1="15.0" y2="10.0" /><path d="M 100.0 14.0 a86.0,86.0 0 0,1 42.46469731375804,11.215312516191453" fill="none" id="id109" stroke="none" /><text fill="#e1ed5e" style="font-size:6.75px; font-family:Arial;" text-anchor="middle"><textPath startOffset="22.20632615414155" xlink:href="#id109">January</textPath></text><path d="M 105.71112130821622 79.79150937346287 l 1.3441510095815563 -4.756204887243646 a25.942491969239754,25.942491969239754 0 0,0 0.4286808804741727,0.1251437042141477 l -1.4258221077791562 4.732362854110795" fill="#ff3505" stroke="none" /><path d="M 106.0581310904928 79.89281104454417 l 1.4417797664288925 -4.785326986607111 a25.997807845809405,25.997807845809405 0 0,0 0.4273725498014028,0.13278673156626977 l -1.5239376889410137 4.759800120158321" fill="#ff3605" stroke="none" /><path d="M 106.74666289553966 80.11325718540242 l 2.5360569879700114 -7.4753865524043634 a28.8938576851942,28.8938576851942 0 0,0 0.4696187428567363,0.16384075817698007 l -2.664357734890021 7.430624941055176" fill="#ff5f08" stroke="none" /><path d="M 107.08798089147638 80.2323363322302 l 2.820592758063963 -7.866348659631033 a29.35674486518057,29.35674486518057 0 0,0 0.47420603409782913,0.174654084347577 l -2.955581117934369 7.816631307477131" fill="#ff6509" stroke="none" /><line stroke="#e1ed5e" stroke-width="0.3" x1="143.23703022742887" x2="145.7803849466894" y1="26.81831364943548" y2="22.513508569990506" /><path d="M 143.74570117128098 25.957352633546492 a86.0,86.0 0 0,1 28.547481713284135,27.462654790039103" fill="none" id="id110" stroke="none" /><text fill="#e1ed5e" style="font-size:6.75px; font-family:Arial;" text-anchor="middle"><textPath startOffset="19.985693538727396" xlink:href="#id110">February</textPath></text><path d="M 113.06298171725822 83.55741782278167 l 3.7146527042725674 -4.675692247898796 a26.971661637301665,26.971661637301665 0 0,0 0.3610305914911424,0.2919282969911262 l -3.794586694328201 4.6110578536435405" fill="#ff4406" stroke="none" /><path d="M 114.42810811169701 84.74124197986012 l 0.8572596738263042 -0.906613522859241 a22.247734838898083,22.247734838898083 0 0,0 0.275995605580987,0.2655075538978778 l -0.8727385230197096 0.8917228821990613" fill="#ff0000" stroke="none" /><path d="M 114.94478906791727 85.2469230424477 l 2.696084754578966 -2.661499315087368 a24.788462961160324,24.788462961160324 0 0,0 0.2971496178664716,0.3062388014002297 l -2.7414986361485467 2.6146963181370237" fill="#ff2503" stroke="none" /><path d="M 116.38621287248628 86.86637796730983 l 5.666666003192327 -4.5418578441871995 a28.26220188844544,28.26220188844544 0 0,0 0.30098695837049455,0.382222871426348 l -5.7440070421567855 4.443642578807813" fill="#ff5607" stroke="none" /><path d="M 116.60985879189232 87.15038557335679 l 6.195592125440688 -4.792994988947155 a28.833145137739706,28.833145137739706 0 0,0 0.3003096457444662,0.39517229189872577 l -6.2771777114092675 4.685637921167395" fill="#ff5e08" stroke="none" /><path d="M 116.82858285166822 87.43820079747576 l 2.98570151631534 -2.2286952655022607 a24.72578798792952,24.72578798792952 0 0,0 0.2516583489562864,0.3432617051570337 l -3.023622477785253 2.1769711166737333" fill="#ff2403" stroke="none" /><path d="M 117.04232023915458 87.72973835380427 l 6.8951970208913975 -4.964457325125577 a29.496445050131413,29.496445050131413 0 0,0 0.293120754410031,0.4145985196770593 l -6.979630395105311 4.845032305116724" fill="#ff6709" stroke="none" /><path d="M 117.2510076193507 88.02491185347247 l 6.931066281374987 -4.811320677627424 a29.43732697362017,29.43732697362017 0 0,0 0.2853675984732826,0.4187417382473905 l -7.012858345517002 4.691300916109626" fill="#ff6609" stroke="none" /><path d="M 117.65298651832404 88.62581576622439 l 20.32267208776512 -13.094317848648947 a45.175859047989874,45.175859047989874 0 0,0 0.41555853733114745,0.6573138094592746 l -20.545058221342224 12.742556391475466" fill="#d0ff1d" stroke="none" /><line stroke="#e1ed5e" stroke-width="0.3" x1="172.23445277983987" x2="176.4835382374775" y1="55.19839476539836" y2="52.563006222186495" /><path d="M 173.08426987136738 54.67131705675599 a86.0,86.0 0 0,1 12.851231095245387,41.99856678651699" fill="none" id="id111" stroke="none" /><text fill="#e1ed5e" style="font-size:6.75px; font-family:Arial;" text-anchor="middle"><textPath startOffset="22.20632615414155" xlink:href="#id111">March</textPath></text><path d="M 117.84615892207809 88.93136811851018 l 7.43055479448666 -4.608614999705212 a29.74371069794607,29.74371069794607 0 0,0 0.2661130162137666,0.4374198289490971 l -7.508783608986651 4.4800273975490335" fill="#ff6a09" stroke="none" /><path d="M 118.3937258080291 89.86733742301442 l 6.50475053412063 -3.5833111245433678 a28.426432395600116,28.426432395600116 0 0,0 0.2324089624018282,0.43061851052641187 l -6.565467595740923 3.4708116306844974" fill="#ff5808" stroke="none" /><path d="M 118.73160827565052 90.50648371742162 l 7.391372647004136 -3.746080717807527 a29.286465492066583,29.286465492066583 0 0,0 0.22402749701362076,0.4516257636362927 l -7.454760156971164 3.6182953656722843" fill="#ff6409" stroke="none" /><path d="M 118.89224826269711 90.83032412892265 l 4.562497265147062 -2.214486095161162 a26.071521464031928,26.071521464031928 0 0,0 0.19248456081318718,0.40542157475571755 l -4.5999400198020055 2.135622104764904" fill="#ff3705" stroke="none" /><path d="M 119.04729006885535 91.15688171328212 l 3.8000762082859727 -1.7642679502929781 a25.18965638080405,25.18965638080405 0 0,0 0.1792036333229318,0.39485145168532343 l -3.829882158572252 1.698594489765592" fill="#ff2b04" stroke="none" /><path d="M 119.34039704204932 91.81776055985345 l 7.7236580637428105 -3.2676071485999825 a29.386426555047212,29.386426555047212 0 0,0 0.19308045545276512,0.4675596378832195 l -7.778760206081773 3.13417294026346" fill="#ff6509" stroke="none" /><path d="M 119.47837535516314 92.15188598940014 l 25.653321818626555 -10.336087620871488 a48.6573250267692,48.6573250267692 0 0,0 0.306324391144831,0.7795621630650358 l -25.827439759653085 9.892976452910668" fill="#a8ff21" stroke="none" /><path d="M 119.61058180528143 92.48833698450437 l 4.830811888258668 -1.8504005315169438 a26.173076997955807,26.173076997955807 0 0,0 0.15753127796834623,0.4221055053313042 l -4.861947754728639 1.7669718891563064" fill="#ff3905" stroke="none" /><path d="M 119.85752413597 93.16781622104841 l 2.6807367636258763 -0.9223348342257581 a23.834969337097245,23.834969337097245 0 0,0 0.13014200414564048,0.38910802760851615 l -2.696216061543287 0.876053703694928" fill="#ff1702" stroke="none" /><path d="M 120.18372546131832 94.20196356495316 l 3.905618660132019 -1.1219395218312298 a25.063570524676337,25.063570524676337 0 0,0 0.11554691445864902,0.41568372903365225 l -3.9243523451570312 1.0545444893786255" fill="#ff2904" stroke="none" /><path d="M 120.37134235888165 94.90015583598534 l 2.4149350872669393 -0.6045646081787523 a23.489459748856227,23.489459748856227 0 0,0 0.09481598696651133,0.3930734788614293 l -2.4249838744942704 0.562905897657917" fill="#ff1202" stroke="none" /><path d="M 120.53481517161879 95.60439243477599 l 7.461975638270846 -1.5972832622537299 a28.631015282780105,28.631015282780105 0 0,0 0.09900973754780834,0.48280664287570635 l -7.488364671733652 1.4686009632146118" fill="#ff5b08" stroke="none" /><path d="M 120.83666639777658 97.38593545837742 l 2.721159509321236 -0.3413831392038206 a23.742490022388786,23.742490022388786 0 0,0 0.04738282741210126,0.4059471290618286 l -2.726632689736926 0.2944922718171392" fill="#ff1602" stroke="none" /><path d="M 120.87857604477298 97.74499172005257 l 6.162482540632617 -0.665584143495123 a27.198321814465103,27.198321814465103 0 0,0 0.046266772944401666,0.46590008954468803 l -6.173026439259247 0.559408523246" fill="#ff4706" stroke="none" /><path d="M 120.96714384426684 98.82574320788733 l 10.182525127912712 -0.5702683866300109 a31.198481456244522,31.198481456244522 0 0,0 0.025413973633834012,0.536448816384676 l -10.190832709780043 0.39490846362233506" fill="#ff7e0b" stroke="none" /><path d="M 120.98425023603335 99.18683210126433 l 5.474493270961575 -0.2121439717748943 a26.478602161004574,26.478602161004574 0 0,0 0.01372891003411594,0.455595686439423 l -5.477333875451335 0.1178781379104722" fill="#ff3d05" stroke="none" /><line stroke="#e1ed5e" stroke-width="0.3" x1="184.98032266829074" x2="189.97916517819016" y1="98.17113171792111" y2="98.06355123074" /><path d="M 185.9800911702706 98.14961562048488 a86.0,86.0 0 0,1 -9.607161424134198,41.387399972396054" fill="none" id="id112" stroke="none" /><text fill="#e1ed5e" style="font-size:6.75px; font-family:Arial;" text-anchor="middle"><textPath startOffset="21.466115282336823" xlink:href="#id112">April</textPath></text><path d="M 120.99513854157772 99.54816195383933 l 6.800070521696825 -0.14634485846299894 a27.80164508906843,27.80164508906843 0 0,0 0.0061785752260228935,0.4785374602842683 l -6.8015821040405635 0.029271140118267883" fill="#ff5007" stroke="none" /><path d="M 120.99980553446 99.90962569577887 l 30.513598480817457 -0.13131765565455372 a51.51388104740582,51.51388104740582 0 0,0 -0.003816204017793742,0.8867514161704784 l -30.51133797951016 -0.39394323871960935" fill="#89ff24" stroke="none" /><path d="M 120.89721153311464 102.0752229133903 l 6.423558315902798 0.6378992422762474 a27.45515428793926,27.45515428793926 0 0,0 -0.05074980482815851,0.46988016353837664 l -6.411626209573587 -0.7483757276994155" fill="#ff4b06" stroke="none" /><path d="M 120.8583938346157 102.4346265915055 l 6.978963151583547 0.8145962438289267 a28.026342840455563,28.026342840455563 0 0,0 -0.060054434721471615,0.47869293281552344 l -6.963907207615227 -0.934606930931845" fill="#ff5307" stroke="none" /><path d="M 120.81339534386255 102.79330883721812 l 16.667086588959243 2.2368440848046394 a37.81651708361724,37.81651708361724 0 0,0 -0.09213895161096113,0.6444196129667922 l -16.62611358633168 -2.5234091697518406" fill="#ffd513" stroke="none" /><path d="M 120.41448212921028 104.9243191809786 l 15.49871139693441 3.7385519421612763 a36.94323761316071,36.94323761316071 0 0,0 -0.1544380131306977,0.6169030930220217 l -15.432062069508651 -4.004782874580694" fill="#ffca12" stroke="none" /><path d="M 120.32669344350535 105.2749913415812 l 8.21014004738084 2.1306179376134917 a29.48209481164217,29.48209481164217 0 0,0 -0.13170342989306005,0.4901174575105909 l -8.172248541146002 -2.2716263282996305" fill="#ff6709" stroke="none" /><path d="M 120.23288151984713 105.62410040840565 l 13.954247917479691 3.8788390736488787 a35.483315487199455,35.483315487199455 0 0,0 -0.168642673967429,0.5870672719209497 l -13.885412606626163 -4.1184638210744104" fill="#ffb711" stroke="none" /><path d="M 120.13307415673323 105.97154293290107 l 1.7586503869644836 0.5216220934749454 a22.834377494402805,22.834377494402805 0 0,0 -0.11501265739982436,0.37586801897044714 l -1.7494109570585266 -0.5518170849974496" fill="#ff0901" stroke="none" /><path d="M 119.79798401119884 107.00284435728193 l 6.967818856405122 2.4646222026211504 a28.390863428404554,28.390863428404554 0 0,0 -0.1669325163105683,0.4593265902237387 l -6.924362079089327 -2.5841965898510204" fill="#ff5808" stroke="none" /><path d="M 119.41010516605496 108.01547362559984 l 5.270486903193194 2.176466763327725 a26.702196047892535,26.702196047892535 0 0,0 -0.1790941958741081,0.423325775476177 l -5.2322417261267775 -2.2668670644700657" fill="#ff4006" stroke="none" /><path d="M 118.97047184881838 109.00673069616215 l 6.309283844791861 2.9954985267921197 a27.984273337875983,27.984273337875983 0 0,0 -0.21034411487559063,0.43337117851255974 l -6.256786473301556 -3.103658661269955" fill="#ff5207" stroke="none" /><line stroke="#e1ed5e" stroke-width="0.3" x1="174.80103733775053" x2="179.2010983576182" y1="140.37084112569926" y2="142.7455964860345" /><path d="M 175.68104954172406 140.8457921977663 a86.0,86.0 0 0,1 -30.038265399797805,32.042727171017184" fill="none" id="id113" stroke="none" /><text fill="#e1ed5e" style="font-size:6.75px; font-family:Arial;" text-anchor="middle"><textPath startOffset="22.206326154141568" xlink:href="#id113">May</textPath></text><path d="M 116.0416608686014 113.55231037782055 l 5.203475681808923 4.395998522905079 a27.811825172783024,27.811825172783024 0 0,0 -0.31209832973687096,0.3630408663797962 l -5.127034842501274 -4.484916488446403" fill="#ff5007" stroke="none" /><path d="M 115.07121518719521 114.62390073753431 l 1.1094573905543181 1.076528637569645 a22.545900905285702,22.545900905285702 0 0,0 -0.2726544238793424,0.2761974918883183 l -1.0907623416194403 -1.0954666234386279" fill="#ff0400" stroke="none" /><path d="M 114.29624159901734 115.38237550388516 l 3.3472660365311437 3.6015691766752562 a25.91685778253675,25.91685778253675 0 0,0 -0.32939147707439387,0.30089130451091767 l -3.2847750099898856 -3.6586532477727567" fill="#ff3505" stroke="none" /><path d="M 114.0293411484842 115.62618273729858 l 3.345164133477276 3.7259159559050774 a26.00725201985788,26.00725201985788 0 0,0 -0.33568878761276527,0.29620632520218587 l -3.280532992957923 -3.782945422879552" fill="#ff3605" stroke="none" /><path d="M 112.63410532772338 116.77436683061366 l 3.0081296863037337 3.99390930526699 a26.000015574807747,26.000015574807747 0 0,0 -0.359809299780502,0.26617831815212956 l -2.9389354161046675 -4.045097572158888" fill="#ff3605" stroke="none" /><path d="M 111.45004920935366 117.60387380957326 l 0.9682107220073338 1.4885752069405327 a22.775750024335636,22.775750024335636 0 0,0 -0.3304850240211969,0.21093117868805072 l -0.9424438959392065 -1.5050208144523924" fill="#ff0801" stroke="none" /><path d="M 111.1453310114006 117.79835938074945 l 30.058284005579793 48.00109934399445 a77.63573055582596,77.63573055582596 0 0,0 -1.1387342780783438,0.6995036003507982 l -29.22757052756914 -48.511391411173626" fill="#45fff0" stroke="none" /><line stroke="#e1ed5e" stroke-width="0.3" x1="143.8653032363475" x2="146.44561519142675" y1="172.8068346515853" y2="177.08958963109032" /><path d="M 144.38136562736335 173.6633856474863 a86.0,86.0 0 0,1 -40.68145358897372,12.25698825130547" fill="none" id="id114" stroke="none" /><text fill="#e1ed5e" style="font-size:6.75px; font-family:Arial;" text-anchor="middle"><textPath startOffset="21.466115282336833" xlink:href="#id114">June</textPath></text><path d="M 110.5260780823613 118.17145234162733 l 2.466993836010866 4.258837961052202 a25.921763846977512,25.921763846977512 0 0,0 -0.38802563947023155,0.2203310849383209 l -2.3933194296194356 -4.300672211785151" fill="#ff3505" stroke="none" /><path d="M 110.21172684928248 118.3499491758327 l 10.023575806935352 18.011851406923753 a41.61307505110484,41.61307505110484 0 0,0 -0.6289067023437401,0.3429300784102838 l -9.712046292722963 -18.18172213709381" fill="#faff18" stroke="none" /><path d="M 108.92500713936063 119.00905698771935 l 2.0997267356015894 4.472133697200369 a25.940529543463448,25.940529543463448 0 0,0 -0.4058235315127864,0.18629367893024854 l -2.0224352083213835 -4.507614446464691" fill="#ff3505" stroke="none" /><path d="M 107.59598834532513 119.57807347666477 l 1.8071546145730004 4.657801489332016 a25.996090723255136,25.996090723255136 0 0,0 -0.41857392463572035,0.15826884235023567 l -1.7267104691770052 -4.688218581788882" fill="#ff3605" stroke="none" /><path d="M 106.91757812671514 119.82793768551818 l 4.648547857182929 13.324188834877724 a35.11180375742237,35.11180375742237 0 0,0 -0.572373007492099,0.19418000061934737 l -4.418505116753603 -13.402231822395194" fill="#ffb210" stroke="none" /><path d="M 106.2309692047433 120.05430185196036 l 1.020039925083715 3.2829866247946855 a24.437802005256497,24.437802005256497 0 0,0 -0.40278737350921984,0.12135653152312062 l -0.9633775771342494 -3.3000585254235317" fill="#ff2003" stroke="none" /><path d="M 104.48393922423573 120.51570834832081 l 1.469682772266435 6.724351426843661 a27.883085758785164,27.883085758785164 0 0,0 -0.4697749439597667,0.09844590704299391 l -1.3537163668772902 -6.748653314613197" fill="#ff5107" stroke="none" /><path d="M 104.13013068566511 120.58985236759428 l 0.8052005974155629 4.0141493547958556 a25.094110775820113,25.094110775820113 0 0,0 -0.42424866709244347,0.08130826676860459 l -0.7359843157514151 -4.027414819912928" fill="#ff2904" stroke="none" /><path d="M 103.06178313531738 120.77559828337769 l 0.47097157072824153 3.1957574145195258 a24.23027547941205,24.23027547941205 0 0,0 -0.4131508988973462,0.05725894994760764 l -0.41589208064406485 -3.203390929959736" fill="#ff1d02" stroke="none" /><path d="M 102.70371172650421 120.8252237178851 l 0.3396838875625348 2.6164005883116483 a23.638358804633505,23.638358804633505 0 0,0 -0.4039599399549962,0.04891392303122832 l -0.29459652455615837 -2.6218600400682277" fill="#ff1402" stroke="none" /><path d="M 102.34483914955558 120.86867818915974 l 0.29091252729403155 2.589073077547732 a23.605365521269345,23.605365521269345 0 0,0 -0.4041771422218311,0.04189461337192258 l -0.24630278846659778 -2.593697059375413" fill="#ff1402" stroke="none" /><line stroke="#e1ed5e" stroke-width="0.3" x1="102.19456741930631" x2="102.32365962044197" y1="184.97166512339345" y2="189.96999836594603" /><path d="M 102.22038585953345 185.97133177190398 a86.0,86.0 0 0,1 -42.740103519485714,-10.115201625700543" fill="none" id="id115" stroke="none" /><text fill="#e1ed5e" style="font-size:6.75px; font-family:Arial;" text-anchor="middle"><textPath startOffset="22.20632615414155" xlink:href="#id115">July</textPath></text><path d="M 100.18074693466247 120.99922214144158 l 0.05103492539271153 5.929249850321336 a26.929469483111067,26.929469483111067 0 0,0 -0.46356372011032987,0.0 l 0.05103492539270745 -5.929249850321336" fill="#ff4306" stroke="none" /><path d="M 97.2962882734958 120.8252237178851 l -3.3260628454986394 25.61885654385691 a46.833863525747105,46.833863525747105 0 0,0 -0.798565118706093,-0.11067384891072585 l 3.7665565553915634 -25.55780812945358" fill="#bdff1f" stroke="none" /><path d="M 94.46302465271185 120.25689768951611 l -0.7133982838188064 2.6099513074898795 a23.705694539083034,23.705694539083034 0 0,0 -0.3926891556466499,-0.11097787785169894 l 0.7582186075700702 -2.5972846362996593" fill="#ff1502" stroke="none" /><line stroke="#e1ed5e" stroke-width="0.3" x1="58.666819895761336" x2="56.23545636021788" y1="174.27360380694188" y2="178.64263932499728" /><path d="M 58.180547188652646 175.14741091055294 a86.0,86.0 0 0,1 -31.652253787137756,-30.449443065178592" fill="none" id="id116" stroke="none" /><text fill="#e1ed5e" style="font-size:6.75px; font-family:Arial;" text-anchor="middle"><textPath startOffset="22.20632615414155" xlink:href="#id116">August</textPath></text><path d="M 89.7882731507175 118.34994917583269 l -5.9553860567773125 10.701523168141222 a33.24700866348681,33.24700866348681 0 0,0 -0.4976780080737326,-0.28259456158241913 l 6.138712831772253 -10.59742544076417" fill="#ff9a0e" stroke="none" /><path d="M 88.8546689885994 117.79835938074946 l -1.5272564364225487 2.4389279146762015 a23.877652097731918,23.877652097731918 0 0,0 -0.34647405326530323,-0.22113613364637533 l 1.5690122917347755 -2.412277352206022" fill="#ff1802" stroke="none" /><path d="M 88.54995079064634 117.60387380957326 l -2.117718533900142 3.2558855558907207 a24.88400856614426,24.88400856614426 0 0,0 -0.357056256083371,-0.2366374168495044 l 2.1734494887234743 -3.218950117949898" fill="#ff2603" stroke="none" /><path d="M 86.51685102203217 116.09983520530335 l -3.1805951761188145 3.7978559959524785 a25.95377591745352,25.95377591745352 0 0,0 -0.3400371318130686,-0.28978702067913287 l 3.2454977845089394 -3.742544585050394" fill="#ff3505" stroke="none" /><path d="M 86.24171649860922 115.8653595955263 l -2.8657354103578263 3.3046217419755908 a25.37412440377689,25.37412440377689 0 0,0 -0.3275166884734903,-0.2889953978654501 l 2.9221944517379046 -3.2548032023378517" fill="#ff2d04" stroke="none" /><path d="M 82.24976979558568 111.22182372390057 l -5.187290091549157 3.2794422574657176 a27.136996008955514,27.136996008955514 0 0,0 -0.2462170148997896,-0.3969802252227294 l 5.242971746116902 -3.189665700877724" fill="#ff4606" stroke="none" /><path d="M 82.05923443525364 110.91462005526583 l -11.966017357328964 7.279763651033925 a35.0064460235569,35.0064460235569 0 0,0 -0.30875539416192005,-0.5174918001924702 l 12.089553627189115 -7.072709756955344" fill="#ffb110" stroke="none" /><line stroke="#e1ed5e" stroke-width="0.3" x1="26.63291911575756" x2="22.317208475507996" y1="142.92168965132927" y2="145.44649492493687" /><path d="M 25.769776987707644 143.4266507060508 a86.0,86.0 0 0,1 -11.730757126820373,-40.83630448921669" fill="none" id="id117" stroke="none" /><text fill="#e1ed5e" style="font-size:6.75px; font-family:Arial;" text-anchor="middle"><textPath startOffset="21.46611528233685" xlink:href="#id117">September</textPath></text><path d="M 81.87401531095188 110.60418214915194 l -4.171958364407721 2.4407063767182686 a25.833454687043705,25.833454687043705 0 0,0 -0.2212426313310869,-0.385755176322648 l 4.213352991891185 -2.3685313545373137" fill="#ff3404" stroke="none" /><path d="M 81.69416730710424 110.29060199501025 l -4.2178434716328495 2.371055672363405 a25.838606054706514,25.838606054706514 0 0,0 -0.21461249727760448,-0.38958402097260036 l 4.258032378361971 -2.2981011329929824" fill="#ff3404" stroke="none" /><path d="M 81.02952815118164 109.00673069616217 l -36.83203993581298 17.48698015188382 a61.77246179304974,61.77246179304974 0 0,0 -0.4477779364378173,-0.964473838891732 l 37.127592489090624 -16.85038624571326" fill="#31ff42" stroke="none" /><path d="M 80.87730276802145 108.67885076344099 l -57.36809169593562 26.03655229032298 a84.0,84.0 0 0,0 -0.5862356610748805,-1.3218066540292166 l 57.80776844174178 -25.045197299801067" fill="#4dd2ff" stroke="none" /><line stroke="#e1ed5e" stroke-width="0.3" x1="15.007084014347285" x2="10.007500721073583" y1="101.09737516637583" y2="101.16192664675087" /><path d="M 14.007167355692545 101.11028546245083 a86.0,86.0 0 0,1 10.666146001902534,-42.60595125391555" fill="none" id="id118" stroke="none" /><text fill="#e1ed5e" style="font-size:6.75px; font-family:Arial;" text-anchor="middle"><textPath startOffset="22.20632615414155" xlink:href="#id118">October</textPath></text><path d="M 79.03285615573316 98.82574320788736 l -15.56903805967903 -0.8719379627491477 a36.593435218534026,36.593435218534026 0 0,0 0.04063510868640505,-0.6286071458538457 l 15.551722359988212 1.139804172856005" fill="#ffc512" stroke="none" /><line stroke="#e1ed5e" stroke-width="0.3" x1="26.266209847984243" x2="21.928928074336255" y1="57.711370442889674" y2="55.22380399835377" /><path d="M 25.398753493254645 57.213857153982495 a86.0,86.0 0 0,1 29.58750427330803,-30.492523968695096" fill="none" id="id119" stroke="none" /><text fill="#e1ed5e" style="font-size:6.75px; font-family:Arial;" text-anchor="middle"><textPath startOffset="21.46611528233685" xlink:href="#id119">November</textPath></text><line stroke="#e1ed5e" stroke-width="0.3" x1="56.762969772571076" x2="54.21961505331055" y1="26.818313649435495" y2="22.513508569990535" /><path d="M 56.25429882871897 25.957352633546506 a86.0,86.0 0 0,1 42.265352541879196,-11.944610805530505" fill="none" id="id120" stroke="none" /><text fill="#e1ed5e" style="font-size:6.75px; font-family:Arial;" text-anchor="middle"><textPath startOffset="22.20632615414155" xlink:href="#id120">December</textPath></text></svg>